SplineFontDB: 3.2
FontName: PromptFont
FullName: PromptFont
FamilyName: PromptFont
Weight: Regular
Copyright: Copyright 2018-2023, Yukari Hafner\nCopyright 2011-2016, Severin Meyer\n
UComments: "2018-12-9: Created with FontForge (http://fontforge.org)"
FontLog: "2018-2023, Yukari Hafner+AAoA-2011-2016, Severin Meyer+AAoA"
Version: 1.0
ItalicAngle: 0
UnderlinePosition: -65
UnderlineWidth: 80
Ascent: 790
Descent: 210
InvalidEm: 0
LayerCount: 2
Layer: 0 0 "Back" 1
Layer: 1 0 "Fore" 0
XUID: [1021 451 1110793195 7257150]
StyleMap: 0x0040
FSType: 0
OS2Version: 0
OS2_WeightWidthSlopeOnly: 0
OS2_UseTypoMetrics: 0
CreationTime: 1544355305
ModificationTime: 1704464223
PfmFamily: 33
TTFWeight: 400
TTFWidth: 5
LineGap: 0
VLineGap: 0
Panose: 2 0 8 3 0 0 0 0 0 0
OS2TypoAscent: 790
OS2TypoAOffset: 0
OS2TypoDescent: -210
OS2TypoDOffset: 0
OS2TypoLinegap: 200
OS2WinAscent: 930
OS2WinAOffset: 0
OS2WinDescent: 270
OS2WinDOffset: 0
HheadAscent: 930
HheadAOffset: 0
HheadDescent: -270
HheadDOffset: 0
OS2SubXSize: 608
OS2SubYSize: 576
OS2SubXOff: 0
OS2SubYOff: 0
OS2SupXSize: 608
OS2SupYSize: 576
OS2SupXOff: 0
OS2SupYOff: 280
OS2StrikeYSize: 80
OS2StrikeYPos: 250
OS2CapHeight: 660
OS2XHeight: 490
OS2Vendor: 'PfEd'
MarkAttachClasses: 1
DEI: 91125
LangName: 1033 "" "" "" "PromptFont 1.0" "" "" "" "" "" "" "" "https://github.com/shinmera/promptfont" "" "SIL Open Font License 1.1" "http://scripts.sil.org/OFL"
Encoding: UnicodeFull
UnicodeInterp: none
NameList: AGL For New Fonts
DisplaySize: -48
AntiAlias: 1
FitToEm: 0
WinInfo: 8664 38 14
BeginPrivate: 8
BlueValues 29 [0 0 380 380 490 490 660 660]
OtherBlues 39 [-210 -210 -180 -180 -160 -160 280 280]
BlueFuzz 1 0
StdHW 5 [105]
StdVW 5 [180]
StemSnapH 12 [80 105 120]
StemSnapV 13 [140 180 200]
ForceBold 4 true
EndPrivate
TeXData: 1 0 0 335544 167772 111848 513802 1048576 111848 783286 444596 497025 792723 393216 433062 380633 303038 157286 324010 404750 52429 2506097 1059062 262144
BeginChars: 1114112 706

StartChar: exclam
Encoding: 33 33 0
Width: 350
Flags: W
HStem: 0 150<75 275 75 275> 225 21G<75 75 75 275> 640 20G<75 275 275 275>
VStem: 75 200<0 150 0 150 225 660>
LayerCount: 2
Fore
SplineSet
75 0 m 1
 75 150 l 1
 275 150 l 1
 275 0 l 1
 75 0 l 1
75 225 m 1
 75 660 l 1
 275 660 l 1
 275 225 l 1
 75 225 l 1
EndSplineSet
Validated: 1
EndChar

StartChar: quotedbl
Encoding: 34 34 1
Width: 560
Flags: W
HStem: 380 280<70 230 70 230 330 490 70 330>
VStem: 70 160<380 660 380 660> 330 160<380 660 380 660>
LayerCount: 2
Fore
SplineSet
70 380 m 1
 70 660 l 1
 230 660 l 1
 230 380 l 1
 70 380 l 1
330 380 m 1
 330 660 l 1
 490 660 l 1
 490 380 l 1
 330 380 l 1
EndSplineSet
Validated: 1
EndChar

StartChar: numbersign
Encoding: 35 35 2
Width: 810
Flags: W
HStem: 0 21G<170 330 170 170 480 640 480 480> 150 100<40 170 40 170 330 480 640 770> 410 100<40 170 40 170 330 480 640 770> 640 20G<170 330 330 330 480 640 640 640>
VStem: 170 160<0 150 0 150 250 410 510 660> 480 160<0 150 0 150 250 410 510 660>
LayerCount: 2
Fore
SplineSet
40 150 m 1
 40 250 l 1
 170 250 l 1
 170 410 l 1
 40 410 l 1
 40 510 l 1
 170 510 l 1
 170 660 l 1
 330 660 l 1
 330 510 l 1
 480 510 l 1
 480 660 l 1
 640 660 l 1
 640 510 l 1
 770 510 l 1
 770 410 l 1
 640 410 l 1
 640 250 l 1
 770 250 l 1
 770 150 l 1
 640 150 l 1
 640 0 l 1
 480 0 l 1
 480 150 l 1
 330 150 l 1
 330 0 l 1
 170 0 l 1
 170 150 l 1
 40 150 l 1
330 250 m 1
 480 250 l 1
 480 410 l 1
 330 410 l 1
 330 250 l 1
EndSplineSet
Validated: 1
EndChar

StartChar: dollar
Encoding: 36 36 3
Width: 740
Flags: W
HStem: 0 120<50 455 50 305 435 435 435 455 455 466.5 50 520> 285 120<163.5 520 285 455> 540 120<273.5 285 285 305 435 640>
VStem: 50 200<423.5 433 433 512 423.5 524 423.5 569.5> 305 130<-120 0 -120 0 660 780> 490 200<148 257 257 266.5>
LayerCount: 2
Fore
SplineSet
50 0 m 1
 50 120 l 1
 455 120 l 2
 478 120 490 129 490 148 c 2
 490 257 l 2
 490 276 478 285 455 285 c 2
 220 285 l 2
 107 285 50 330 50 421 c 2
 50 524 l 2
 50 615 107 660 220 660 c 2
 305 660 l 1
 305 780 l 1
 435 780 l 1
 435 660 l 1
 640 660 l 1
 640 540 l 1
 285 540 l 2
 262 540 250 531 250 512 c 2
 250 433 l 2
 250 414 262 405 285 405 c 2
 520 405 l 2
 633 405 690 360 690 269 c 2
 690 136 l 2
 690 45 633 0 520 0 c 2
 435 0 l 1
 435 -120 l 1
 305 -120 l 1
 305 0 l 1
 50 0 l 1
EndSplineSet
Validated: 1
EndChar

StartChar: percent
Encoding: 37 37 4
Width: 1110
Flags: W
HStem: 0 80<760 910 850 910 910 916.5 850 965> 280 80<110 260 200 260 260 266.5 200 315> 300 80<843.5 850 850 910> 580 80<193.5 200 200 260>
VStem: 40 140<370.5 376 376 564> 280 140<376 564 564 569.5> 690 140<90.5 96 96 284> 930 140<96 284 284 289.5>
LayerCount: 2
Fore
SplineSet
40 364 m 2xdf
 40 576 l 2
 40 632 75 660 145 660 c 2
 315 660 l 2
 385 660 420 632 420 576 c 2
 420 364 l 2
 420 308 385 280 315 280 c 2
 145 280 l 2
 75 280 40 308 40 364 c 2xdf
180 376 m 2
 180 365 187 360 200 360 c 2
 260 360 l 2
 273 360 280 365 280 376 c 2
 280 564 l 2
 280 575 273 580 260 580 c 2
 200 580 l 2
 187 580 180 575 180 564 c 2
 180 376 l 2
295 0 m 1
 657 660 l 1
 815 660 l 1
 453 0 l 1
 295 0 l 1
690 84 m 2
 690 296 l 2
 690 352 725 380 795 380 c 2
 965 380 l 2xbf
 1035 380 1070 352 1070 296 c 2
 1070 84 l 2
 1070 28 1035 0 965 0 c 2
 795 0 l 2
 725 0 690 28 690 84 c 2
830 96 m 2
 830 85 837 80 850 80 c 2
 910 80 l 2
 923 80 930 85 930 96 c 2
 930 284 l 2
 930 295 923 300 910 300 c 2
 850 300 l 2
 837 300 830 295 830 284 c 2
 830 96 l 2
EndSplineSet
Validated: 1
EndChar

StartChar: ampersand
Encoding: 38 38 5
Width: 840
Flags: W
HStem: 0 105<160 490 265 490 265 670> 295 105<256.5 810 295 490 670 810 670 670> 555 105<286.5 295 295 595>
VStem: 60 180<120 125 125 247 247 275 118.5 280.5> 90 180<461 535 413.5 540 413.5 580> 490 180<105 295 0 295>
LayerCount: 2
Fore
SplineSet
60 120 m 2xf4
 60 247 l 2xf4
 60 314 95 347 145 360 c 1
 109 379 90 412 90 461 c 2
 90 540 l 2xec
 90 620 140 660 240 660 c 2xf4
 595 660 l 1
 595 555 l 1
 295 555 l 2
 278 555 270 548 270 535 c 2
 270 420 l 2xec
 270 407 278 400 295 400 c 2
 810 400 l 1
 810 295 l 1
 670 295 l 1
 670 0 l 1
 210 0 l 2
 110 0 60 40 60 120 c 2xf4
240 125 m 2
 240 112 248 105 265 105 c 2
 490 105 l 1
 490 295 l 1
 265 295 l 2
 248 295 240 288 240 275 c 2
 240 125 l 2
EndSplineSet
Validated: 1
EndChar

StartChar: quotesingle
Encoding: 39 39 6
Width: 300
Flags: W
HStem: 380 280<70 230 70 230>
VStem: 70 160<380 660 380 660>
LayerCount: 2
Fore
SplineSet
70 380 m 1
 70 660 l 1
 230 660 l 1
 230 380 l 1
 70 380 l 1
EndSplineSet
Validated: 1
EndChar

StartChar: parenleft
Encoding: 40 40 7
Width: 420
Flags: W
HStem: -210 21G<225 380 225 225> 640 20G<225 380 380 380>
VStem: 70 170<145 305>
LayerCount: 2
Fore
SplineSet
70 225 m 0
 70 385 125 540 225 660 c 1
 380 660 l 1
 290 540 240 385 240 225 c 0
 240 65 290 -90 380 -210 c 1
 225 -210 l 1
 125 -90 70 65 70 225 c 0
EndSplineSet
Validated: 1
EndChar

StartChar: parenright
Encoding: 41 41 8
Width: 420
Flags: W
HStem: -210 21G<40 40 40 195> 640 20G<40 195 195 195>
VStem: 180 170<145 305>
LayerCount: 2
Fore
SplineSet
40 -210 m 1
 130 -90 180 65 180 225 c 0
 180 385 130 540 40 660 c 1
 195 660 l 1
 295 540 350 385 350 225 c 0
 350 65 295 -90 195 -210 c 1
 40 -210 l 1
EndSplineSet
Validated: 1
EndChar

StartChar: asterisk
Encoding: 42 42 9
Width: 550
Flags: W
HStem: 640 20G<205 345 345 345>
VStem: 205 140<518 660 518 660>
LayerCount: 2
Fore
SplineSet
30 434 m 1
 72 561 l 1
 205 518 l 1
 205 660 l 1
 345 660 l 1
 345 518 l 1
 478 561 l 1
 520 434 l 1
 383 390 l 1
 467 274 l 1
 359 195 l 1
 275 311 l 1
 191 195 l 1
 83 274 l 1
 167 390 l 1
 30 434 l 1
EndSplineSet
Validated: 1
EndChar

StartChar: plus
Encoding: 43 43 10
Width: 740
Flags: W
HStem: 225 120<85 285 85 285 455 655>
VStem: 285 170<30 225 30 225 345 540>
LayerCount: 2
Fore
SplineSet
85 225 m 1
 85 345 l 1
 285 345 l 1
 285 540 l 1
 455 540 l 1
 455 345 l 1
 655 345 l 1
 655 225 l 1
 455 225 l 1
 455 30 l 1
 285 30 l 1
 285 225 l 1
 85 225 l 1
EndSplineSet
Validated: 1
EndChar

StartChar: comma
Encoding: 44 44 11
Width: 340
Flags: W
HStem: -130 280<25 275 95 160>
VStem: 95 180<150 150>
LayerCount: 2
Fore
SplineSet
25 -130 m 1
 95 150 l 1
 275 150 l 1
 160 -130 l 1
 25 -130 l 1
EndSplineSet
Validated: 1
EndChar

StartChar: hyphen
Encoding: 45 45 12
Width: 460
Flags: W
HStem: 225 120<40 420 40 420>
VStem: 40 380<225 345 225 345>
LayerCount: 2
Fore
SplineSet
40 225 m 1
 40 345 l 1
 420 345 l 1
 420 225 l 1
 40 225 l 1
EndSplineSet
Validated: 1
EndChar

StartChar: period
Encoding: 46 46 13
Width: 340
Flags: W
HStem: 0 150<75 265 75 265>
VStem: 75 190<0 150 0 150>
LayerCount: 2
Fore
SplineSet
75 0 m 1
 75 150 l 1
 265 150 l 1
 265 0 l 1
 75 0 l 1
EndSplineSet
Validated: 1
EndChar

StartChar: slash
Encoding: 47 47 14
Width: 530
Flags: W
HStem: 0 21G<20 20 20 193> 640 20G<337 510 510 510>
LayerCount: 2
Fore
SplineSet
20 0 m 1
 337 660 l 1
 510 660 l 1
 193 0 l 1
 20 0 l 1
EndSplineSet
Validated: 1
EndChar

StartChar: zero
Encoding: 48 48 15
Width: 740
Flags: W
HStem: 0 120<173.5 445 295 445 445 456.5 295 510> 540 120<283.5 295 295 445>
VStem: 60 200<138.5 148 148 512> 480 200<148 512 512 521.5>
LayerCount: 2
Fore
SplineSet
60 136 m 2
 60 524 l 2
 60 615 117 660 230 660 c 2
 510 660 l 2
 623 660 680 615 680 524 c 2
 680 136 l 2
 680 45 623 0 510 0 c 2
 230 0 l 2
 117 0 60 45 60 136 c 2
260 148 m 2
 260 129 272 120 295 120 c 2
 445 120 l 2
 468 120 480 129 480 148 c 2
 480 512 l 2
 480 531 468 540 445 540 c 2
 295 540 l 2
 272 540 260 531 260 512 c 2
 260 148 l 2
EndSplineSet
Validated: 1
EndChar

StartChar: one
Encoding: 49 49 16
Width: 740
Flags: W
HStem: 0 21G<325 525 325 325> 540 120<145 525 145 325>
VStem: 325 200<0 540 540 540>
LayerCount: 2
Fore
SplineSet
145 540 m 1
 145 660 l 1
 525 660 l 1
 525 0 l 1
 325 0 l 1
 325 540 l 1
 145 540 l 1
EndSplineSet
Validated: 1
EndChar

StartChar: two
Encoding: 50 50 17
Width: 740
Flags: W
HStem: 0 120<260 680 260 680> 285 120<283.5 295 295 445 445 456.5 230 510> 540 120<110 445 110 510>
VStem: 60 200<120 257 120 269 120 314.5> 480 200<433 512 512 521.5>
LayerCount: 2
Fore
SplineSet
60 0 m 1
 60 269 l 2
 60 360 117 405 230 405 c 2
 445 405 l 2
 468 405 480 414 480 433 c 2
 480 512 l 2
 480 531 468 540 445 540 c 2
 110 540 l 1
 110 660 l 1
 510 660 l 2
 623 660 680 615 680 524 c 2
 680 421 l 2
 680 330 623 285 510 285 c 2
 295 285 l 2
 272 285 260 276 260 257 c 2
 260 120 l 1
 680 120 l 1
 680 0 l 1
 60 0 l 1
EndSplineSet
Validated: 1
EndChar

StartChar: three
Encoding: 51 51 18
Width: 740
Flags: W
HStem: 0 120<80 445 80 445 445 456.5 80 510> 285 120<170 445 170 445> 540 120<80 445 80 510>
VStem: 480 200<148 231 90.5 257 90.5 266.5 439.5 469 469 512 512 521.5>
LayerCount: 2
Fore
SplineSet
80 0 m 1
 80 120 l 1
 445 120 l 2
 468 120 480 129 480 148 c 2
 480 257 l 2
 480 276 468 285 445 285 c 2
 170 285 l 1
 170 405 l 1
 445 405 l 2
 468 405 480 414 480 433 c 2
 480 512 l 2
 480 531 468 540 445 540 c 2
 80 540 l 1
 80 660 l 1
 510 660 l 2
 623 660 680 615 680 524 c 2
 680 469 l 2
 680 410 656 371 609 350 c 1
 656 329 680 290 680 231 c 2
 680 136 l 2
 680 45 623 0 510 0 c 2
 80 0 l 1
EndSplineSet
Validated: 1
EndChar

StartChar: four
Encoding: 52 52 19
Width: 740
Flags: W
HStem: 0 21G<480 680 480 480> 120 120<60 60 283 480> 640 20G<435 680 680 680>
VStem: 480 200<0 120 120 120 240 462 462 462>
LayerCount: 2
Fore
SplineSet
60 120 m 1
 60 240 l 1
 435 660 l 1
 680 660 l 1
 680 0 l 1
 480 0 l 1
 480 120 l 1
 60 120 l 1
283 240 m 1
 480 240 l 1
 480 462 l 1
 283 240 l 1
EndSplineSet
Validated: 1
EndChar

StartChar: five
Encoding: 53 53 20
Width: 740
Flags: W
HStem: 0 120<60 445 60 445 445 456.5 60 510> 285 120<260 445> 540 120<260 640 260 260>
VStem: 60 200<405 540 405 660 405 660> 480 200<148 257 257 266.5>
LayerCount: 2
Fore
SplineSet
60 0 m 1
 60 120 l 1
 445 120 l 2
 468 120 480 129 480 148 c 2
 480 257 l 2
 480 276 468 285 445 285 c 2
 60 285 l 1
 60 660 l 1
 640 660 l 1
 640 540 l 1
 260 540 l 1
 260 405 l 1
 510 405 l 2
 623 405 680 360 680 269 c 2
 680 136 l 2
 680 45 623 0 510 0 c 2
 60 0 l 1
EndSplineSet
Validated: 1
EndChar

StartChar: six
Encoding: 54 54 21
Width: 740
Flags: W
HStem: 0 120<173.5 445 295 445 445 456.5 295 510> 285 120<260 445 260 510> 540 120<306.5 330 330 630>
VStem: 60 200<138.5 148 148 285 405 484> 480 200<148 257 257 266.5>
LayerCount: 2
Fore
SplineSet
60 136 m 2
 60 500 l 2
 60 607 127 660 260 660 c 2
 630 660 l 1
 630 540 l 1
 330 540 l 2
 283 540 260 521 260 484 c 2
 260 405 l 1
 510 405 l 2
 623 405 680 360 680 269 c 2
 680 136 l 2
 680 45 623 0 510 0 c 2
 230 0 l 2
 117 0 60 45 60 136 c 2
260 148 m 2
 260 129 272 120 295 120 c 2
 445 120 l 2
 468 120 480 129 480 148 c 2
 480 257 l 2
 480 276 468 285 445 285 c 2
 260 285 l 1
 260 148 l 2
EndSplineSet
Validated: 1
EndChar

StartChar: seven
Encoding: 55 55 22
Width: 740
Flags: W
HStem: 0 21G<166 385 166 166> 540 120<60 680 60 461 60 680>
LayerCount: 2
Fore
SplineSet
60 540 m 1
 60 660 l 1
 680 660 l 1
 680 540 l 1
 385 0 l 1
 166 0 l 1
 461 540 l 1
 60 540 l 1
EndSplineSet
Validated: 1
EndChar

StartChar: eight
Encoding: 56 56 23
Width: 740
Flags: W
HStem: 0 120<173.5 445 295 445 445 456.5 295 510> 285 120<283.5 445 295 445> 540 120<283.5 295 295 445>
VStem: 60 200<138.5 148 148 231 231 257 138.5 260.5 469 512> 480 200<148 231 90.5 257 90.5 266.5 439.5 469 469 512 512 521.5>
LayerCount: 2
Fore
SplineSet
60 136 m 2
 60 231 l 2
 60 290 84 329 131 350 c 1
 84 371 60 410 60 469 c 2
 60 524 l 2
 60 615 117 660 230 660 c 2
 510 660 l 2
 623 660 680 615 680 524 c 2
 680 469 l 2
 680 410 656 371 609 350 c 1
 656 329 680 290 680 231 c 2
 680 136 l 2
 680 45 623 0 510 0 c 2
 230 0 l 2
 117 0 60 45 60 136 c 2
260 148 m 2
 260 129 272 120 295 120 c 2
 445 120 l 2
 468 120 480 129 480 148 c 2
 480 257 l 2
 480 276 468 285 445 285 c 2
 295 285 l 2
 272 285 260 276 260 257 c 2
 260 148 l 2
260 433 m 2
 260 414 272 405 295 405 c 2
 445 405 l 2
 468 405 480 414 480 433 c 2
 480 512 l 2
 480 531 468 540 445 540 c 2
 295 540 l 2
 272 540 260 531 260 512 c 2
 260 433 l 2
EndSplineSet
Validated: 1
EndChar

StartChar: nine
Encoding: 57 57 24
Width: 740
Flags: W
HStem: 0 120<100 410 410 433.5 100 480 100 410> 285 120<173.5 480 295 480 295 480> 540 120<283.5 295 295 445>
VStem: 60 200<423.5 433 433 512 423.5 524 423.5 569.5> 480 200<0 160 176 285 285 285 405 512 512 521.5>
LayerCount: 2
Fore
SplineSet
60 421 m 2
 60 524 l 2
 60 615 117 660 230 660 c 2
 510 660 l 2
 623 660 680 615 680 524 c 2
 680 160 l 2
 680 53 613 0 480 0 c 2
 100 0 l 1
 100 120 l 1
 410 120 l 2
 457 120 480 139 480 176 c 2
 480 285 l 1
 230 285 l 2
 117 285 60 330 60 421 c 2
260 433 m 2
 260 414 272 405 295 405 c 2
 480 405 l 1
 480 512 l 2
 480 531 468 540 445 540 c 2
 295 540 l 2
 272 540 260 531 260 512 c 2
 260 433 l 2
EndSplineSet
Validated: 1
EndChar

StartChar: colon
Encoding: 58 58 25
Width: 340
Flags: W
HStem: 0 150<75 265 75 265> 340 150<75 265 75 265>
VStem: 75 190<0 150 0 150 340 490>
LayerCount: 2
Fore
SplineSet
75 0 m 1
 75 150 l 1
 265 150 l 1
 265 0 l 1
 75 0 l 1
75 340 m 1
 75 490 l 1
 265 490 l 1
 265 340 l 1
 75 340 l 1
EndSplineSet
Validated: 1
EndChar

StartChar: semicolon
Encoding: 59 59 26
Width: 340
Flags: W
HStem: -130 280<10 260 80 145> 340 150<75 265 75 265>
VStem: 75 190<340 490 340 490>
LayerCount: 2
Fore
SplineSet
10 -130 m 1
 80 150 l 1
 260 150 l 1
 145 -130 l 1
 10 -130 l 1
75 340 m 1
 75 490 l 1
 265 490 l 1
 265 340 l 1
 75 340 l 1
EndSplineSet
Validated: 1
EndChar

StartChar: less
Encoding: 60 60 27
Width: 740
Flags: W
VStem: 95 550<10 335 10 335>
LayerCount: 2
Fore
SplineSet
95 235 m 1
 95 335 l 1
 645 560 l 1
 645 422 l 1
 311 285 l 1
 645 148 l 1
 645 10 l 1
 95 235 l 1
EndSplineSet
Validated: 1
EndChar

StartChar: equal
Encoding: 61 61 28
Width: 740
Flags: W
HStem: 100 120<85 655 85 655> 350 120<85 655 85 655>
VStem: 85 570<100 220 100 220 350 470 100 470>
LayerCount: 2
Fore
SplineSet
85 350 m 1
 85 470 l 1
 655 470 l 1
 655 350 l 1
 85 350 l 1
85 100 m 1
 85 220 l 1
 655 220 l 1
 655 100 l 1
 85 100 l 1
EndSplineSet
Validated: 1
EndChar

StartChar: greater
Encoding: 62 62 29
Width: 740
Flags: W
VStem: 95 550<10 335 148 335 235 560 235 560>
LayerCount: 2
Fore
SplineSet
95 10 m 1
 95 148 l 1
 429 285 l 1
 95 422 l 1
 95 560 l 1
 645 335 l 1
 645 235 l 1
 95 10 l 1
EndSplineSet
Validated: 1
EndChar

StartChar: question
Encoding: 63 63 30
Width: 730
Flags: W
HStem: 0 150<210 410 210 410> 225 21G<210 410 210 210> 285 120<410 445 445 456.5 210 510 410 410> 540 120<40 510 40 445>
VStem: 210 200<0 150 0 150 225 285 0 405> 480 200<433 512 512 521.5>
LayerCount: 2
Fore
SplineSet
40 540 m 1
 40 660 l 1
 510 660 l 2
 623 660 680 615 680 524 c 2
 680 421 l 2
 680 330 623 285 510 285 c 2
 410 285 l 1
 410 225 l 1
 210 225 l 1
 210 405 l 1
 445 405 l 2
 468 405 480 414 480 433 c 2
 480 512 l 2
 480 531 468 540 445 540 c 2
 40 540 l 1
210 0 m 1
 210 150 l 1
 410 150 l 1
 410 0 l 1
 210 0 l 1
EndSplineSet
Validated: 1
EndChar

StartChar: at
Encoding: 64 64 31
Width: 1110
Flags: W
HStem: -135 100<146.5 990 245 990 245 990> 55 105<400 620 505 620 800 890> 365 105<496.5 505 505 620> 560 100<236.5 245 245 865>
VStem: 60 160<-21.5 -15 -15 540> 300 180<175 180 180 345 173.5 350 173.5 390> 620 180<160 365 365 365> 890 160<160 540 540 546.5>
LayerCount: 2
Fore
SplineSet
60 -31 m 2
 60 556 l 2
 60 625 103 660 190 660 c 2
 920 660 l 2
 1007 660 1050 625 1050 556 c 2
 1050 55 l 1
 450 55 l 2
 350 55 300 95 300 175 c 2
 300 350 l 2
 300 430 350 470 450 470 c 2
 800 470 l 1
 800 160 l 1
 890 160 l 1
 890 540 l 2
 890 553 882 560 865 560 c 2
 245 560 l 2
 228 560 220 553 220 540 c 2
 220 -15 l 2
 220 -28 228 -35 245 -35 c 2
 990 -35 l 1
 990 -135 l 1
 190 -135 l 2
 103 -135 60 -100 60 -31 c 2
480 180 m 2
 480 167 488 160 505 160 c 2
 620 160 l 1
 620 365 l 1
 505 365 l 2
 488 365 480 358 480 345 c 2
 480 180 l 2
EndSplineSet
Validated: 1
EndChar

StartChar: A
Encoding: 65 65 32
Width: 830
Flags: W
HStem: 0 21G<5 5 5 201 629 629 629 825> 140 120<313 517 313 569 261 517> 640 20G<290 540 540 540>
LayerCount: 2
Fore
SplineSet
5 0 m 1
 290 660 l 1
 540 660 l 1
 825 0 l 1
 629 0 l 1
 569 140 l 1
 261 140 l 1
 201 0 l 1
 5 0 l 1
313 260 m 1
 517 260 l 1
 415 495 l 1
 313 260 l 1
EndSplineSet
Validated: 1
EndChar

StartChar: B
Encoding: 66 66 33
Width: 800
Flags: W
HStem: 0 120<270 505 505 516.5 270 570> 285 120<270 495 495 505 270 495> 540 120<270 495 270 270>
VStem: 70 200<120 120 120 285 405 540> 530 200<438 466 466 512 512 521.5> 540 200<148 229 90.5 257 90.5 266.5>
LayerCount: 2
Fore
SplineSet
70 0 m 1xf4
 70 660 l 1
 560 660 l 2
 673 660 730 615 730 524 c 2
 730 466 l 2xf8
 730 410 708 371 665 350 c 1
 715 330 740 289 740 229 c 2
 740 136 l 2
 740 45 683 0 570 0 c 2
 70 0 l 1xf4
270 120 m 1
 505 120 l 2
 528 120 540 129 540 148 c 2
 540 257 l 2xf4
 540 276 528 285 505 285 c 2
 270 285 l 1
 270 120 l 1
270 405 m 1
 495 405 l 2
 518 405 530 414 530 433 c 2
 530 512 l 2xf8
 530 531 518 540 495 540 c 2
 270 540 l 1
 270 405 l 1
EndSplineSet
Validated: 1
EndChar

StartChar: C
Encoding: 67 67 34
Width: 760
Flags: W
HStem: 0 120<183.5 710 305 710 305 710> 540 120<293.5 305 305 710>
VStem: 70 200<138.5 148 148 512>
LayerCount: 2
Fore
SplineSet
70 136 m 2
 70 524 l 2
 70 615 127 660 240 660 c 2
 710 660 l 1
 710 540 l 1
 305 540 l 2
 282 540 270 531 270 512 c 2
 270 148 l 2
 270 129 282 120 305 120 c 2
 710 120 l 1
 710 0 l 1
 240 0 l 2
 127 0 70 45 70 136 c 2
EndSplineSet
Validated: 1
EndChar

StartChar: D
Encoding: 68 68 35
Width: 820
Flags: W
HStem: 0 120<270 380 380 420> 540 120<270 380 270 270>
VStem: 70 200<120 120 120 540> 560 200<264 272 272 388 181.5 396 181.5 444>
LayerCount: 2
Fore
SplineSet
70 0 m 1
 70 660 l 1
 420 660 l 2
 647 660 760 569 760 388 c 2
 760 272 l 2
 760 91 647 0 420 0 c 2
 70 0 l 1
270 120 m 1
 380 120 l 2
 500 120 560 168 560 264 c 2
 560 396 l 2
 560 492 500 540 380 540 c 2
 270 540 l 1
 270 120 l 1
EndSplineSet
Validated: 1
EndChar

StartChar: E
Encoding: 69 69 36
Width: 760
Flags: W
HStem: 0 120<270 710 270 710> 285 120<270 660 270 660> 540 120<270 710 270 270>
VStem: 70 200<120 285 405 540>
LayerCount: 2
Fore
SplineSet
70 0 m 1
 70 660 l 1
 710 660 l 1
 710 540 l 1
 270 540 l 1
 270 405 l 1
 660 405 l 1
 660 285 l 1
 270 285 l 1
 270 120 l 1
 710 120 l 1
 710 0 l 1
 70 0 l 1
EndSplineSet
Validated: 1
EndChar

StartChar: F
Encoding: 70 70 37
Width: 730
Flags: W
HStem: 0 21G<70 70 70 270> 275 120<270 650 270 650> 540 120<270 700 270 270>
VStem: 70 200<0 275 395 540>
LayerCount: 2
Fore
SplineSet
70 0 m 1
 70 660 l 1
 700 660 l 1
 700 540 l 1
 270 540 l 1
 270 395 l 1
 650 395 l 1
 650 275 l 1
 270 275 l 1
 270 0 l 1
 70 0 l 1
EndSplineSet
Validated: 1
EndChar

StartChar: G
Encoding: 71 71 38
Width: 820
Flags: W
HStem: 0 120<183.5 550 305 550 305 750> 290 120<420 550 420 750> 540 120<293.5 305 305 710>
VStem: 70 200<138.5 148 148 512> 550 200<120 290 290 290>
LayerCount: 2
Fore
SplineSet
70 136 m 2
 70 524 l 2
 70 615 127 660 240 660 c 2
 710 660 l 1
 710 540 l 1
 305 540 l 2
 282 540 270 531 270 512 c 2
 270 148 l 2
 270 129 282 120 305 120 c 2
 550 120 l 1
 550 290 l 1
 420 290 l 1
 420 410 l 1
 750 410 l 1
 750 0 l 1
 240 0 l 2
 127 0 70 45 70 136 c 2
EndSplineSet
Validated: 1
EndChar

StartChar: H
Encoding: 72 72 39
Width: 830
Flags: W
HStem: 0 21G<70 70 70 270 560 560 560 760> 285 120<270 560 270 560> 640 20G<70 270 270 270 560 760 760 760>
VStem: 70 200<0 285 405 660> 560 200<0 285 285 285 405 660 0 660>
LayerCount: 2
Fore
SplineSet
70 0 m 1
 70 660 l 1
 270 660 l 1
 270 405 l 1
 560 405 l 1
 560 660 l 1
 760 660 l 1
 760 0 l 1
 560 0 l 1
 560 285 l 1
 270 285 l 1
 270 0 l 1
 70 0 l 1
EndSplineSet
Validated: 1
EndChar

StartChar: I
Encoding: 73 73 40
Width: 340
Flags: W
HStem: 0 21G<70 70 70 270> 640 20G<70 270 270 270>
VStem: 70 200<0 660 0 660>
LayerCount: 2
Fore
SplineSet
70 0 m 1
 70 660 l 1
 270 660 l 1
 270 0 l 1
 70 0 l 1
EndSplineSet
Validated: 1
EndChar

StartChar: J
Encoding: 74 74 41
Width: 750
Flags: W
HStem: 0 120<173.5 445 310 445 445 456.5 310 510> 275 20G<40 240 240 240> 640 20G<480 680 680 680>
VStem: 40 200<160 176 176 295> 480 200<148 660>
LayerCount: 2
Fore
SplineSet
40 160 m 2
 40 295 l 1
 240 295 l 1
 240 176 l 2
 240 139 263 120 310 120 c 2
 445 120 l 2
 468 120 480 129 480 148 c 2
 480 660 l 1
 680 660 l 1
 680 136 l 2
 680 45 623 0 510 0 c 2
 240 0 l 2
 107 0 40 53 40 160 c 2
EndSplineSet
Validated: 1
EndChar

StartChar: K
Encoding: 75 75 42
Width: 800
Flags: W
HStem: 0 21G<70 70 70 270 566 566 566 790> 640 20G<70 270 270 270 535 780 780 780>
VStem: 70 200<0 169 405 660>
LayerCount: 2
Fore
SplineSet
70 0 m 1
 70 660 l 1
 270 660 l 1
 270 405 l 1
 535 660 l 1
 780 660 l 1
 497 387 l 1
 790 0 l 1
 566 0 l 1
 367 263 l 1
 270 169 l 1
 270 0 l 1
 70 0 l 1
EndSplineSet
Validated: 1
EndChar

StartChar: L
Encoding: 76 76 43
Width: 700
Flags: W
HStem: 0 120<270 680 270 680> 640 20G<70 270 270 270>
VStem: 70 200<120 660 120 660 120 660>
LayerCount: 2
Fore
SplineSet
70 0 m 5
 70 660 l 5
 270 660 l 5
 270 120 l 5
 680 120 l 5
 680 0 l 5
 70 0 l 5
EndSplineSet
Validated: 1
EndChar

StartChar: M
Encoding: 77 77 44
Width: 1040
Flags: W
HStem: 0 21G<70 70 70 270 425 425 425 615 770 770 770 970> 640 20G<70 315 315 315 725 970 970 970>
VStem: 70 200<0 348 0 660> 770 200<0 348 348 348>
LayerCount: 2
Fore
SplineSet
70 0 m 1
 70 660 l 1
 315 660 l 1
 520 199 l 1
 725 660 l 1
 970 660 l 1
 970 0 l 1
 770 0 l 1
 770 348 l 1
 615 0 l 1
 425 0 l 1
 270 348 l 1
 270 0 l 1
 70 0 l 1
EndSplineSet
Validated: 1
EndChar

StartChar: N
Encoding: 78 78 45
Width: 840
Flags: W
HStem: 0 21G<70 70 70 270 555 555 555 770> 640 20G<70 285 285 285 570 770 770 770>
VStem: 70 200<0 396 0 660> 570 200<264 660 0 660>
LayerCount: 2
Fore
SplineSet
70 0 m 1
 70 660 l 1
 285 660 l 1
 570 264 l 1
 570 660 l 1
 770 660 l 1
 770 0 l 1
 555 0 l 1
 270 396 l 1
 270 0 l 1
 70 0 l 1
EndSplineSet
Validated: 1
EndChar

StartChar: O
Encoding: 79 79 46
Width: 830
Flags: W
HStem: 0 120<183.5 525 305 525 525 536.5 305 590> 540 120<293.5 305 305 525>
VStem: 70 200<138.5 148 148 512> 560 200<148 512 512 521.5>
LayerCount: 2
Fore
SplineSet
70 136 m 2
 70 524 l 2
 70 615 127 660 240 660 c 2
 590 660 l 2
 703 660 760 615 760 524 c 2
 760 136 l 2
 760 45 703 0 590 0 c 2
 240 0 l 2
 127 0 70 45 70 136 c 2
270 148 m 2
 270 129 282 120 305 120 c 2
 525 120 l 2
 548 120 560 129 560 148 c 2
 560 512 l 2
 560 531 548 540 525 540 c 2
 305 540 l 2
 282 540 270 531 270 512 c 2
 270 148 l 2
EndSplineSet
Validated: 1
EndChar

StartChar: P
Encoding: 80 80 47
Width: 780
Flags: W
HStem: 0 21G<70 70 70 270> 235 120<270 495 495 506.5 270 560 270 495> 540 120<270 495 270 270>
VStem: 70 200<0 235 355 540> 530 200<383 512 512 521.5>
LayerCount: 2
Fore
SplineSet
70 0 m 1
 70 660 l 1
 560 660 l 2
 673 660 730 615 730 524 c 2
 730 371 l 2
 730 280 673 235 560 235 c 2
 270 235 l 1
 270 0 l 1
 70 0 l 1
270 355 m 1
 495 355 l 2
 518 355 530 364 530 383 c 2
 530 512 l 2
 530 531 518 540 495 540 c 2
 270 540 l 1
 270 355 l 1
EndSplineSet
Validated: 1
EndChar

StartChar: Q
Encoding: 81 81 48
Width: 830
Flags: W
HStem: -160 21G<430 633 430 430> 0 120<183.5 525 305 360 305 590 305 563> 540 120<293.5 305 305 525>
VStem: 70 200<138.5 148 148 512> 560 200<148 512 512 521.5>
LayerCount: 2
Fore
SplineSet
70 136 m 2
 70 524 l 2
 70 615 127 660 240 660 c 2
 590 660 l 2
 703 660 760 615 760 524 c 2
 760 136 l 2
 760 45 703 0 590 0 c 2
 563 0 l 1
 633 -160 l 1
 430 -160 l 1
 360 0 l 1
 240 0 l 2
 127 0 70 45 70 136 c 2
270 148 m 2
 270 129 282 120 305 120 c 2
 525 120 l 2
 548 120 560 129 560 148 c 2
 560 512 l 2
 560 531 548 540 525 540 c 2
 305 540 l 2
 282 540 270 531 270 512 c 2
 270 148 l 2
EndSplineSet
Validated: 1
EndChar

StartChar: R
Encoding: 82 82 49
Width: 790
Flags: W
HStem: 0 21G<70 70 70 270 544 544 544 760> 250 120<270 379 270 495 270 595> 540 120<270 495 270 270>
VStem: 70 200<0 250 370 540> 530 200<398 512 512 521.5>
LayerCount: 2
Fore
SplineSet
70 0 m 1
 70 660 l 1
 560 660 l 2
 673 660 730 615 730 524 c 2
 730 386 l 2
 730 304 684 261 595 250 c 1
 760 0 l 1
 544 0 l 1
 379 250 l 1
 270 250 l 1
 270 0 l 1
 70 0 l 1
270 370 m 1
 495 370 l 2
 518 370 530 379 530 398 c 2
 530 512 l 2
 530 531 518 540 495 540 c 2
 270 540 l 1
 270 370 l 1
EndSplineSet
Validated: 1
EndChar

StartChar: S
Encoding: 83 83 50
Width: 780
Flags: W
HStem: 0 120<60 485 60 485 485 496.5 60 550> 285 120<173.5 550 295 485> 540 120<283.5 295 295 670>
VStem: 60 200<423.5 433 433 512 423.5 524 423.5 569.5> 520 200<148 257 257 266.5>
LayerCount: 2
Fore
SplineSet
60 0 m 1
 60 120 l 1
 485 120 l 2
 508 120 520 129 520 148 c 2
 520 257 l 2
 520 276 508 285 485 285 c 2
 230 285 l 2
 117 285 60 330 60 421 c 2
 60 524 l 2
 60 615 117 660 230 660 c 2
 670 660 l 1
 670 540 l 1
 295 540 l 2
 272 540 260 531 260 512 c 2
 260 433 l 2
 260 414 272 405 295 405 c 2
 550 405 l 2
 663 405 720 360 720 269 c 2
 720 136 l 2
 720 45 663 0 550 0 c 2
 60 0 l 1
EndSplineSet
Validated: 1
EndChar

StartChar: T
Encoding: 84 84 51
Width: 780
Flags: W
HStem: 0 21G<290 490 290 290> 540 120<20 760 20 290 490 490 490 760>
VStem: 290 200<0 540 0 540>
LayerCount: 2
Fore
SplineSet
20 540 m 1
 20 660 l 1
 760 660 l 1
 760 540 l 1
 490 540 l 1
 490 0 l 1
 290 0 l 1
 290 540 l 1
 20 540 l 1
EndSplineSet
Validated: 1
EndChar

StartChar: U
Encoding: 85 85 52
Width: 830
Flags: W
HStem: 0 120<183.5 525 305 525 525 536.5 305 590> 640 20G<70 270 270 270 560 760 760 760>
VStem: 70 200<138.5 148 148 660> 560 200<148 660>
LayerCount: 2
Fore
SplineSet
70 136 m 2
 70 660 l 1
 270 660 l 1
 270 148 l 2
 270 129 282 120 305 120 c 2
 525 120 l 2
 548 120 560 129 560 148 c 2
 560 660 l 1
 760 660 l 1
 760 136 l 2
 760 45 703 0 590 0 c 2
 240 0 l 2
 127 0 70 45 70 136 c 2
EndSplineSet
Validated: 1
EndChar

StartChar: V
Encoding: 86 86 53
Width: 830
Flags: W
HStem: 0 21G<290 540 290 290> 640 20G<5 208 208 208 622 825 825 825>
LayerCount: 2
Fore
SplineSet
5 660 m 1
 208 660 l 1
 415 180 l 1
 622 660 l 1
 825 660 l 1
 540 0 l 1
 290 0 l 1
 5 660 l 1
EndSplineSet
Validated: 1
EndChar

StartChar: W
Encoding: 87 87 54
Width: 1200
Flags: W
HStem: 0 21G<200 455 200 200 745 1000 745 745> 640 20G<15 210 210 210 495 705 705 705 990 1185 1185 1185>
LayerCount: 2
Fore
SplineSet
15 660 m 1
 210 660 l 1
 341 195 l 1
 495 660 l 1
 705 660 l 1
 859 195 l 1
 990 660 l 1
 1185 660 l 1
 1000 0 l 1
 745 0 l 1
 600 437 l 1
 455 0 l 1
 200 0 l 1
 15 660 l 1
EndSplineSet
Validated: 1
EndChar

StartChar: X
Encoding: 88 88 55
Width: 800
Flags: W
HStem: 0 21G<10 10 10 233 567 567 567 790> 640 20G<20 243 243 243 557 780 780 780>
LayerCount: 2
Fore
SplineSet
10 0 m 1
 288 336 l 1
 20 660 l 1
 243 660 l 1
 400 471 l 1
 557 660 l 1
 780 660 l 1
 512 336 l 1
 790 0 l 1
 567 0 l 1
 400 201 l 1
 233 0 l 1
 10 0 l 1
EndSplineSet
Validated: 1
EndChar

StartChar: Y
Encoding: 89 89 56
Width: 810
Flags: W
HStem: 0 21G<305 505 305 305> 640 20G<5 221 221 221 589 805 805 805>
VStem: 305 200<0 245 0 245>
LayerCount: 2
Fore
SplineSet
5 660 m 1
 221 660 l 1
 405 405 l 1
 589 660 l 1
 805 660 l 1
 505 245 l 1
 505 0 l 1
 305 0 l 1
 305 245 l 1
 5 660 l 1
EndSplineSet
Validated: 1
EndChar

StartChar: Z
Encoding: 90 90 57
Width: 750
Flags: W
HStem: 0 120<40 40 285 710> 540 120<50 455 50 700 50 700>
LayerCount: 2
Fore
SplineSet
40 0 m 1
 40 120 l 1
 455 540 l 1
 50 540 l 1
 50 660 l 1
 700 660 l 1
 700 540 l 1
 285 120 l 1
 710 120 l 1
 710 0 l 1
 40 0 l 1
EndSplineSet
Validated: 1
EndChar

StartChar: bracketleft
Encoding: 91 91 58
Width: 460
Flags: W
HStem: -210 100<250 410 250 410> 560 100<250 410 250 250>
VStem: 80 170<-110 560 -110 660 -110 660>
LayerCount: 2
Fore
SplineSet
80 -210 m 1
 80 660 l 1
 410 660 l 1
 410 560 l 1
 250 560 l 1
 250 -110 l 1
 410 -110 l 1
 410 -210 l 1
 80 -210 l 1
EndSplineSet
Validated: 1
EndChar

StartChar: backslash
Encoding: 92 92 59
Width: 530
Flags: W
HStem: 0 21G<337 510 337 337> 640 20G<20 193 193 193>
LayerCount: 2
Fore
SplineSet
20 660 m 1
 193 660 l 1
 510 0 l 1
 337 0 l 1
 20 660 l 1
EndSplineSet
Validated: 1
EndChar

StartChar: bracketright
Encoding: 93 93 60
Width: 460
Flags: W
HStem: -210 100<50 210 50 380 50 210> 560 100<50 210 50 380>
VStem: 210 170<-110 560 560 560>
LayerCount: 2
Fore
SplineSet
50 -110 m 1
 210 -110 l 1
 210 560 l 1
 50 560 l 1
 50 660 l 1
 380 660 l 1
 380 -210 l 1
 50 -210 l 1
 50 -110 l 1
EndSplineSet
Validated: 1
EndChar

StartChar: asciicircum
Encoding: 94 94 61
Width: 620
Flags: W
HStem: 280 21G<30 30 30 189 431 431 431 590> 640 20G<230 390 390 390>
LayerCount: 2
Fore
SplineSet
30 280 m 1
 230 660 l 1
 390 660 l 1
 590 280 l 1
 431 280 l 1
 310 511 l 1
 189 280 l 1
 30 280 l 1
EndSplineSet
Validated: 1
EndChar

StartChar: underscore
Encoding: 95 95 62
Width: 640
Flags: W
HStem: -210 105<0 640 0 640>
VStem: 0 640<-210 -105 -210 -105>
LayerCount: 2
Fore
SplineSet
0 -105 m 1
 640 -105 l 1
 640 -210 l 1
 0 -210 l 1
 0 -105 l 1
EndSplineSet
Validated: 1
EndChar

StartChar: grave
Encoding: 96 96 63
Width: 500
Flags: W
HStem: 550 160<215 235 75 345 215 215>
LayerCount: 2
Fore
SplineSet
75 710 m 1
 235 710 l 1
 345 550 l 1
 215 550 l 1
 75 710 l 1
EndSplineSet
Validated: 1
EndChar

StartChar: a
Encoding: 97 97 64
Width: 650
Flags: W
HStem: 0 105<150 410 255 410 255 590> 200 105<246.5 255 255 410> 385 105<90 385 90 440>
VStem: 50 180<120 125 125 180 118.5 185 118.5 225> 410 180<105 200 200 200 305 365 365 370 0 371.5>
LayerCount: 2
Fore
SplineSet
50 120 m 2
 50 185 l 2
 50 265 100 305 200 305 c 2
 410 305 l 1
 410 365 l 2
 410 378 402 385 385 385 c 2
 90 385 l 1
 90 490 l 1
 440 490 l 2
 540 490 590 450 590 370 c 2
 590 0 l 1
 200 0 l 2
 100 0 50 40 50 120 c 2
230 125 m 2
 230 112 238 105 255 105 c 2
 410 105 l 1
 410 200 l 1
 255 200 l 2
 238 200 230 193 230 180 c 2
 230 125 l 2
EndSplineSet
Validated: 1
EndChar

StartChar: b
Encoding: 98 98 65
Width: 680
Flags: W
HStem: 0 105<240 415 415 423.5 240 470> 385 105<240 415 240 470> 640 20G<60 240 240 240>
VStem: 60 180<105 105 105 385 490 660> 440 180<125 365 365 370>
LayerCount: 2
Fore
SplineSet
60 0 m 1
 60 660 l 1
 240 660 l 1
 240 490 l 1
 470 490 l 2
 570 490 620 450 620 370 c 2
 620 120 l 2
 620 40 570 0 470 0 c 2
 60 0 l 1
240 105 m 1
 415 105 l 2
 432 105 440 112 440 125 c 2
 440 365 l 2
 440 378 432 385 415 385 c 2
 240 385 l 1
 240 105 l 1
EndSplineSet
Validated: 1
EndChar

StartChar: c
Encoding: 99 99 66
Width: 610
Flags: W
HStem: 0 105<160 570 265 570 265 570> 385 105<256.5 265 265 570>
VStem: 60 180<120 125 125 365>
LayerCount: 2
Fore
SplineSet
60 120 m 2
 60 370 l 2
 60 450 110 490 210 490 c 2
 570 490 l 1
 570 385 l 1
 265 385 l 2
 248 385 240 378 240 365 c 2
 240 125 l 2
 240 112 248 105 265 105 c 2
 570 105 l 1
 570 0 l 1
 210 0 l 2
 110 0 60 40 60 120 c 2
EndSplineSet
Validated: 1
EndChar

StartChar: d
Encoding: 100 100 67
Width: 680
Flags: W
HStem: 0 105<160 440 265 440 265 620> 385 105<256.5 265 265 440> 640 20G<440 620 620 620>
VStem: 60 180<120 125 125 365> 440 180<105 385 385 385 490 660 0 660>
LayerCount: 2
Fore
SplineSet
60 120 m 2
 60 370 l 2
 60 450 110 490 210 490 c 2
 440 490 l 1
 440 660 l 1
 620 660 l 1
 620 0 l 1
 210 0 l 2
 110 0 60 40 60 120 c 2
240 125 m 2
 240 112 248 105 265 105 c 2
 440 105 l 1
 440 385 l 1
 265 385 l 2
 248 385 240 378 240 365 c 2
 240 125 l 2
EndSplineSet
Validated: 1
EndChar

StartChar: e
Encoding: 101 101 68
Width: 660
Flags: W
HStem: 0 105<160 580 265 580 265 580> 200 105<240 420 240 600 240 420> 385 105<256.5 265 265 395>
VStem: 60 180<120 125 125 200 305 365> 420 180<305 365 365 370 200 371.5>
LayerCount: 2
Fore
SplineSet
60 120 m 2
 60 370 l 2
 60 450 110 490 210 490 c 2
 450 490 l 2
 550 490 600 450 600 370 c 2
 600 200 l 1
 240 200 l 1
 240 125 l 2
 240 112 248 105 265 105 c 2
 580 105 l 1
 580 0 l 1
 210 0 l 2
 110 0 60 40 60 120 c 2
240 305 m 1
 420 305 l 1
 420 365 l 2
 420 378 412 385 395 385 c 2
 265 385 l 2
 248 385 240 378 240 365 c 2
 240 305 l 1
EndSplineSet
Validated: 1
EndChar

StartChar: f
Encoding: 102 102 69
Width: 440
Flags: W
HStem: 0 21G<60 60 60 240> 385 105<240 410 240 410> 555 105<256.5 265 265 410>
VStem: 60 180<0 385 490 535 0 540 0 580>
LayerCount: 2
Fore
SplineSet
60 0 m 1
 60 540 l 2
 60 620 110 660 210 660 c 2
 410 660 l 1
 410 555 l 1
 265 555 l 2
 248 555 240 548 240 535 c 2
 240 490 l 1
 410 490 l 1
 410 385 l 1
 240 385 l 1
 240 0 l 1
 60 0 l 1
EndSplineSet
Validated: 1
EndChar

StartChar: g
Encoding: 103 103 70
Width: 680
Flags: W
HStem: -210 105<80 400 400 413.5 80 470 80 400> 0 105<160 440 265 440 265 440> 385 105<256.5 265 265 440>
VStem: 60 180<120 125 125 365> 440 180<-73 0 0 0 105 385 385 385>
LayerCount: 2
Fore
SplineSet
60 120 m 2
 60 370 l 2
 60 450 110 490 210 490 c 2
 620 490 l 1
 620 -90 l 2
 620 -170 570 -210 470 -210 c 2
 80 -210 l 1
 80 -105 l 1
 400 -105 l 2
 427 -105 440 -94 440 -73 c 2
 440 0 l 1
 210 0 l 2
 110 0 60 40 60 120 c 2
240 125 m 2
 240 112 248 105 265 105 c 2
 440 105 l 1
 440 385 l 1
 265 385 l 2
 248 385 240 378 240 365 c 2
 240 125 l 2
EndSplineSet
Validated: 1
EndChar

StartChar: h
Encoding: 104 104 71
Width: 680
Flags: W
HStem: 0 21G<60 60 60 240 440 440 440 620> 385 105<240 415 240 470> 640 20G<60 240 240 240>
VStem: 60 180<0 385 490 660> 440 180<0 365 365 370 0 371.5>
LayerCount: 2
Fore
SplineSet
60 0 m 1
 60 660 l 1
 240 660 l 1
 240 490 l 1
 470 490 l 2
 570 490 620 450 620 370 c 2
 620 0 l 1
 440 0 l 1
 440 365 l 2
 440 378 432 385 415 385 c 2
 240 385 l 1
 240 0 l 1
 60 0 l 1
EndSplineSet
Validated: 1
EndChar

StartChar: i
Encoding: 105 105 72
Width: 300
Flags: W
HStem: 0 21G<60 60 60 240> 470 20G<60 240 240 240> 560 100<60 240 60 240>
VStem: 60 180<0 490 0 490 560 660 0 660>
LayerCount: 2
Fore
SplineSet
60 0 m 1
 60 490 l 1
 240 490 l 1
 240 0 l 1
 60 0 l 1
60 560 m 1
 60 660 l 1
 240 660 l 1
 240 560 l 1
 60 560 l 1
EndSplineSet
Validated: 1
EndChar

StartChar: j
Encoding: 106 106 73
Width: 300
Flags: W
HStem: -210 105<-50 20 20 33.5 -50 90 -50 20> 470 20G<60 240 240 240> 560 100<60 240 60 240>
VStem: 60 180<-73 490 560 660>
LayerCount: 2
Fore
SplineSet
-50 -105 m 1
 20 -105 l 2
 47 -105 60 -94 60 -73 c 2
 60 490 l 1
 240 490 l 1
 240 -90 l 2
 240 -170 190 -210 90 -210 c 2
 -50 -210 l 1
 -50 -105 l 1
60 560 m 1
 60 660 l 1
 240 660 l 1
 240 560 l 1
 60 560 l 1
EndSplineSet
Validated: 1
EndChar

StartChar: k
Encoding: 107 107 74
Width: 660
Flags: W
HStem: 0 21G<60 60 60 240 455 455 455 650> 470 20G<425 640 640 640> 640 20G<60 240 240 240>
VStem: 60 180<0 101 310 660>
LayerCount: 2
Fore
SplineSet
60 0 m 1
 60 660 l 1
 240 660 l 1
 240 310 l 1
 425 490 l 1
 640 490 l 1
 429 285 l 1
 650 0 l 1
 455 0 l 1
 318 177 l 1
 240 101 l 1
 240 0 l 1
 60 0 l 1
EndSplineSet
Validated: 1
EndChar

StartChar: l
Encoding: 108 108 75
Width: 300
Flags: W
HStem: 0 21G<60 60 60 240> 640 20G<60 240 240 240>
VStem: 60 180<0 660 0 660>
LayerCount: 2
Fore
SplineSet
60 0 m 1
 60 660 l 1
 240 660 l 1
 240 0 l 1
 60 0 l 1
EndSplineSet
Validated: 1
EndChar

StartChar: m
Encoding: 109 109 76
Width: 960
Flags: W
HStem: 0 21G<60 60 60 240 390 390 390 570 720 720 720 900> 385 105<240 365 240 240 570 695 570 570>
VStem: 60 180<0 385 0 490 0 490> 390 180<0 365 365 371.5> 720 180<0 365 365 370 0 371.5>
LayerCount: 2
Fore
SplineSet
60 0 m 1
 60 490 l 1
 750 490 l 2
 850 490 900 450 900 370 c 2
 900 0 l 1
 720 0 l 1
 720 365 l 2
 720 378 712 385 695 385 c 2
 570 385 l 1
 570 0 l 1
 390 0 l 1
 390 365 l 2
 390 378 382 385 365 385 c 2
 240 385 l 1
 240 0 l 1
 60 0 l 1
EndSplineSet
Validated: 1
EndChar

StartChar: n
Encoding: 110 110 77
Width: 680
Flags: W
HStem: 0 21G<60 60 60 240 440 440 440 620> 385 105<240 415 240 240>
VStem: 60 180<0 385 0 490 0 490> 440 180<0 365 365 370 0 371.5>
LayerCount: 2
Fore
SplineSet
60 0 m 1
 60 490 l 1
 470 490 l 2
 570 490 620 450 620 370 c 2
 620 0 l 1
 440 0 l 1
 440 365 l 2
 440 378 432 385 415 385 c 2
 240 385 l 1
 240 0 l 1
 60 0 l 1
EndSplineSet
Validated: 1
EndChar

StartChar: o
Encoding: 111 111 78
Width: 680
Flags: W
HStem: 0 105<160 415 265 415 415 423.5 265 470> 385 105<256.5 265 265 415>
VStem: 60 180<120 125 125 365> 440 180<125 365 365 370>
LayerCount: 2
Fore
SplineSet
60 120 m 2
 60 370 l 2
 60 450 110 490 210 490 c 2
 470 490 l 2
 570 490 620 450 620 370 c 2
 620 120 l 2
 620 40 570 0 470 0 c 2
 210 0 l 2
 110 0 60 40 60 120 c 2
240 125 m 2
 240 112 248 105 265 105 c 2
 415 105 l 2
 432 105 440 112 440 125 c 2
 440 365 l 2
 440 378 432 385 415 385 c 2
 265 385 l 2
 248 385 240 378 240 365 c 2
 240 125 l 2
EndSplineSet
Validated: 1
EndChar

StartChar: p
Encoding: 112 112 79
Width: 680
Flags: W
HStem: -210 21G<60 60 60 240> 0 105<240 415 415 423.5 240 470 240 415> 385 105<240 415 240 240>
VStem: 60 180<-210 0 105 385> 440 180<125 365 365 370>
LayerCount: 2
Fore
SplineSet
60 -210 m 1
 60 490 l 1
 470 490 l 2
 570 490 620 450 620 370 c 2
 620 120 l 2
 620 40 570 0 470 0 c 2
 240 0 l 1
 240 -210 l 1
 60 -210 l 1
240 105 m 1
 415 105 l 2
 432 105 440 112 440 125 c 2
 440 365 l 2
 440 378 432 385 415 385 c 2
 240 385 l 1
 240 105 l 1
EndSplineSet
Validated: 1
EndChar

StartChar: q
Encoding: 113 113 80
Width: 680
Flags: W
HStem: -210 21G<440 620 440 440> 0 105<160 440 265 440 265 440> 385 105<256.5 265 265 440>
VStem: 60 180<120 125 125 365> 440 180<-210 0 0 0 105 385 385 385>
LayerCount: 2
Fore
SplineSet
60 120 m 2
 60 370 l 2
 60 450 110 490 210 490 c 2
 620 490 l 1
 620 -210 l 1
 440 -210 l 1
 440 0 l 1
 210 0 l 2
 110 0 60 40 60 120 c 2
240 125 m 2
 240 112 248 105 265 105 c 2
 440 105 l 1
 440 385 l 1
 265 385 l 2
 248 385 240 378 240 365 c 2
 240 125 l 2
EndSplineSet
Validated: 1
EndChar

StartChar: r
Encoding: 114 114 81
Width: 440
Flags: W
HStem: 0 21G<60 60 60 240> 385 105<256.5 265 265 410>
VStem: 60 180<0 365 0 370 0 410>
LayerCount: 2
Fore
SplineSet
60 0 m 1
 60 370 l 2
 60 450 110 490 210 490 c 2
 410 490 l 1
 410 385 l 1
 265 385 l 2
 248 385 240 378 240 365 c 2
 240 0 l 1
 60 0 l 1
EndSplineSet
Validated: 1
EndChar

StartChar: s
Encoding: 115 115 82
Width: 610
Flags: W
HStem: 0 105<50 355 50 355 355 362.5 50 410> 200 105<150 410 255 355> 385 105<247.5 255 255 520>
VStem: 50 180<320 325 325 365 317.5 370 317.5 410> 380 180<125 180 180 185 80 187.5>
LayerCount: 2
Fore
SplineSet
50 0 m 1
 50 105 l 1
 355 105 l 2
 370 105 380 110 380 125 c 2
 380 180 l 2
 380 195 370 200 355 200 c 2
 200 200 l 2
 100 200 50 240 50 320 c 2
 50 370 l 2
 50 450 100 490 200 490 c 2
 520 490 l 1
 520 385 l 1
 255 385 l 2
 240 385 230 380 230 365 c 2
 230 325 l 2
 230 310 240 305 255 305 c 2
 410 305 l 2
 510 305 560 265 560 185 c 2
 560 120 l 2
 560 40 510 0 410 0 c 2
 50 0 l 1
EndSplineSet
Validated: 1
EndChar

StartChar: t
Encoding: 116 116 83
Width: 450
Flags: W
HStem: 0 105<160 410 265 410 265 410> 385 105<240 410 240 410> 640 20G<60 240 240 240>
VStem: 60 180<120 125 125 385 490 660>
LayerCount: 2
Fore
SplineSet
60 120 m 2
 60 660 l 1
 240 660 l 1
 240 490 l 1
 410 490 l 1
 410 385 l 1
 240 385 l 1
 240 125 l 2
 240 112 248 105 265 105 c 2
 410 105 l 1
 410 0 l 1
 210 0 l 2
 110 0 60 40 60 120 c 2
EndSplineSet
Validated: 1
EndChar

StartChar: u
Encoding: 117 117 84
Width: 680
Flags: W
HStem: 0 105<160 440 265 440 265 620> 470 20G<60 240 240 240 440 620 620 620>
VStem: 60 180<120 125 125 490> 440 180<105 490 0 490>
LayerCount: 2
Fore
SplineSet
60 120 m 2
 60 490 l 1
 240 490 l 1
 240 125 l 2
 240 112 248 105 265 105 c 2
 440 105 l 1
 440 490 l 1
 620 490 l 1
 620 0 l 1
 210 0 l 2
 110 0 60 40 60 120 c 2
EndSplineSet
Validated: 1
EndChar

StartChar: v
Encoding: 118 118 85
Width: 680
Flags: W
HStem: 0 21G<234 446 234 234> 470 20G<10 188 188 188 492 670 670 670>
LayerCount: 2
Fore
SplineSet
10 490 m 1
 188 490 l 1
 340 158 l 1
 492 490 l 1
 670 490 l 1
 446 0 l 1
 234 0 l 1
 10 490 l 1
EndSplineSet
Validated: 1
EndChar

StartChar: w
Encoding: 119 119 86
Width: 930
Flags: W
HStem: 0 21G<165 370 165 165 560 765 560 560> 470 20G<10 180 180 180 382 548 548 548 750 920 920 920>
LayerCount: 2
Fore
SplineSet
10 490 m 1
 180 490 l 1
 281 170 l 1
 382 490 l 1
 548 490 l 1
 649 170 l 1
 750 490 l 1
 920 490 l 1
 765 0 l 1
 560 0 l 1
 465 301 l 1
 370 0 l 1
 165 0 l 1
 10 490 l 1
EndSplineSet
Validated: 1
EndChar

StartChar: x
Encoding: 120 120 87
Width: 650
Flags: W
HStem: 0 21G<10 10 10 211 439 439 439 640> 470 20G<15 216 216 216 434 635 635 635>
LayerCount: 2
Fore
SplineSet
10 0 m 1
 225 248 l 1
 15 490 l 1
 216 490 l 1
 325 364 l 1
 434 490 l 1
 635 490 l 1
 425 248 l 1
 640 0 l 1
 439 0 l 1
 325 132 l 1
 211 0 l 1
 10 0 l 1
EndSplineSet
Validated: 1
EndChar

StartChar: y
Encoding: 121 121 88
Width: 680
Flags: W
HStem: -210 21G<172 350 172 172> 470 20G<10 188 188 188 492 670 670 670>
LayerCount: 2
Fore
SplineSet
10 490 m 1
 188 490 l 1
 340 158 l 1
 492 490 l 1
 670 490 l 1
 350 -210 l 1
 172 -210 l 1
 251 -37 l 1
 10 490 l 1
EndSplineSet
Validated: 1
EndChar

StartChar: z
Encoding: 122 122 89
Width: 620
Flags: W
HStem: 0 105<40 40 267 580> 385 105<50 343 50 570 50 570>
LayerCount: 2
Fore
SplineSet
40 0 m 1
 40 105 l 1
 343 385 l 1
 50 385 l 1
 50 490 l 1
 570 490 l 1
 570 385 l 1
 267 105 l 1
 580 105 l 1
 580 0 l 1
 40 0 l 1
EndSplineSet
Validated: 1
EndChar

StartChar: braceleft
Encoding: 123 123 90
Width: 590
Flags: W
HStem: -210 100<310 540 405 540 405 540> 560 100<396.5 405 405 540>
VStem: 210 170<-90 73 73 73 377 540>
LayerCount: 2
Fore
SplineSet
50 170 m 1
 50 280 l 1
 210 377 l 1
 210 540 l 2
 210 620 260 660 360 660 c 2
 540 660 l 1
 540 560 l 1
 405 560 l 2
 388 560 380 553 380 540 c 2
 380 325 l 1
 214 225 l 1
 380 125 l 1
 380 -90 l 2
 380 -103 388 -110 405 -110 c 2
 540 -110 l 1
 540 -210 l 1
 360 -210 l 2
 260 -210 210 -170 210 -90 c 2
 210 73 l 1
 50 170 l 1
EndSplineSet
Validated: 1
EndChar

StartChar: bar
Encoding: 124 124 91
Width: 320
Flags: W
HStem: -210 21G<80 80 80 240> 640 20G<80 240 240 240>
VStem: 80 160<-210 660 -210 660>
LayerCount: 2
Fore
SplineSet
80 -210 m 1
 80 660 l 1
 240 660 l 1
 240 -210 l 1
 80 -210 l 1
EndSplineSet
Validated: 1
EndChar

StartChar: braceright
Encoding: 125 125 92
Width: 590
Flags: W
HStem: -210 100<50 185 185 193.5 50 230 50 185> 560 100<50 185 50 230>
VStem: 210 170<-90 73 -130 125 377 540>
LayerCount: 2
Fore
SplineSet
50 -110 m 1
 185 -110 l 2
 202 -110 210 -103 210 -90 c 2
 210 125 l 1
 376 225 l 1
 210 325 l 1
 210 540 l 2
 210 553 202 560 185 560 c 2
 50 560 l 1
 50 660 l 1
 230 660 l 2
 330 660 380 620 380 540 c 2
 380 377 l 1
 540 280 l 1
 540 170 l 1
 380 73 l 1
 380 -90 l 2
 380 -170 330 -210 230 -210 c 2
 50 -210 l 1
 50 -110 l 1
EndSplineSet
Validated: 1
EndChar

StartChar: asciitilde
Encoding: 126 126 93
Width: 740
Flags: W
HStem: 167 128<480 490 480 502.5> 275 128<250 260>
LayerCount: 2
Fore
SplineSet
85 182 m 1x40
 85 322 l 1
 170 373 l 2
 195 388 220 403 255 403 c 0x40
 290 403 315 388 340 373 c 2
 455 304 l 2
 465 298 475 295 485 295 c 0
 495 295 505 298 515 304 c 2
 655 388 l 1
 655 248 l 1
 570 197 l 2
 545 182 520 167 485 167 c 0x80
 450 167 425 182 400 197 c 2
 285 266 l 2
 275 272 265 275 255 275 c 0
 245 275 235 272 225 266 c 2
 85 182 l 1x40
EndSplineSet
Validated: 1
EndChar

StartChar: exclamdown
Encoding: 161 161 94
Width: 350
Flags: W
HStem: -180 21G<75 75 75 275> 245 20G<75 275 275 275> 340 150<75 275 75 275>
VStem: 75 200<-180 265 -180 265 340 490>
LayerCount: 2
Fore
SplineSet
75 -180 m 1
 75 265 l 1
 275 265 l 1
 275 -180 l 1
 75 -180 l 1
75 340 m 1
 75 490 l 1
 275 490 l 1
 275 340 l 1
 75 340 l 1
EndSplineSet
Validated: 1
EndChar

StartChar: cent
Encoding: 162 162 95
Width: 740
Flags: W
HStem: 0 105<205 615 310 335 465 615 465 465> 385 105<301.5 310 310 335 465 615>
VStem: 105 180<120 125 125 365> 335 130<-120 0 -120 0 490 610>
LayerCount: 2
Fore
SplineSet
105 120 m 2
 105 370 l 2
 105 450 155 490 255 490 c 2
 335 490 l 1
 335 610 l 1
 465 610 l 1
 465 490 l 1
 615 490 l 1
 615 385 l 1
 310 385 l 2
 293 385 285 378 285 365 c 2
 285 125 l 2
 285 112 293 105 310 105 c 2
 615 105 l 1
 615 0 l 1
 465 0 l 1
 465 -120 l 1
 335 -120 l 1
 335 0 l 1
 255 0 l 2
 155 0 105 40 105 120 c 2
EndSplineSet
Validated: 1
EndChar

StartChar: sterling
Encoding: 163 163 96
Width: 740
Flags: W
HStem: 0 120<30 130 30 130 330 690> 295 100<30 130 30 130 330 550> 540 120<353.5 365 365 650>
VStem: 130 200<120 295 120 295 395 512>
LayerCount: 2
Fore
SplineSet
30 0 m 1
 30 120 l 1
 130 120 l 1
 130 295 l 1
 30 295 l 1
 30 395 l 1
 130 395 l 1
 130 524 l 2
 130 615 187 660 300 660 c 2
 650 660 l 1
 650 540 l 1
 365 540 l 2
 342 540 330 531 330 512 c 2
 330 395 l 1
 550 395 l 1
 550 295 l 1
 330 295 l 1
 330 120 l 1
 690 120 l 1
 690 0 l 1
 30 0 l 1
EndSplineSet
Validated: 1
EndChar

StartChar: currency
Encoding: 164 164 97
Width: 740
Flags: W
LayerCount: 2
Fore
SplineSet
90 140 m 1
 245 295 l 1
 345 195 l 1
 190 40 l 1
 90 140 l 1
90 500 m 1
 190 600 l 1
 345 445 l 1
 245 345 l 1
 90 500 l 1
395 195 m 1
 495 295 l 1
 650 140 l 1
 550 40 l 1
 395 195 l 1
395 445 m 1
 550 600 l 1
 650 500 l 1
 495 345 l 1
 395 445 l 1
EndSplineSet
Validated: 1
EndChar

StartChar: yen
Encoding: 165 165 98
Width: 740
Flags: W
HStem: 0 21G<270 470 270 270> 80 90<110 270 110 270 470 630> 230 90<110 221 110 270 110 221 519 630> 640 20G<0 208 208 208 532 740 740 740>
VStem: 270 200<0 80 0 80 170 230 0 230>
LayerCount: 2
Fore
SplineSet
0 660 m 1
 208 660 l 1
 370 411 l 1
 532 660 l 1
 740 660 l 1
 519 320 l 1
 630 320 l 1
 630 230 l 1
 470 230 l 1
 470 170 l 1
 630 170 l 1
 630 80 l 1
 470 80 l 1
 470 0 l 1
 270 0 l 1
 270 80 l 1
 110 80 l 1
 110 170 l 1
 270 170 l 1
 270 230 l 1
 110 230 l 1
 110 320 l 1
 221 320 l 1
 0 660 l 1
EndSplineSet
Validated: 1
EndChar

StartChar: brokenbar
Encoding: 166 166 99
Width: 320
Flags: W
HStem: -210 21G<80 240 80 80> 135 20G<80 240 240 240> 295 21G<80 80 80 240> 640 20G<80 240 240 240>
VStem: 80 160<-210 155 -210 155 295 660>
LayerCount: 2
Fore
SplineSet
80 155 m 1
 240 155 l 1
 240 -210 l 1
 80 -210 l 1
 80 155 l 1
80 295 m 1
 80 660 l 1
 240 660 l 1
 240 295 l 1
 80 295 l 1
EndSplineSet
Validated: 1
EndChar

StartChar: section
Encoding: 167 167 100
Width: 740
Flags: W
HStem: -160 105<120 415 415 422.5 120 470 120 415> 65 105<170 465 275 415> 330 105<267.5 520 325 465> 555 105<317.5 325 325 620>
VStem: 70 180<185 190 190 310 182.5 315 182.5 338> 120 180<447.5 455 455 535 447.5 540 447.5 580> 440 180<-35 45 45 52.5> 490 180<190 310 310 315 162 317.5>
LayerCount: 2
Fore
SplineSet
70 185 m 2xfa
 70 315 l 2xfa
 70 361 87 394 120 414 c 1
 120 540 l 2
 120 620 170 660 270 660 c 2
 620 660 l 1
 620 555 l 1xf6
 325 555 l 2
 310 555 300 550 300 535 c 2
 300 455 l 2
 300 440 310 435 325 435 c 2
 520 435 l 2
 620 435 670 395 670 315 c 2
 670 185 l 2xf5
 670 139 653 106 620 86 c 1
 620 -40 l 2
 620 -120 570 -160 470 -160 c 2
 120 -160 l 1
 120 -55 l 1xf6
 415 -55 l 2
 430 -55 440 -50 440 -35 c 2
 440 45 l 2
 440 60 430 65 415 65 c 2
 220 65 l 2
 120 65 70 105 70 185 c 2xfa
250 190 m 2
 250 175 260 170 275 170 c 2
 465 170 l 2
 480 170 490 175 490 190 c 2
 490 310 l 2xf9
 490 325 480 330 465 330 c 2
 275 330 l 2
 260 330 250 325 250 310 c 2
 250 190 l 2
EndSplineSet
Validated: 1
EndChar

StartChar: dieresis
Encoding: 168 168 101
Width: 500
Flags: W
HStem: 570 120<65 205 65 205 295 435 65 295>
VStem: 65 140<570 690 570 690> 295 140<570 690 570 690>
LayerCount: 2
Fore
SplineSet
65 570 m 1
 65 690 l 1
 205 690 l 1
 205 570 l 1
 65 570 l 1
295 570 m 1
 295 690 l 1
 435 690 l 1
 435 570 l 1
 295 570 l 1
EndSplineSet
Validated: 1
EndChar

StartChar: copyright
Encoding: 169 169 102
Width: 960
Flags: W
HStem: 0 80<130 740 220 740 740 746.5 220 795> 140 80<350 670 440 670 440 670> 440 80<433.5 440 440 670> 580 80<213.5 220 220 740>
VStem: 60 140<90.5 96 96 564> 280 140<230.5 236 236 424> 760 140<96 564 564 569.5>
LayerCount: 2
Fore
SplineSet
60 84 m 2
 60 576 l 2
 60 632 95 660 165 660 c 2
 795 660 l 2
 865 660 900 632 900 576 c 2
 900 84 l 2
 900 28 865 0 795 0 c 2
 165 0 l 2
 95 0 60 28 60 84 c 2
200 96 m 2
 200 85 207 80 220 80 c 2
 740 80 l 2
 753 80 760 85 760 96 c 2
 760 564 l 2
 760 575 753 580 740 580 c 2
 220 580 l 2
 207 580 200 575 200 564 c 2
 200 96 l 2
280 224 m 2
 280 436 l 2
 280 492 315 520 385 520 c 2
 670 520 l 1
 670 440 l 1
 440 440 l 2
 427 440 420 435 420 424 c 2
 420 236 l 2
 420 225 427 220 440 220 c 2
 670 220 l 1
 670 140 l 1
 385 140 l 2
 315 140 280 168 280 224 c 2
EndSplineSet
Validated: 1
EndChar

StartChar: ordfeminine
Encoding: 170 170 103
Width: 450
Flags: W
HStem: 330 80<110 270 200 270 200 410> 460 80<193.5 200 200 270> 580 80<65 250 65 305>
VStem: 40 140<420.5 426 426 444 420.5 456 420.5 484> 270 140<410 460 460 460 540 564 564 569.5>
LayerCount: 2
Fore
SplineSet
40 414 m 2
 40 456 l 2
 40 512 75 540 145 540 c 2
 270 540 l 1
 270 564 l 2
 270 575 263 580 250 580 c 2
 65 580 l 1
 65 660 l 1
 305 660 l 2
 375 660 410 632 410 576 c 2
 410 330 l 1
 145 330 l 2
 75 330 40 358 40 414 c 2
180 426 m 2
 180 415 187 410 200 410 c 2
 270 410 l 1
 270 460 l 1
 200 460 l 2
 187 460 180 455 180 444 c 2
 180 426 l 2
EndSplineSet
Validated: 1
EndChar

StartChar: guillemotleft
Encoding: 171 171 104
Width: 750
Flags: W
HStem: 50 420<225 400 225 400 225 535 535 710>
LayerCount: 2
Fore
SplineSet
30 260 m 1
 225 470 l 1
 400 470 l 1
 215 260 l 1
 400 50 l 1
 225 50 l 1
 30 260 l 1
340 260 m 1
 535 470 l 1
 710 470 l 1
 525 260 l 1
 710 50 l 1
 535 50 l 1
 340 260 l 1
EndSplineSet
Validated: 1
EndChar

StartChar: logicalnot
Encoding: 172 172 105
Width: 740
Flags: W
HStem: 290 120<80 650 80 520>
VStem: 520 130<80 290 290 290>
LayerCount: 2
Fore
SplineSet
80 290 m 1
 80 410 l 1
 650 410 l 1
 650 80 l 1
 520 80 l 1
 520 290 l 1
 80 290 l 1
EndSplineSet
Validated: 1
EndChar

StartChar: uni00AD
Encoding: 173 173 106
Width: 460
Flags: W
HStem: 225 120<40 420 40 420>
VStem: 40 380<225 345 225 345>
LayerCount: 2
Fore
SplineSet
40 225 m 1
 40 345 l 1
 420 345 l 1
 420 225 l 1
 40 225 l 1
EndSplineSet
Validated: 1
EndChar

StartChar: registered
Encoding: 174 174 107
Width: 960
Flags: W
HStem: 0 80<130 740 220 740 740 746.5 220 795> 140 21G<280 280 280 420 546 546 546 695> 275 80<420 456 420 520> 440 80<420 520 420 420> 580 80<213.5 220 220 740>
VStem: 60 140<90.5 96 96 564> 280 140<140 275 355 440> 540 140<371 424 424 429.5> 760 140<96 564 564 569.5>
LayerCount: 2
Fore
SplineSet
60 84 m 2
 60 576 l 2
 60 632 95 660 165 660 c 2
 795 660 l 2
 865 660 900 632 900 576 c 2
 900 84 l 2
 900 28 865 0 795 0 c 2
 165 0 l 2
 95 0 60 28 60 84 c 2
200 96 m 2
 200 85 207 80 220 80 c 2
 740 80 l 2
 753 80 760 85 760 96 c 2
 760 564 l 2
 760 575 753 580 740 580 c 2
 220 580 l 2
 207 580 200 575 200 564 c 2
 200 96 l 2
280 140 m 1
 280 520 l 1
 575 520 l 2
 645 520 680 492 680 436 c 2
 680 359 l 2
 680 310 653 283 603 277 c 1
 695 140 l 1
 546 140 l 1
 456 275 l 1
 420 275 l 1
 420 140 l 1
 280 140 l 1
420 355 m 1
 520 355 l 2
 533 355 540 360 540 371 c 2
 540 424 l 2
 540 435 533 440 520 440 c 2
 420 440 l 1
 420 355 l 1
EndSplineSet
Validated: 1
EndChar

StartChar: macron
Encoding: 175 175 108
Width: 500
Flags: W
HStem: 580 95<75 425 75 425>
VStem: 75 350<580 675 580 675>
LayerCount: 2
Fore
SplineSet
75 580 m 1
 75 675 l 1
 425 675 l 1
 425 580 l 1
 75 580 l 1
EndSplineSet
Validated: 1
EndChar

StartChar: degree
Encoding: 176 176 109
Width: 500
Flags: W
HStem: 340 80<120 290 210 290 290 296.5 210 345> 580 80<203.5 210 210 290>
VStem: 50 140<430.5 436 436 564 430.5 576> 310 140<436 564 564 569.5>
LayerCount: 2
Fore
SplineSet
50 424 m 2
 50 576 l 2
 50 632 85 660 155 660 c 2
 345 660 l 2
 415 660 450 632 450 576 c 2
 450 424 l 2
 450 368 415 340 345 340 c 2
 155 340 l 2
 85 340 50 368 50 424 c 2
190 436 m 2
 190 425 197 420 210 420 c 2
 290 420 l 2
 303 420 310 425 310 436 c 2
 310 564 l 2
 310 575 303 580 290 580 c 2
 210 580 l 2
 197 580 190 575 190 564 c 2
 190 436 l 2
EndSplineSet
Validated: 1
EndChar

StartChar: plusminus
Encoding: 177 177 110
Width: 740
Flags: W
HStem: 0 120<85 655 85 655> 330 120<85 285 85 285 455 655>
VStem: 285 170<160 330 160 330 450 620>
LayerCount: 2
Fore
SplineSet
85 0 m 1
 85 120 l 1
 655 120 l 1
 655 0 l 1
 85 0 l 1
85 330 m 1
 85 450 l 1
 285 450 l 1
 285 620 l 1
 455 620 l 1
 455 450 l 1
 655 450 l 1
 655 330 l 1
 455 330 l 1
 455 160 l 1
 285 160 l 1
 285 330 l 1
 85 330 l 1
EndSplineSet
Validated: 1
EndChar

StartChar: uni00B2
Encoding: 178 178 111
Width: 460
Flags: W
HStem: 280 80<180 420 180 420> 435 80<193.5 200 200 260 260 266.5 145 315> 580 80<65 260 65 315>
VStem: 40 140<360 419 360 431 360 459> 280 140<531 564 564 569.5>
LayerCount: 2
Fore
SplineSet
40 280 m 1
 40 431 l 2
 40 487 75 515 145 515 c 2
 260 515 l 2
 273 515 280 520 280 531 c 2
 280 564 l 2
 280 575 273 580 260 580 c 2
 65 580 l 1
 65 660 l 1
 315 660 l 2
 385 660 420 632 420 576 c 2
 420 519 l 2
 420 463 385 435 315 435 c 2
 200 435 l 2
 187 435 180 430 180 419 c 2
 180 360 l 1
 420 360 l 1
 420 280 l 1
 40 280 l 1
EndSplineSet
Validated: 1
EndChar

StartChar: uni00B3
Encoding: 179 179 112
Width: 460
Flags: W
HStem: 280 80<50 260 50 260 260 266.5 50 315> 435 80<100 260 100 260> 580 80<50 260 50 315>
VStem: 280 140<376 399 336 419 336 424.5 534 551 551 564 564 569.5>
LayerCount: 2
Fore
SplineSet
50 280 m 1
 50 360 l 1
 260 360 l 2
 273 360 280 365 280 376 c 2
 280 419 l 2
 280 430 273 435 260 435 c 2
 100 435 l 1
 100 515 l 1
 260 515 l 2
 273 515 280 520 280 531 c 2
 280 564 l 2
 280 575 273 580 260 580 c 2
 50 580 l 1
 50 660 l 1
 315 660 l 2
 385 660 420 632 420 576 c 2
 420 551 l 2
 420 517 407 488 370 475 c 1
 407 462 420 433 420 399 c 2
 420 364 l 2
 420 308 385 280 315 280 c 2
 50 280 l 1
EndSplineSet
Validated: 1
EndChar

StartChar: acute
Encoding: 180 180 113
Width: 500
Flags: W
HStem: 550 160<155 425 265 285>
LayerCount: 2
Fore
SplineSet
155 550 m 1
 265 710 l 1
 425 710 l 1
 285 550 l 1
 155 550 l 1
EndSplineSet
Validated: 1
EndChar

StartChar: mu
Encoding: 181 181 114
Width: 680
Flags: W
HStem: -210 21G<60 60 60 240> 0 105<240 415 415 423.5 240 470 240 415> 470 20G<60 240 240 240 440 620 620 620>
VStem: 60 180<-210 0 105 490> 440 180<125 490>
LayerCount: 2
Fore
SplineSet
60 -210 m 1
 60 490 l 1
 240 490 l 1
 240 105 l 1
 415 105 l 2
 432 105 440 112 440 125 c 2
 440 490 l 1
 620 490 l 1
 620 120 l 2
 620 40 570 0 470 0 c 2
 240 0 l 1
 240 -210 l 1
 60 -210 l 1
EndSplineSet
Validated: 1
EndChar

StartChar: paragraph
Encoding: 182 182 115
Width: 670
Flags: W
HStem: -210 21G<430 430 430 590> 180 480<183.5 370 240 370>
VStem: 70 300<316 524 524 569.5> 430 160<-210 660 -210 660>
LayerCount: 2
Fore
SplineSet
70 316 m 2
 70 524 l 2
 70 615 127 660 240 660 c 2
 370 660 l 1
 370 180 l 1
 240 180 l 2
 127 180 70 225 70 316 c 2
430 -210 m 1
 430 660 l 1
 590 660 l 1
 590 -210 l 1
 430 -210 l 1
EndSplineSet
Validated: 1
EndChar

StartChar: periodcentered
Encoding: 183 183 116
Width: 340
Flags: W
HStem: 210 150<75 265 75 265>
VStem: 75 190<210 360 210 360>
LayerCount: 2
Fore
SplineSet
75 210 m 1
 75 360 l 1
 265 360 l 1
 265 210 l 1
 75 210 l 1
EndSplineSet
Validated: 1
EndChar

StartChar: cedilla
Encoding: 184 184 117
Width: 500
Flags: W
HStem: -185 75<125 215 215 228.5 125 260 125 215>
VStem: 255 130<-78 0 -118.5 0>
LayerCount: 2
Fore
SplineSet
125 -110 m 1
 215 -110 l 2
 242 -110 255 -99 255 -78 c 2
 255 0 l 1
 385 0 l 1
 385 -85 l 2
 385 -152 343 -185 260 -185 c 2
 125 -185 l 1
 125 -110 l 1
EndSplineSet
Validated: 1
EndChar

StartChar: uni00B9
Encoding: 185 185 118
Width: 460
Flags: W
HStem: 280 21G<195 335 195 195> 580 80<85 335 85 195>
VStem: 195 140<280 580 580 580>
LayerCount: 2
Fore
SplineSet
85 580 m 1
 85 660 l 1
 335 660 l 1
 335 280 l 1
 195 280 l 1
 195 580 l 1
 85 580 l 1
EndSplineSet
Validated: 1
EndChar

StartChar: ordmasculine
Encoding: 186 186 119
Width: 460
Flags: W
HStem: 330 80<110 260 200 260 260 266.5 200 315> 580 80<193.5 200 200 260>
VStem: 40 140<420.5 426 426 564 420.5 576> 280 140<426 564 564 569.5>
LayerCount: 2
Fore
SplineSet
40 414 m 2
 40 576 l 2
 40 632 75 660 145 660 c 2
 315 660 l 2
 385 660 420 632 420 576 c 2
 420 414 l 2
 420 358 385 330 315 330 c 2
 145 330 l 2
 75 330 40 358 40 414 c 2
180 426 m 2
 180 415 187 410 200 410 c 2
 260 410 l 2
 273 410 280 415 280 426 c 2
 280 564 l 2
 280 575 273 580 260 580 c 2
 200 580 l 2
 187 580 180 575 180 564 c 2
 180 426 l 2
EndSplineSet
Validated: 1
EndChar

StartChar: guillemotright
Encoding: 187 187 120
Width: 750
Flags: W
HStem: 50 420<40 215 40 215 350 525 40 350>
LayerCount: 2
Fore
SplineSet
40 50 m 1
 225 260 l 1
 40 470 l 1
 215 470 l 1
 410 260 l 1
 215 50 l 1
 40 50 l 1
350 50 m 1
 535 260 l 1
 350 470 l 1
 525 470 l 1
 720 260 l 1
 525 50 l 1
 350 50 l 1
EndSplineSet
Validated: 1
EndChar

StartChar: onequarter
Encoding: 188 188 121
Width: 980
Flags: W
HStem: 0 21<225 225 225 383 800 800 800 940> 65 80<560 560 708 800> 280 21<150 290 150 150> 360 20<765 940 940 940> 580 80<40 290 40 150>
VStem: 150 140<280 580 580 580> 800 140<0 65 65 65 145 250 250 250>
LayerCount: 2
Fore
SplineSet
40 580 m 1
 40 660 l 1
 290 660 l 1
 290 280 l 1
 150 280 l 1
 150 580 l 1
 40 580 l 1
225 0 m 1
 587 660 l 1
 745 660 l 1
 383 0 l 1
 225 0 l 1
560 65 m 1
 560 145 l 1
 765 380 l 1
 940 380 l 1
 940 0 l 1
 800 0 l 1
 800 65 l 1
 560 65 l 1
708 145 m 1
 800 145 l 1
 800 250 l 1
 708 145 l 1
EndSplineSet
Validated: 1
EndChar

StartChar: onehalf
Encoding: 189 189 122
Width: 1040
Flags: W
HStem: 0 80<760 1000 760 1000> 155 80<773.5 780 780 840 840 846.5 725 895> 280 21<150 290 150 150> 300 80<645 840 645 895> 580 80<40 290 40 150>
VStem: 150 140<280 580 580 580> 620 140<80 139 80 151 80 179> 860 140<251 284 284 289.5>
LayerCount: 2
Fore
SplineSet
40 580 m 1xef
 40 660 l 1
 290 660 l 1
 290 280 l 1
 150 280 l 1
 150 580 l 1
 40 580 l 1xef
225 0 m 1
 587 660 l 1
 745 660 l 1
 383 0 l 1
 225 0 l 1
620 0 m 1
 620 151 l 2
 620 207 655 235 725 235 c 2
 840 235 l 2
 853 235 860 240 860 251 c 2
 860 284 l 2
 860 295 853 300 840 300 c 2
 645 300 l 1
 645 380 l 1
 895 380 l 2xdf
 965 380 1000 352 1000 296 c 2
 1000 239 l 2
 1000 183 965 155 895 155 c 2
 780 155 l 2
 767 155 760 150 760 139 c 2
 760 80 l 1
 1000 80 l 1
 1000 0 l 1
 620 0 l 1
EndSplineSet
Validated: 1
EndChar

StartChar: threequarters
Encoding: 190 190 123
Width: 1050
Flags: W
HStem: 0 21<295 295 295 453 870 870 870 1010> 65 80<630 630 778 870> 280 80<50 260 50 260 260 266.5 50 315> 360 20 435 80<100 260 100 260> 580 80<50 260 50 315>
VStem: 280 140<376 399 336 419 336 424.5 534 551 551 564 564 569.5> 870 140<0 65 65 65 145 250 250 250>
LayerCount: 2
Fore
SplineSet
50 280 m 1xef
 50 360 l 1
 260 360 l 2
 273 360 280 365 280 376 c 2
 280 419 l 2
 280 430 273 435 260 435 c 2
 100 435 l 1
 100 515 l 1
 260 515 l 2
 273 515 280 520 280 531 c 2
 280 564 l 2
 280 575 273 580 260 580 c 2
 50 580 l 1
 50 660 l 1
 315 660 l 2
 385 660 420 632 420 576 c 2
 420 551 l 2
 420 517 407 488 370 475 c 1
 407 462 420 433 420 399 c 2
 420 364 l 2
 420 308 385 280 315 280 c 2
 50 280 l 1xef
295 0 m 1
 657 660 l 1
 815 660 l 1
 453 0 l 1
 295 0 l 1
630 65 m 1
 630 145 l 1
 835 380 l 1
 1010 380 l 1xdf
 1010 0 l 1
 870 0 l 1
 870 65 l 1
 630 65 l 1
778 145 m 1
 870 145 l 1
 870 250 l 1
 778 145 l 1
EndSplineSet
Validated: 1
EndChar

StartChar: questiondown
Encoding: 191 191 124
Width: 700
Flags: W
HStem: -180 120<163.5 690 285 690 285 690> 75 120<273.5 285 285 320 220 520> 245 20G<320 520 520 520> 340 150<320 520 320 520>
VStem: 50 200<-41.5 -32 -32 47 -41.5 59 -41.5 104.5> 320 200<195 265 75 265 340 490>
LayerCount: 2
Fore
SplineSet
50 -44 m 2
 50 59 l 2
 50 150 107 195 220 195 c 2
 320 195 l 1
 320 265 l 1
 520 265 l 1
 520 75 l 1
 285 75 l 2
 262 75 250 66 250 47 c 2
 250 -32 l 2
 250 -51 262 -60 285 -60 c 2
 690 -60 l 1
 690 -180 l 1
 220 -180 l 2
 107 -180 50 -135 50 -44 c 2
320 340 m 1
 320 490 l 1
 520 490 l 1
 520 340 l 1
 320 340 l 1
EndSplineSet
Validated: 1
EndChar

StartChar: Agrave
Encoding: 192 192 125
Width: 830
Flags: W
HStem: 0 21<5 5 5 201 629 629 629 825> 140 120<313 517 313 569 261 517> 640 20<290 540 540 540> 720 160<380 400 240 510 380 380>
LayerCount: 2
Fore
SplineSet
5 0 m 1
 290 660 l 1
 540 660 l 1
 825 0 l 1
 629 0 l 1
 569 140 l 1
 261 140 l 1
 201 0 l 1
 5 0 l 1
240 880 m 1
 400 880 l 1
 510 720 l 1
 380 720 l 1
 240 880 l 1
313 260 m 1
 517 260 l 1
 415 495 l 1
 313 260 l 1
EndSplineSet
Validated: 1
EndChar

StartChar: Aacute
Encoding: 193 193 126
Width: 830
Flags: W
HStem: 0 21<5 5 5 201 629 629 629 825> 140 120<313 517 313 569 261 517> 640 20<290 540 540 540> 720 160<320 590 430 450>
LayerCount: 2
Fore
SplineSet
5 0 m 1
 290 660 l 1
 540 660 l 1
 825 0 l 1
 629 0 l 1
 569 140 l 1
 261 140 l 1
 201 0 l 1
 5 0 l 1
313 260 m 1
 517 260 l 1
 415 495 l 1
 313 260 l 1
320 720 m 1
 430 880 l 1
 590 880 l 1
 450 720 l 1
 320 720 l 1
EndSplineSet
Validated: 1
EndChar

StartChar: Acircumflex
Encoding: 194 194 127
Width: 830
Flags: W
HStem: 0 21<5 5 5 201 629 629 629 825> 140 120<313 517 313 569 261 517> 640 20<290 540 540 540> 720 160<225 480 350 352 478 478 478 480 350 605>
LayerCount: 2
Fore
SplineSet
5 0 m 1
 290 660 l 1
 540 660 l 1
 825 0 l 1
 629 0 l 1
 569 140 l 1
 261 140 l 1
 201 0 l 1
 5 0 l 1
225 720 m 1
 350 880 l 1
 480 880 l 1
 605 720 l 1
 478 720 l 1
 415 795 l 1
 352 720 l 1
 225 720 l 1
313 260 m 1
 517 260 l 1
 415 495 l 1
 313 260 l 1
EndSplineSet
Validated: 1
EndChar

StartChar: Atilde
Encoding: 195 195 128
Width: 830
Flags: W
HStem: 0 21<5 5 5 201 629 629 629 825> 140 120<313 517 313 569 261 517> 640 20<290 540 540 540> 720 98<466 474 466 482.5> 782 98<356 364>
LayerCount: 2
Fore
SplineSet
5 0 m 1xe0
 290 660 l 1
 540 660 l 1
 825 0 l 1
 629 0 l 1
 569 140 l 1
 261 140 l 1
 201 0 l 1
 5 0 l 1xe0
225 785 m 1
 290 850 l 2
 310 870 335 880 360 880 c 0xe8
 385 880 410 870 430 850 c 2
 450 830 l 2
 458 822 462 818 470 818 c 0xf0
 478 818 482 822 490 830 c 2
 540 880 l 1xe8
 605 815 l 1
 540 750 l 2
 520 730 495 720 470 720 c 0xf0
 445 720 420 730 400 750 c 2
 380 770 l 2
 372 778 368 782 360 782 c 0xe8
 352 782 348 778 340 770 c 2
 290 720 l 1xf0
 225 785 l 1
313 260 m 1
 517 260 l 1
 415 495 l 1
 313 260 l 1
EndSplineSet
Validated: 1
EndChar

StartChar: Adieresis
Encoding: 196 196 129
Width: 830
Flags: W
HStem: 0 21<5 5 5 201 629 629 629 825> 140 120<313 517 313 569 261 517> 640 20<290 540 540 540> 740 120<230 370 230 370 460 600 230 460>
VStem: 230 140<740 860 740 860> 460 140<740 860 740 860>
LayerCount: 2
Fore
SplineSet
5 0 m 1
 290 660 l 1
 540 660 l 1
 825 0 l 1
 629 0 l 1
 569 140 l 1
 261 140 l 1
 201 0 l 1
 5 0 l 1
230 740 m 1
 230 860 l 1
 370 860 l 1
 370 740 l 1
 230 740 l 1
313 260 m 1
 517 260 l 1
 415 495 l 1
 313 260 l 1
460 740 m 1
 460 860 l 1
 600 860 l 1
 600 740 l 1
 460 740 l 1
EndSplineSet
Validated: 1
EndChar

StartChar: Aring
Encoding: 197 197 130
Width: 830
Flags: W
HStem: 0 21<5 5 5 201 629 629 629 825> 140 120<313 517 313 569 261 517> 640 20<290 540 540 540> 685 60<325 450 380 450 450 455 380 475> 830 60<375 380 380 450>
VStem: 265 100<757 818 753 842> 465 100<757 818 733 822>
LayerCount: 2
Fore
SplineSet
5 0 m 1
 290 660 l 1
 540 660 l 1
 825 0 l 1
 629 0 l 1
 569 140 l 1
 261 140 l 1
 201 0 l 1
 5 0 l 1
265 757 m 2
 265 818 l 2
 265 866 295 890 355 890 c 2
 475 890 l 2
 535 890 565 866 565 818 c 2
 565 757 l 2
 565 709 535 685 475 685 c 2
 355 685 l 2
 295 685 265 709 265 757 c 2
313 260 m 1
 517 260 l 1
 415 495 l 1
 313 260 l 1
365 757 m 2
 365 749 370 745 380 745 c 2
 450 745 l 2
 460 745 465 749 465 757 c 2
 465 818 l 2
 465 826 460 830 450 830 c 2
 380 830 l 2
 370 830 365 826 365 818 c 2
 365 757 l 2
EndSplineSet
Validated: 1
EndChar

StartChar: AE
Encoding: 198 198 131
Width: 1150
Flags: W
HStem: 0 120<700 1100 700 1100> 140 120<313 500 313 500 261 500> 285 120<700 1050 700 1050> 540 120<434 500 434 434 700 1100 700 700>
VStem: 500 200<120 140 140 140 260 285 405 540>
LayerCount: 2
Fore
SplineSet
5 0 m 1
 290 660 l 1
 1100 660 l 1
 1100 540 l 1
 700 540 l 1
 700 405 l 1
 1050 405 l 1
 1050 285 l 1
 700 285 l 1
 700 120 l 1
 1100 120 l 1
 1100 0 l 1
 500 0 l 1
 500 140 l 1
 261 140 l 1
 201 0 l 1
 5 0 l 1
313 260 m 1
 500 260 l 1
 500 540 l 1
 434 540 l 1
 313 260 l 1
EndSplineSet
Validated: 1
EndChar

StartChar: Ccedilla
Encoding: 199 199 132
Width: 760
Flags: W
HStem: -185 75<300 390 390 403.5 300 435 300 390> 0 120<183.5 710 305 430 560 710 560 560> 540 120<293.5 305 305 710>
VStem: 70 200<138.5 148 148 512> 430 130<-78 0 -118.5 0>
LayerCount: 2
Fore
SplineSet
70 136 m 2
 70 524 l 2
 70 615 127 660 240 660 c 2
 710 660 l 1
 710 540 l 1
 305 540 l 2
 282 540 270 531 270 512 c 2
 270 148 l 2
 270 129 282 120 305 120 c 2
 710 120 l 1
 710 0 l 1
 560 0 l 1
 560 -85 l 2
 560 -152 518 -185 435 -185 c 2
 300 -185 l 1
 300 -110 l 1
 390 -110 l 2
 417 -110 430 -99 430 -78 c 2
 430 0 l 1
 240 0 l 2
 127 0 70 45 70 136 c 2
EndSplineSet
Validated: 1
EndChar

StartChar: Egrave
Encoding: 200 200 133
Width: 760
Flags: W
HStem: 0 120<270 710 270 710> 285 120<270 660 270 660> 540 120<270 710 270 270> 720 160<355 375 215 485 355 355>
VStem: 70 200<120 285 405 540>
LayerCount: 2
Fore
SplineSet
70 0 m 1
 70 660 l 1
 710 660 l 1
 710 540 l 1
 270 540 l 1
 270 405 l 1
 660 405 l 1
 660 285 l 1
 270 285 l 1
 270 120 l 1
 710 120 l 1
 710 0 l 1
 70 0 l 1
215 880 m 1
 375 880 l 1
 485 720 l 1
 355 720 l 1
 215 880 l 1
EndSplineSet
Validated: 1
EndChar

StartChar: Eacute
Encoding: 201 201 134
Width: 760
Flags: W
HStem: 0 120<270 710 270 710> 285 120<270 660 270 660> 540 120<270 710 270 270> 720 160<295 565 405 425>
VStem: 70 200<120 285 405 540>
LayerCount: 2
Fore
SplineSet
70 0 m 1
 70 660 l 1
 710 660 l 1
 710 540 l 1
 270 540 l 1
 270 405 l 1
 660 405 l 1
 660 285 l 1
 270 285 l 1
 270 120 l 1
 710 120 l 1
 710 0 l 1
 70 0 l 1
295 720 m 1
 405 880 l 1
 565 880 l 1
 425 720 l 1
 295 720 l 1
EndSplineSet
Validated: 1
EndChar

StartChar: Ecircumflex
Encoding: 202 202 135
Width: 760
Flags: W
HStem: 0 120<270 710 270 710> 285 120<270 660 270 660> 540 120<270 710 270 270> 720 160<200 455 325 327 453 453 453 455 325 580>
VStem: 70 200<120 285 405 540>
LayerCount: 2
Fore
SplineSet
70 0 m 1
 70 660 l 1
 710 660 l 1
 710 540 l 1
 270 540 l 1
 270 405 l 1
 660 405 l 1
 660 285 l 1
 270 285 l 1
 270 120 l 1
 710 120 l 1
 710 0 l 1
 70 0 l 1
200 720 m 1
 325 880 l 1
 455 880 l 1
 580 720 l 1
 453 720 l 1
 390 795 l 1
 327 720 l 1
 200 720 l 1
EndSplineSet
Validated: 1
EndChar

StartChar: Edieresis
Encoding: 203 203 136
Width: 760
Flags: W
HStem: 0 120<270 710 270 710> 285 120<270 660 270 660> 540 120<270 710 270 270> 740 120<205 345 205 345 435 575 205 435>
VStem: 70 200<120 285 405 540> 205 140<740 860 740 860> 435 140<740 860 740 860>
LayerCount: 2
Fore
SplineSet
70 0 m 1xfa
 70 660 l 1
 710 660 l 1
 710 540 l 1
 270 540 l 1
 270 405 l 1
 660 405 l 1
 660 285 l 1
 270 285 l 1
 270 120 l 1
 710 120 l 1
 710 0 l 1
 70 0 l 1xfa
205 740 m 1xf6
 205 860 l 1
 345 860 l 1
 345 740 l 1
 205 740 l 1xf6
435 740 m 1
 435 860 l 1
 575 860 l 1
 575 740 l 1
 435 740 l 1
EndSplineSet
Validated: 1
EndChar

StartChar: Igrave
Encoding: 204 204 137
Width: 340
Flags: W
HStem: 0 21<70 70 70 270> 640 20<70 270 270 270> 720 160<150 170 10 280 150 150>
VStem: 70 200<0 660 0 660>
LayerCount: 2
Fore
SplineSet
10 880 m 1
 170 880 l 1
 280 720 l 1
 150 720 l 1
 10 880 l 1
70 0 m 1
 70 660 l 1
 270 660 l 1
 270 0 l 1
 70 0 l 1
EndSplineSet
Validated: 1
EndChar

StartChar: Iacute
Encoding: 205 205 138
Width: 340
Flags: W
HStem: 0 21<70 70 70 270> 640 20<70 270 270 270> 720 160<60 330 170 190>
VStem: 70 200<0 660 0 660>
LayerCount: 2
Fore
SplineSet
60 720 m 1
 170 880 l 1
 330 880 l 1
 190 720 l 1
 60 720 l 1
70 0 m 1
 70 660 l 1
 270 660 l 1
 270 0 l 1
 70 0 l 1
EndSplineSet
Validated: 1
EndChar

StartChar: Icircumflex
Encoding: 206 206 139
Width: 340
Flags: W
HStem: 0 21<70 70 70 270> 640 20<70 270 270 270> 720 160<-20 235 105 107 233 233 233 235 105 360>
VStem: 70 200<0 660 0 660>
LayerCount: 2
Fore
SplineSet
-20 720 m 1
 105 880 l 1
 235 880 l 1
 360 720 l 1
 233 720 l 1
 170 795 l 1
 107 720 l 1
 -20 720 l 1
70 0 m 1
 70 660 l 1
 270 660 l 1
 270 0 l 1
 70 0 l 1
EndSplineSet
Validated: 1
EndChar

StartChar: Idieresis
Encoding: 207 207 140
Width: 340
Flags: W
HStem: 0 21<70 70 70 270> 640 20<70 270 270 270> 740 120<-15 125 -15 125 215 355 -15 215>
VStem: -15 140<740 860 740 860> 70 200<0 660 0 660> 215 140<740 860 740 860>
LayerCount: 2
Fore
SplineSet
-15 740 m 1xf0
 -15 860 l 1
 125 860 l 1
 125 740 l 1
 -15 740 l 1xf0
70 0 m 1xe8
 70 660 l 1
 270 660 l 1
 270 0 l 1
 70 0 l 1xe8
215 740 m 1xe4
 215 860 l 1
 355 860 l 1
 355 740 l 1
 215 740 l 1xe4
EndSplineSet
Validated: 1
EndChar

StartChar: Eth
Encoding: 208 208 141
Width: 840
Flags: W
HStem: 0 120<290 400 400 440> 295 100<10 90 10 90 290 440> 540 120<290 400 290 290>
VStem: 90 200<120 120 120 295 120 295 395 540> 580 200<264 272 272 388 181.5 396 181.5 444>
LayerCount: 2
Fore
SplineSet
10 295 m 1
 10 395 l 1
 90 395 l 1
 90 660 l 1
 440 660 l 2
 667 660 780 569 780 388 c 2
 780 272 l 2
 780 91 667 0 440 0 c 2
 90 0 l 1
 90 295 l 1
 10 295 l 1
290 120 m 1
 400 120 l 2
 520 120 580 168 580 264 c 2
 580 396 l 2
 580 492 520 540 400 540 c 2
 290 540 l 1
 290 395 l 1
 440 395 l 1
 440 295 l 1
 290 295 l 1
 290 120 l 1
EndSplineSet
Validated: 1
EndChar

StartChar: Ntilde
Encoding: 209 209 142
Width: 840
Flags: W
HStem: 0 21<70 70 70 270 555 555 555 770> 640 20<70 285 285 285 570 770 770 770> 720 98<471 479 471 487.5> 782 98<361 369>
VStem: 70 200<0 396 0 660> 570 200<264 660 0 660>
LayerCount: 2
Fore
SplineSet
70 0 m 1xcc
 70 660 l 1
 285 660 l 1
 570 264 l 1
 570 660 l 1
 770 660 l 1
 770 0 l 1
 555 0 l 1
 270 396 l 1
 270 0 l 1
 70 0 l 1xcc
230 785 m 1
 295 850 l 2
 315 870 340 880 365 880 c 0xdc
 390 880 415 870 435 850 c 2
 455 830 l 2
 463 822 467 818 475 818 c 0xec
 483 818 487 822 495 830 c 2
 545 880 l 1xdc
 610 815 l 1
 545 750 l 2
 525 730 500 720 475 720 c 0xec
 450 720 425 730 405 750 c 2
 385 770 l 2
 377 778 373 782 365 782 c 0xdc
 357 782 353 778 345 770 c 2
 295 720 l 1xec
 230 785 l 1
EndSplineSet
Validated: 1
EndChar

StartChar: Ograve
Encoding: 210 210 143
Width: 830
Flags: W
HStem: 0 120<183.5 525 305 525 525 536.5 305 590> 540 120<293.5 305 305 525> 720 160<380 400 240 510 380 380>
VStem: 70 200<138.5 148 148 512> 560 200<148 512 512 521.5>
LayerCount: 2
Fore
SplineSet
70 136 m 2
 70 524 l 2
 70 615 127 660 240 660 c 2
 590 660 l 2
 703 660 760 615 760 524 c 2
 760 136 l 2
 760 45 703 0 590 0 c 2
 240 0 l 2
 127 0 70 45 70 136 c 2
240 880 m 1
 400 880 l 1
 510 720 l 1
 380 720 l 1
 240 880 l 1
270 148 m 2
 270 129 282 120 305 120 c 2
 525 120 l 2
 548 120 560 129 560 148 c 2
 560 512 l 2
 560 531 548 540 525 540 c 2
 305 540 l 2
 282 540 270 531 270 512 c 2
 270 148 l 2
EndSplineSet
Validated: 1
EndChar

StartChar: Oacute
Encoding: 211 211 144
Width: 830
Flags: W
HStem: 0 120<183.5 525 305 525 525 536.5 305 590> 540 120<293.5 305 305 525> 720 160<320 590 430 450>
VStem: 70 200<138.5 148 148 512> 560 200<148 512 512 521.5>
LayerCount: 2
Fore
SplineSet
70 136 m 2
 70 524 l 2
 70 615 127 660 240 660 c 2
 590 660 l 2
 703 660 760 615 760 524 c 2
 760 136 l 2
 760 45 703 0 590 0 c 2
 240 0 l 2
 127 0 70 45 70 136 c 2
270 148 m 2
 270 129 282 120 305 120 c 2
 525 120 l 2
 548 120 560 129 560 148 c 2
 560 512 l 2
 560 531 548 540 525 540 c 2
 305 540 l 2
 282 540 270 531 270 512 c 2
 270 148 l 2
320 720 m 1
 430 880 l 1
 590 880 l 1
 450 720 l 1
 320 720 l 1
EndSplineSet
Validated: 1
EndChar

StartChar: Ocircumflex
Encoding: 212 212 145
Width: 830
Flags: W
HStem: 0 120<183.5 525 305 525 525 536.5 305 590> 540 120<293.5 305 305 525> 720 160<225 480 350 352 478 478 478 480 350 605>
VStem: 70 200<138.5 148 148 512> 560 200<148 512 512 521.5>
LayerCount: 2
Fore
SplineSet
70 136 m 2
 70 524 l 2
 70 615 127 660 240 660 c 2
 590 660 l 2
 703 660 760 615 760 524 c 2
 760 136 l 2
 760 45 703 0 590 0 c 2
 240 0 l 2
 127 0 70 45 70 136 c 2
225 720 m 1
 350 880 l 1
 480 880 l 1
 605 720 l 1
 478 720 l 1
 415 795 l 1
 352 720 l 1
 225 720 l 1
270 148 m 2
 270 129 282 120 305 120 c 2
 525 120 l 2
 548 120 560 129 560 148 c 2
 560 512 l 2
 560 531 548 540 525 540 c 2
 305 540 l 2
 282 540 270 531 270 512 c 2
 270 148 l 2
EndSplineSet
Validated: 1
EndChar

StartChar: Otilde
Encoding: 213 213 146
Width: 830
Flags: W
HStem: 0 120<183.5 525 305 525 525 536.5 305 590> 540 120<293.5 305 305 525> 720 98<466 474 466 482.5> 782 98<356 364>
VStem: 70 200<138.5 148 148 512> 560 200<148 512 512 521.5>
LayerCount: 2
Fore
SplineSet
70 136 m 2xcc
 70 524 l 2
 70 615 127 660 240 660 c 2
 590 660 l 2
 703 660 760 615 760 524 c 2
 760 136 l 2
 760 45 703 0 590 0 c 2
 240 0 l 2
 127 0 70 45 70 136 c 2xcc
225 785 m 1
 290 850 l 2
 310 870 335 880 360 880 c 0xdc
 385 880 410 870 430 850 c 2
 450 830 l 2
 458 822 462 818 470 818 c 0xec
 478 818 482 822 490 830 c 2
 540 880 l 1xdc
 605 815 l 1
 540 750 l 2
 520 730 495 720 470 720 c 0xec
 445 720 420 730 400 750 c 2
 380 770 l 2
 372 778 368 782 360 782 c 0xdc
 352 782 348 778 340 770 c 2
 290 720 l 1xec
 225 785 l 1
270 148 m 2
 270 129 282 120 305 120 c 2
 525 120 l 2
 548 120 560 129 560 148 c 2
 560 512 l 2
 560 531 548 540 525 540 c 2
 305 540 l 2
 282 540 270 531 270 512 c 2
 270 148 l 2
EndSplineSet
Validated: 1
EndChar

StartChar: Odieresis
Encoding: 214 214 147
Width: 830
Flags: W
HStem: 0 120<183.5 525 305 525 525 536.5 305 590> 540 120<293.5 305 305 525> 740 120<230 370 230 370 460 600 230 460>
VStem: 70 200<138.5 148 148 512> 230 140<740 860 740 860> 460 140<740 860 740 860> 560 200<148 512 512 521.5>
LayerCount: 2
Fore
SplineSet
70 136 m 2xf2
 70 524 l 2
 70 615 127 660 240 660 c 2
 590 660 l 2
 703 660 760 615 760 524 c 2
 760 136 l 2
 760 45 703 0 590 0 c 2
 240 0 l 2
 127 0 70 45 70 136 c 2xf2
230 740 m 1xe8
 230 860 l 1
 370 860 l 1
 370 740 l 1
 230 740 l 1xe8
270 148 m 2xf2
 270 129 282 120 305 120 c 2
 525 120 l 2
 548 120 560 129 560 148 c 2
 560 512 l 2
 560 531 548 540 525 540 c 2
 305 540 l 2
 282 540 270 531 270 512 c 2
 270 148 l 2xf2
460 740 m 1xe4
 460 860 l 1
 600 860 l 1
 600 740 l 1
 460 740 l 1xe4
EndSplineSet
Validated: 1
EndChar

StartChar: multiply
Encoding: 215 215 148
Width: 740
Flags: W
LayerCount: 2
Fore
SplineSet
110 120 m 1
 275 285 l 1
 110 450 l 1
 205 545 l 1
 370 380 l 1
 535 545 l 1
 630 450 l 1
 465 285 l 1
 630 120 l 1
 535 25 l 1
 370 190 l 1
 205 25 l 1
 110 120 l 1
EndSplineSet
Validated: 1
EndChar

StartChar: Oslash
Encoding: 216 216 149
Width: 830
Flags: W
HStem: 0 120<183.5 525 309 525 525 536.5 309 590> 540 120<293.5 305 305 521>
VStem: 70 200<257 257 257 512> 560 200<148 403 403 403>
LayerCount: 2
Fore
SplineSet
70 136 m 2
 70 524 l 2
 70 615 127 660 240 660 c 2
 590 660 l 2
 703 660 760 615 760 524 c 2
 760 136 l 2
 760 45 703 0 590 0 c 2
 240 0 l 2
 127 0 70 45 70 136 c 2
270 257 m 1
 521 540 l 1
 305 540 l 2
 282 540 270 531 270 512 c 2
 270 257 l 1
309 120 m 1
 525 120 l 2
 548 120 560 129 560 148 c 2
 560 403 l 1
 309 120 l 1
EndSplineSet
Validated: 1
EndChar

StartChar: Ugrave
Encoding: 217 217 150
Width: 830
Flags: W
HStem: 0 120<183.5 525 305 525 525 536.5 305 590> 640 20<70 270 270 270 560 760 760 760> 720 160<380 400 240 510 380 380>
VStem: 70 200<138.5 148 148 660> 560 200<148 660>
LayerCount: 2
Fore
SplineSet
70 136 m 2
 70 660 l 1
 270 660 l 1
 270 148 l 2
 270 129 282 120 305 120 c 2
 525 120 l 2
 548 120 560 129 560 148 c 2
 560 660 l 1
 760 660 l 1
 760 136 l 2
 760 45 703 0 590 0 c 2
 240 0 l 2
 127 0 70 45 70 136 c 2
240 880 m 1
 400 880 l 1
 510 720 l 1
 380 720 l 1
 240 880 l 1
EndSplineSet
Validated: 1
EndChar

StartChar: Uacute
Encoding: 218 218 151
Width: 830
Flags: W
HStem: 0 120<183.5 525 305 525 525 536.5 305 590> 640 20<70 270 270 270 560 760 760 760> 720 160<320 590 430 450>
VStem: 70 200<138.5 148 148 660> 560 200<148 660>
LayerCount: 2
Fore
SplineSet
70 136 m 2
 70 660 l 1
 270 660 l 1
 270 148 l 2
 270 129 282 120 305 120 c 2
 525 120 l 2
 548 120 560 129 560 148 c 2
 560 660 l 1
 760 660 l 1
 760 136 l 2
 760 45 703 0 590 0 c 2
 240 0 l 2
 127 0 70 45 70 136 c 2
320 720 m 1
 430 880 l 1
 590 880 l 1
 450 720 l 1
 320 720 l 1
EndSplineSet
Validated: 1
EndChar

StartChar: Ucircumflex
Encoding: 219 219 152
Width: 830
Flags: W
HStem: 0 120<183.5 525 305 525 525 536.5 305 590> 640 20<70 270 270 270 560 760 760 760> 720 160<225 480 350 352 478 478 478 480 350 605>
VStem: 70 200<138.5 148 148 660> 560 200<148 660>
LayerCount: 2
Fore
SplineSet
70 136 m 2
 70 660 l 1
 270 660 l 1
 270 148 l 2
 270 129 282 120 305 120 c 2
 525 120 l 2
 548 120 560 129 560 148 c 2
 560 660 l 1
 760 660 l 1
 760 136 l 2
 760 45 703 0 590 0 c 2
 240 0 l 2
 127 0 70 45 70 136 c 2
225 720 m 1
 350 880 l 1
 480 880 l 1
 605 720 l 1
 478 720 l 1
 415 795 l 1
 352 720 l 1
 225 720 l 1
EndSplineSet
Validated: 1
EndChar

StartChar: Udieresis
Encoding: 220 220 153
Width: 830
Flags: W
HStem: 0 120<183.5 525 305 525 525 536.5 305 590> 640 20<70 270 270 270 560 760 760 760> 740 120<230 370 230 370 460 600 230 460>
VStem: 70 200<138.5 148 148 660> 230 140<740 860 740 860> 460 140<740 860 740 860> 560 200<148 660>
LayerCount: 2
Fore
SplineSet
70 136 m 2xf2
 70 660 l 1
 270 660 l 1
 270 148 l 2
 270 129 282 120 305 120 c 2
 525 120 l 2
 548 120 560 129 560 148 c 2
 560 660 l 1
 760 660 l 1
 760 136 l 2
 760 45 703 0 590 0 c 2
 240 0 l 2
 127 0 70 45 70 136 c 2xf2
230 740 m 1xe8
 230 860 l 1
 370 860 l 1
 370 740 l 1
 230 740 l 1xe8
460 740 m 1xe4
 460 860 l 1
 600 860 l 1
 600 740 l 1
 460 740 l 1xe4
EndSplineSet
Validated: 1
EndChar

StartChar: Yacute
Encoding: 221 221 154
Width: 810
Flags: W
HStem: 0 21<305 505 305 305> 640 20<5 221 221 221 589 805 805 805> 720 160<310 580 420 440>
VStem: 305 200<0 245 0 245>
LayerCount: 2
Fore
SplineSet
5 660 m 1
 221 660 l 1
 405 405 l 1
 589 660 l 1
 805 660 l 1
 505 245 l 1
 505 0 l 1
 305 0 l 1
 305 245 l 1
 5 660 l 1
310 720 m 1
 420 880 l 1
 580 880 l 1
 440 720 l 1
 310 720 l 1
EndSplineSet
Validated: 1
EndChar

StartChar: Thorn
Encoding: 222 222 155
Width: 780
Flags: W
HStem: 0 21G<70 70 70 270> 130 120<270 495 495 506.5 270 560 270 495> 435 120<270 495 270 560> 640 20G<70 270 270 270>
VStem: 70 200<0 130 250 435 555 660> 530 200<278 407 407 416.5>
LayerCount: 2
Fore
SplineSet
70 0 m 1
 70 660 l 1
 270 660 l 1
 270 555 l 1
 560 555 l 2
 673 555 730 510 730 419 c 2
 730 266 l 2
 730 175 673 130 560 130 c 2
 270 130 l 1
 270 0 l 1
 70 0 l 1
270 250 m 1
 495 250 l 2
 518 250 530 259 530 278 c 2
 530 407 l 2
 530 426 518 435 495 435 c 2
 270 435 l 1
 270 250 l 1
EndSplineSet
Validated: 1
EndChar

StartChar: germandbls
Encoding: 223 223 156
Width: 680
Flags: W
HStem: 0 105<60 415 320 415 320 415 415 423.5 320 470> 295 105<320 385 385 393.5 320 415 320 385> 555 105<256.5 265 265 385>
VStem: 60 180<0 535 0 540 0 580> 410 180<426 449 449 535 535 540 426 541.5> 440 180<125 239 80 275 80 281.5>
LayerCount: 2
Fore
SplineSet
60 0 m 1xf8
 60 540 l 2
 60 620 110 660 210 660 c 2
 440 660 l 2xf4
 540 660 590 620 590 540 c 2
 590 449 l 2xf8
 590 403 574 370 540 350 c 1
 586 336 620 305 620 239 c 2
 620 120 l 2
 620 40 570 0 470 0 c 2
 320 0 l 1
 320 105 l 1
 415 105 l 2
 432 105 440 112 440 125 c 2
 440 275 l 2xf4
 440 288 432 295 415 295 c 2
 320 295 l 1
 320 400 l 1
 385 400 l 2
 402 400 410 407 410 420 c 2
 410 535 l 2
 410 548 402 555 385 555 c 2
 265 555 l 2
 248 555 240 548 240 535 c 2
 240 0 l 1
 60 0 l 1xf8
EndSplineSet
Validated: 1
EndChar

StartChar: agrave
Encoding: 224 224 157
Width: 650
Flags: W
HStem: 0 105<150 410 255 410 255 590> 200 105<246.5 255 255 410> 385 105<90 385 90 440> 550 160<290 310 150 420 290 290>
VStem: 50 180<120 125 125 180 118.5 185 118.5 225> 410 180<105 200 200 200 305 365 365 370 0 371.5>
LayerCount: 2
Fore
SplineSet
50 120 m 2
 50 185 l 2
 50 265 100 305 200 305 c 2
 410 305 l 1
 410 365 l 2
 410 378 402 385 385 385 c 2
 90 385 l 1
 90 490 l 1
 440 490 l 2
 540 490 590 450 590 370 c 2
 590 0 l 1
 200 0 l 2
 100 0 50 40 50 120 c 2
150 710 m 1
 310 710 l 1
 420 550 l 1
 290 550 l 1
 150 710 l 1
230 125 m 2
 230 112 238 105 255 105 c 2
 410 105 l 1
 410 200 l 1
 255 200 l 2
 238 200 230 193 230 180 c 2
 230 125 l 2
EndSplineSet
Validated: 1
EndChar

StartChar: aacute
Encoding: 225 225 158
Width: 650
Flags: W
HStem: 0 105<150 410 255 410 255 590> 200 105<246.5 255 255 410> 385 105<90 385 90 440> 550 160<230 500 340 360>
VStem: 50 180<120 125 125 180 118.5 185 118.5 225> 410 180<105 200 200 200 305 365 365 370 0 371.5>
LayerCount: 2
Fore
SplineSet
50 120 m 2
 50 185 l 2
 50 265 100 305 200 305 c 2
 410 305 l 1
 410 365 l 2
 410 378 402 385 385 385 c 2
 90 385 l 1
 90 490 l 1
 440 490 l 2
 540 490 590 450 590 370 c 2
 590 0 l 1
 200 0 l 2
 100 0 50 40 50 120 c 2
230 125 m 2
 230 112 238 105 255 105 c 2
 410 105 l 1
 410 200 l 1
 255 200 l 2
 238 200 230 193 230 180 c 2
 230 125 l 2
230 550 m 1
 340 710 l 1
 500 710 l 1
 360 550 l 1
 230 550 l 1
EndSplineSet
Validated: 1
EndChar

StartChar: acircumflex
Encoding: 226 226 159
Width: 650
Flags: W
HStem: 0 105<150 410 255 410 255 590> 200 105<246.5 255 255 410> 385 105<90 385 90 440> 550 160<135 390 260 262 388 388 388 390 260 515>
VStem: 50 180<120 125 125 180 118.5 185 118.5 225> 410 180<105 200 200 200 305 365 365 370 0 371.5>
LayerCount: 2
Fore
SplineSet
50 120 m 2
 50 185 l 2
 50 265 100 305 200 305 c 2
 410 305 l 1
 410 365 l 2
 410 378 402 385 385 385 c 2
 90 385 l 1
 90 490 l 1
 440 490 l 2
 540 490 590 450 590 370 c 2
 590 0 l 1
 200 0 l 2
 100 0 50 40 50 120 c 2
135 550 m 1
 260 710 l 1
 390 710 l 1
 515 550 l 1
 388 550 l 1
 325 625 l 1
 262 550 l 1
 135 550 l 1
230 125 m 2
 230 112 238 105 255 105 c 2
 410 105 l 1
 410 200 l 1
 255 200 l 2
 238 200 230 193 230 180 c 2
 230 125 l 2
EndSplineSet
Validated: 1
EndChar

StartChar: atilde
Encoding: 227 227 160
Width: 650
Flags: W
HStem: 0 105<150 410 255 410 255 590> 200 105<246.5 255 255 410> 385 105<90 385 90 440> 550 98<376 384 376 392.5> 612 98<266 274>
VStem: 50 180<120 125 125 180 118.5 185 118.5 225> 410 180<105 200 200 200 305 365 365 370 0 371.5>
LayerCount: 2
Fore
SplineSet
50 120 m 2xe6
 50 185 l 2
 50 265 100 305 200 305 c 2
 410 305 l 1
 410 365 l 2
 410 378 402 385 385 385 c 2
 90 385 l 1
 90 490 l 1
 440 490 l 2
 540 490 590 450 590 370 c 2
 590 0 l 1
 200 0 l 2
 100 0 50 40 50 120 c 2xe6
135 615 m 1
 200 680 l 2
 220 700 245 710 270 710 c 0xee
 295 710 320 700 340 680 c 2
 360 660 l 2
 368 652 372 648 380 648 c 0xf6
 388 648 392 652 400 660 c 2
 450 710 l 1xee
 515 645 l 1
 450 580 l 2
 430 560 405 550 380 550 c 0xf6
 355 550 330 560 310 580 c 2
 290 600 l 2
 282 608 278 612 270 612 c 0xee
 262 612 258 608 250 600 c 2
 200 550 l 1xf6
 135 615 l 1
230 125 m 2
 230 112 238 105 255 105 c 2
 410 105 l 1
 410 200 l 1
 255 200 l 2
 238 200 230 193 230 180 c 2
 230 125 l 2
EndSplineSet
Validated: 1
EndChar

StartChar: adieresis
Encoding: 228 228 161
Width: 650
Flags: W
HStem: 0 105<150 410 255 410 255 590> 200 105<246.5 255 255 410> 385 105<90 385 90 440> 570 120<140 280 140 280 370 510 140 370>
VStem: 50 180<120 125 125 180 118.5 185 118.5 225> 140 140<570 690 570 690> 370 140<570 690 570 690> 410 180<105 200 200 200 305 365 365 370 0 371.5>
LayerCount: 2
Fore
SplineSet
50 120 m 2xf9
 50 185 l 2
 50 265 100 305 200 305 c 2
 410 305 l 1
 410 365 l 2
 410 378 402 385 385 385 c 2
 90 385 l 1
 90 490 l 1
 440 490 l 2
 540 490 590 450 590 370 c 2
 590 0 l 1
 200 0 l 2
 100 0 50 40 50 120 c 2xf9
140 570 m 1xf4
 140 690 l 1
 280 690 l 1
 280 570 l 1
 140 570 l 1xf4
230 125 m 2xf9
 230 112 238 105 255 105 c 2
 410 105 l 1
 410 200 l 1
 255 200 l 2
 238 200 230 193 230 180 c 2
 230 125 l 2xf9
370 570 m 1xf2
 370 690 l 1
 510 690 l 1
 510 570 l 1
 370 570 l 1xf2
EndSplineSet
Validated: 1
EndChar

StartChar: aring
Encoding: 229 229 162
Width: 650
Flags: W
HStem: 0 105<150 410 255 410 255 590> 200 105<246.5 255 255 410> 385 105<90 385 90 440> 550 60<235 360 290 360 360 365 290 385> 695 60<285 290 290 360>
VStem: 50 180<120 125 125 180 118.5 185 118.5 225> 175 100<622 683 618 707> 375 100<622 683 598 687> 410 180<105 200 200 200 305 365 365 370 0 371.5>
LayerCount: 2
Fore
SplineSet
50 120 m 2xfc80
 50 185 l 2
 50 265 100 305 200 305 c 2
 410 305 l 1
 410 365 l 2
 410 378 402 385 385 385 c 2
 90 385 l 1
 90 490 l 1
 440 490 l 2
 540 490 590 450 590 370 c 2
 590 0 l 1
 200 0 l 2
 100 0 50 40 50 120 c 2xfc80
175 622 m 2xfb
 175 683 l 2
 175 731 205 755 265 755 c 2
 385 755 l 2
 445 755 475 731 475 683 c 2
 475 622 l 2
 475 574 445 550 385 550 c 2
 265 550 l 2
 205 550 175 574 175 622 c 2xfb
230 125 m 2xfc80
 230 112 238 105 255 105 c 2
 410 105 l 1
 410 200 l 1
 255 200 l 2
 238 200 230 193 230 180 c 2
 230 125 l 2xfc80
275 622 m 2xfb
 275 614 280 610 290 610 c 2
 360 610 l 2
 370 610 375 614 375 622 c 2
 375 683 l 2
 375 691 370 695 360 695 c 2
 290 695 l 2
 280 695 275 691 275 683 c 2
 275 622 l 2xfb
EndSplineSet
Validated: 1
EndChar

StartChar: ae
Encoding: 230 230 163
Width: 1010
Flags: W
HStem: 0 105<150 410 255 410 615 930> 200 105<246.5 255 255 410 590 770> 385 105<90 385 90 800 606.5 615 615 745>
VStem: 50 180<120 125 125 180 118.5 185 118.5 225> 410 180<118.5 125 125 200 118.5 200 305 365> 770 180<305 365 365 370 200 371.5>
LayerCount: 2
Fore
SplineSet
50 120 m 2
 50 185 l 2
 50 265 100 305 200 305 c 2
 410 305 l 1
 410 365 l 2
 410 378 402 385 385 385 c 2
 90 385 l 1
 90 490 l 1
 800 490 l 2
 900 490 950 450 950 370 c 2
 950 200 l 1
 590 200 l 1
 590 125 l 2
 590 112 598 105 615 105 c 2
 930 105 l 1
 930 0 l 1
 200 0 l 2
 100 0 50 40 50 120 c 2
230 125 m 2
 230 112 238 105 255 105 c 2
 410 105 l 1
 410 200 l 1
 255 200 l 2
 238 200 230 193 230 180 c 2
 230 125 l 2
590 305 m 1
 770 305 l 1
 770 365 l 2
 770 378 762 385 745 385 c 2
 615 385 l 2
 598 385 590 378 590 365 c 2
 590 305 l 1
EndSplineSet
Validated: 1
EndChar

StartChar: ccedilla
Encoding: 231 231 164
Width: 610
Flags: W
HStem: -185 75<210 300 300 313.5 210 345 210 300> 0 105<160 570 265 340 470 570 470 470> 385 105<256.5 265 265 570>
VStem: 60 180<120 125 125 365> 340 130<-78 0 -118.5 0>
LayerCount: 2
Fore
SplineSet
60 120 m 2
 60 370 l 2
 60 450 110 490 210 490 c 2
 570 490 l 1
 570 385 l 1
 265 385 l 2
 248 385 240 378 240 365 c 2
 240 125 l 2
 240 112 248 105 265 105 c 2
 570 105 l 1
 570 0 l 1
 470 0 l 1
 470 -85 l 2
 470 -152 428 -185 345 -185 c 2
 210 -185 l 1
 210 -110 l 1
 300 -110 l 2
 327 -110 340 -99 340 -78 c 2
 340 0 l 1
 210 0 l 2
 110 0 60 40 60 120 c 2
EndSplineSet
Validated: 1
EndChar

StartChar: egrave
Encoding: 232 232 165
Width: 660
Flags: W
HStem: 0 105<160 580 265 580 265 580> 200 105<240 420 240 600 240 420> 385 105<256.5 265 265 395> 550 160<295 315 155 425 295 295>
VStem: 60 180<120 125 125 200 305 365> 420 180<305 365 365 370 200 371.5>
LayerCount: 2
Fore
SplineSet
60 120 m 2
 60 370 l 2
 60 450 110 490 210 490 c 2
 450 490 l 2
 550 490 600 450 600 370 c 2
 600 200 l 1
 240 200 l 1
 240 125 l 2
 240 112 248 105 265 105 c 2
 580 105 l 1
 580 0 l 1
 210 0 l 2
 110 0 60 40 60 120 c 2
155 710 m 1
 315 710 l 1
 425 550 l 1
 295 550 l 1
 155 710 l 1
240 305 m 1
 420 305 l 1
 420 365 l 2
 420 378 412 385 395 385 c 2
 265 385 l 2
 248 385 240 378 240 365 c 2
 240 305 l 1
EndSplineSet
Validated: 1
EndChar

StartChar: eacute
Encoding: 233 233 166
Width: 660
Flags: W
HStem: 0 105<160 580 265 580 265 580> 200 105<240 420 240 600 240 420> 385 105<256.5 265 265 395> 550 160<235 505 345 365>
VStem: 60 180<120 125 125 200 305 365> 420 180<305 365 365 370 200 371.5>
LayerCount: 2
Fore
SplineSet
60 120 m 2
 60 370 l 2
 60 450 110 490 210 490 c 2
 450 490 l 2
 550 490 600 450 600 370 c 2
 600 200 l 1
 240 200 l 1
 240 125 l 2
 240 112 248 105 265 105 c 2
 580 105 l 1
 580 0 l 1
 210 0 l 2
 110 0 60 40 60 120 c 2
235 550 m 1
 345 710 l 1
 505 710 l 1
 365 550 l 1
 235 550 l 1
240 305 m 1
 420 305 l 1
 420 365 l 2
 420 378 412 385 395 385 c 2
 265 385 l 2
 248 385 240 378 240 365 c 2
 240 305 l 1
EndSplineSet
Validated: 1
EndChar

StartChar: ecircumflex
Encoding: 234 234 167
Width: 660
Flags: W
HStem: 0 105<160 580 265 580 265 580> 200 105<240 420 240 600 240 420> 385 105<256.5 265 265 395> 550 160<140 395 265 267 393 393 393 395 265 520>
VStem: 60 180<120 125 125 200 305 365> 420 180<305 365 365 370 200 371.5>
LayerCount: 2
Fore
SplineSet
60 120 m 2
 60 370 l 2
 60 450 110 490 210 490 c 2
 450 490 l 2
 550 490 600 450 600 370 c 2
 600 200 l 1
 240 200 l 1
 240 125 l 2
 240 112 248 105 265 105 c 2
 580 105 l 1
 580 0 l 1
 210 0 l 2
 110 0 60 40 60 120 c 2
140 550 m 1
 265 710 l 1
 395 710 l 1
 520 550 l 1
 393 550 l 1
 330 625 l 1
 267 550 l 1
 140 550 l 1
240 305 m 1
 420 305 l 1
 420 365 l 2
 420 378 412 385 395 385 c 2
 265 385 l 2
 248 385 240 378 240 365 c 2
 240 305 l 1
EndSplineSet
Validated: 1
EndChar

StartChar: edieresis
Encoding: 235 235 168
Width: 660
Flags: W
HStem: 0 105<160 580 265 580 265 580> 200 105<240 420 240 600 240 420> 385 105<256.5 265 265 395> 570 120<145 285 145 285 375 515 145 375>
VStem: 60 180<120 125 125 200 305 365> 145 140<570 690 570 690> 375 140<570 690 570 690> 420 180<305 365 365 370 200 371.5>
LayerCount: 2
Fore
SplineSet
60 120 m 2xf9
 60 370 l 2
 60 450 110 490 210 490 c 2
 450 490 l 2
 550 490 600 450 600 370 c 2
 600 200 l 1
 240 200 l 1
 240 125 l 2
 240 112 248 105 265 105 c 2
 580 105 l 1
 580 0 l 1
 210 0 l 2
 110 0 60 40 60 120 c 2xf9
145 570 m 1xf4
 145 690 l 1
 285 690 l 1
 285 570 l 1
 145 570 l 1xf4
240 305 m 1xf9
 420 305 l 1
 420 365 l 2
 420 378 412 385 395 385 c 2
 265 385 l 2
 248 385 240 378 240 365 c 2
 240 305 l 1xf9
375 570 m 1xf2
 375 690 l 1
 515 690 l 1
 515 570 l 1
 375 570 l 1xf2
EndSplineSet
Validated: 1
EndChar

StartChar: igrave
Encoding: 236 236 169
Width: 300
Flags: W
HStem: 0 21<60 60 60 240> 470 20<60 240 240 240> 550 160<120 140 -20 250 120 120>
VStem: 60 180<0 490 0 490>
LayerCount: 2
Fore
SplineSet
-20 710 m 1
 140 710 l 1
 250 550 l 1
 120 550 l 1
 -20 710 l 1
60 0 m 1
 60 490 l 1
 240 490 l 1
 240 0 l 1
 60 0 l 1
EndSplineSet
Validated: 1
EndChar

StartChar: iacute
Encoding: 237 237 170
Width: 300
Flags: W
HStem: 0 21<60 60 60 240> 470 20<60 240 240 240> 550 160<50 320 160 180>
VStem: 60 180<0 490 0 490>
LayerCount: 2
Fore
SplineSet
50 550 m 1
 160 710 l 1
 320 710 l 1
 180 550 l 1
 50 550 l 1
60 0 m 1
 60 490 l 1
 240 490 l 1
 240 0 l 1
 60 0 l 1
EndSplineSet
Validated: 1
EndChar

StartChar: icircumflex
Encoding: 238 238 171
Width: 320
Flags: W
HStem: 0 21<70 70 70 250> 470 20<70 250 250 250> 550 160<-30 225 95 97 223 223 223 225 95 350>
VStem: 70 180<0 490 0 490>
LayerCount: 2
Fore
SplineSet
-30 550 m 1
 95 710 l 1
 225 710 l 1
 350 550 l 1
 223 550 l 1
 160 625 l 1
 97 550 l 1
 -30 550 l 1
70 0 m 1
 70 490 l 1
 250 490 l 1
 250 0 l 1
 70 0 l 1
EndSplineSet
Validated: 1
EndChar

StartChar: idieresis
Encoding: 239 239 172
Width: 320
Flags: W
HStem: 0 21<70 70 70 250> 470 20<70 250 250 250> 570 120<-25 115 -25 115 205 345 -25 205>
VStem: -25 140<570 690 570 690> 70 180<0 490 0 490> 205 140<570 690 570 690>
LayerCount: 2
Fore
SplineSet
-25 570 m 1xf0
 -25 690 l 1
 115 690 l 1
 115 570 l 1
 -25 570 l 1xf0
70 0 m 1xe8
 70 490 l 1
 250 490 l 1
 250 0 l 1
 70 0 l 1xe8
205 570 m 1xe4
 205 690 l 1
 345 690 l 1
 345 570 l 1
 205 570 l 1xe4
EndSplineSet
Validated: 1
EndChar

StartChar: eth
Encoding: 240 240 173
Width: 680
Flags: W
HStem: 0 105<160 415 265 415 415 423.5 265 470> 325 105<256.5 265 265 412 210 440> 640 20G<297 475 475 475>
VStem: 60 180<120 125 125 305> 440 180<125 310>
LayerCount: 2
Fore
SplineSet
60 120 m 2
 60 310 l 2
 60 390 110 430 210 430 c 2
 412 430 l 1
 378 498 l 1
 262 464 l 1
 239 543 l 1
 340 573 l 1
 297 660 l 1
 475 660 l 1
 495 619 l 1
 597 649 l 1
 620 570 l 1
 533 544 l 1
 580 450 l 2
 608 394 620 366 620 310 c 2
 620 120 l 2
 620 40 570 0 470 0 c 2
 210 0 l 2
 110 0 60 40 60 120 c 2
240 125 m 2
 240 112 248 105 265 105 c 2
 415 105 l 2
 432 105 440 112 440 125 c 2
 440 325 l 1
 265 325 l 2
 248 325 240 318 240 305 c 2
 240 125 l 2
EndSplineSet
Validated: 1
EndChar

StartChar: ntilde
Encoding: 241 241 174
Width: 680
Flags: W
HStem: 0 21<60 60 60 240 440 440 440 620> 385 105<240 415 240 240> 550 98<391 399 391 407.5> 612 98<281 289>
VStem: 60 180<0 385 0 490 0 490> 440 180<0 365 365 370 0 371.5>
LayerCount: 2
Fore
SplineSet
60 0 m 1xcc
 60 490 l 1
 470 490 l 2
 570 490 620 450 620 370 c 2
 620 0 l 1
 440 0 l 1
 440 365 l 2
 440 378 432 385 415 385 c 2
 240 385 l 1
 240 0 l 1
 60 0 l 1xcc
150 615 m 1
 215 680 l 2
 235 700 260 710 285 710 c 0xdc
 310 710 335 700 355 680 c 2
 375 660 l 2
 383 652 387 648 395 648 c 0xec
 403 648 407 652 415 660 c 2
 465 710 l 1xdc
 530 645 l 1
 465 580 l 2
 445 560 420 550 395 550 c 0xec
 370 550 345 560 325 580 c 2
 305 600 l 2
 297 608 293 612 285 612 c 0xdc
 277 612 273 608 265 600 c 2
 215 550 l 1xec
 150 615 l 1
EndSplineSet
Validated: 1
EndChar

StartChar: ograve
Encoding: 242 242 175
Width: 680
Flags: W
HStem: 0 105<160 415 265 415 415 423.5 265 470> 385 105<256.5 265 265 415> 550 160<305 325 165 435 305 305>
VStem: 60 180<120 125 125 365> 440 180<125 365 365 370>
LayerCount: 2
Fore
SplineSet
60 120 m 2
 60 370 l 2
 60 450 110 490 210 490 c 2
 470 490 l 2
 570 490 620 450 620 370 c 2
 620 120 l 2
 620 40 570 0 470 0 c 2
 210 0 l 2
 110 0 60 40 60 120 c 2
165 710 m 1
 325 710 l 1
 435 550 l 1
 305 550 l 1
 165 710 l 1
240 125 m 2
 240 112 248 105 265 105 c 2
 415 105 l 2
 432 105 440 112 440 125 c 2
 440 365 l 2
 440 378 432 385 415 385 c 2
 265 385 l 2
 248 385 240 378 240 365 c 2
 240 125 l 2
EndSplineSet
Validated: 1
EndChar

StartChar: oacute
Encoding: 243 243 176
Width: 680
Flags: W
HStem: 0 105<160 415 265 415 415 423.5 265 470> 385 105<256.5 265 265 415> 550 160<245 515 355 375>
VStem: 60 180<120 125 125 365> 440 180<125 365 365 370>
LayerCount: 2
Fore
SplineSet
60 120 m 2
 60 370 l 2
 60 450 110 490 210 490 c 2
 470 490 l 2
 570 490 620 450 620 370 c 2
 620 120 l 2
 620 40 570 0 470 0 c 2
 210 0 l 2
 110 0 60 40 60 120 c 2
240 125 m 2
 240 112 248 105 265 105 c 2
 415 105 l 2
 432 105 440 112 440 125 c 2
 440 365 l 2
 440 378 432 385 415 385 c 2
 265 385 l 2
 248 385 240 378 240 365 c 2
 240 125 l 2
245 550 m 1
 355 710 l 1
 515 710 l 1
 375 550 l 1
 245 550 l 1
EndSplineSet
Validated: 1
EndChar

StartChar: ocircumflex
Encoding: 244 244 177
Width: 680
Flags: W
HStem: 0 105<160 415 265 415 415 423.5 265 470> 385 105<256.5 265 265 415> 550 160<150 405 275 277 403 403 403 405 275 530>
VStem: 60 180<120 125 125 365> 440 180<125 365 365 370>
LayerCount: 2
Fore
SplineSet
60 120 m 2
 60 370 l 2
 60 450 110 490 210 490 c 2
 470 490 l 2
 570 490 620 450 620 370 c 2
 620 120 l 2
 620 40 570 0 470 0 c 2
 210 0 l 2
 110 0 60 40 60 120 c 2
150 550 m 1
 275 710 l 1
 405 710 l 1
 530 550 l 1
 403 550 l 1
 340 625 l 1
 277 550 l 1
 150 550 l 1
240 125 m 2
 240 112 248 105 265 105 c 2
 415 105 l 2
 432 105 440 112 440 125 c 2
 440 365 l 2
 440 378 432 385 415 385 c 2
 265 385 l 2
 248 385 240 378 240 365 c 2
 240 125 l 2
EndSplineSet
Validated: 1
EndChar

StartChar: otilde
Encoding: 245 245 178
Width: 680
Flags: W
HStem: 0 105<160 415 265 415 415 423.5 265 470> 385 105<256.5 265 265 415> 550 98<391 399 391 407.5> 612 98<281 289>
VStem: 60 180<120 125 125 365> 440 180<125 365 365 370>
LayerCount: 2
Fore
SplineSet
60 120 m 2xcc
 60 370 l 2
 60 450 110 490 210 490 c 2
 470 490 l 2
 570 490 620 450 620 370 c 2
 620 120 l 2
 620 40 570 0 470 0 c 2
 210 0 l 2
 110 0 60 40 60 120 c 2xcc
150 615 m 1
 215 680 l 2
 235 700 260 710 285 710 c 0xdc
 310 710 335 700 355 680 c 2
 375 660 l 2
 383 652 387 648 395 648 c 0xec
 403 648 407 652 415 660 c 2
 465 710 l 1xdc
 530 645 l 1
 465 580 l 2
 445 560 420 550 395 550 c 0xec
 370 550 345 560 325 580 c 2
 305 600 l 2
 297 608 293 612 285 612 c 0xdc
 277 612 273 608 265 600 c 2
 215 550 l 1xec
 150 615 l 1
240 125 m 2
 240 112 248 105 265 105 c 2
 415 105 l 2
 432 105 440 112 440 125 c 2
 440 365 l 2
 440 378 432 385 415 385 c 2
 265 385 l 2
 248 385 240 378 240 365 c 2
 240 125 l 2
EndSplineSet
Validated: 1
EndChar

StartChar: odieresis
Encoding: 246 246 179
Width: 680
Flags: W
HStem: 0 105<160 415 265 415 415 423.5 265 470> 385 105<256.5 265 265 415> 570 120<155 295 155 295 385 525 155 385>
VStem: 60 180<120 125 125 365> 155 140<570 690 570 690> 385 140<570 690 570 690> 440 180<125 365 365 370>
LayerCount: 2
Fore
SplineSet
60 120 m 2xf2
 60 370 l 2
 60 450 110 490 210 490 c 2
 470 490 l 2
 570 490 620 450 620 370 c 2
 620 120 l 2
 620 40 570 0 470 0 c 2
 210 0 l 2
 110 0 60 40 60 120 c 2xf2
155 570 m 1xe8
 155 690 l 1
 295 690 l 1
 295 570 l 1
 155 570 l 1xe8
240 125 m 2xf2
 240 112 248 105 265 105 c 2
 415 105 l 2
 432 105 440 112 440 125 c 2
 440 365 l 2
 440 378 432 385 415 385 c 2
 265 385 l 2
 248 385 240 378 240 365 c 2
 240 125 l 2xf2
385 570 m 1xe4
 385 690 l 1
 525 690 l 1
 525 570 l 1
 385 570 l 1xe4
EndSplineSet
Validated: 1
EndChar

StartChar: divide
Encoding: 247 247 180
Width: 740
Flags: W
HStem: 30 125<290 450 290 450> 225 120<85 655 85 655> 415 125<290 450 290 450>
VStem: 290 160<30 155 30 155 415 540>
LayerCount: 2
Fore
SplineSet
85 225 m 1
 85 345 l 1
 655 345 l 1
 655 225 l 1
 85 225 l 1
290 30 m 1
 290 155 l 1
 450 155 l 1
 450 30 l 1
 290 30 l 1
290 415 m 1
 290 540 l 1
 450 540 l 1
 450 415 l 1
 290 415 l 1
EndSplineSet
Validated: 1
EndChar

StartChar: oslash
Encoding: 248 248 181
Width: 680
Flags: W
HStem: 0 105<160 415 266 415 415 423.5 266 470> 385 105<256.5 265 265 414>
VStem: 60 180<216 216 216 365 216 370 216 410> 440 180<125 274 274 274>
LayerCount: 2
Fore
SplineSet
60 120 m 2
 60 370 l 2
 60 450 110 490 210 490 c 2
 470 490 l 2
 570 490 620 450 620 370 c 2
 620 120 l 2
 620 40 570 0 470 0 c 2
 210 0 l 2
 110 0 60 40 60 120 c 2
240 216 m 1
 414 385 l 1
 265 385 l 2
 248 385 240 378 240 365 c 2
 240 216 l 1
266 105 m 1
 415 105 l 2
 432 105 440 112 440 125 c 2
 440 274 l 1
 266 105 l 1
EndSplineSet
Validated: 1
EndChar

StartChar: ugrave
Encoding: 249 249 182
Width: 680
Flags: W
HStem: 0 105<160 440 265 440 265 620> 470 20<60 240 240 240 440 620 620 620> 550 160<305 325 165 435 305 305>
VStem: 60 180<120 125 125 490> 440 180<105 490 0 490>
LayerCount: 2
Fore
SplineSet
60 120 m 2
 60 490 l 1
 240 490 l 1
 240 125 l 2
 240 112 248 105 265 105 c 2
 440 105 l 1
 440 490 l 1
 620 490 l 1
 620 0 l 1
 210 0 l 2
 110 0 60 40 60 120 c 2
165 710 m 1
 325 710 l 1
 435 550 l 1
 305 550 l 1
 165 710 l 1
EndSplineSet
Validated: 1
EndChar

StartChar: uacute
Encoding: 250 250 183
Width: 680
Flags: W
HStem: 0 105<160 440 265 440 265 620> 470 20<60 240 240 240 440 620 620 620> 550 160<245 515 355 375>
VStem: 60 180<120 125 125 490> 440 180<105 490 0 490>
LayerCount: 2
Fore
SplineSet
60 120 m 2
 60 490 l 1
 240 490 l 1
 240 125 l 2
 240 112 248 105 265 105 c 2
 440 105 l 1
 440 490 l 1
 620 490 l 1
 620 0 l 1
 210 0 l 2
 110 0 60 40 60 120 c 2
245 550 m 1
 355 710 l 1
 515 710 l 1
 375 550 l 1
 245 550 l 1
EndSplineSet
Validated: 1
EndChar

StartChar: ucircumflex
Encoding: 251 251 184
Width: 680
Flags: W
HStem: 0 105<160 440 265 440 265 620> 470 20<60 240 240 240 440 620 620 620> 550 160<150 405 275 277 403 403 403 405 275 530>
VStem: 60 180<120 125 125 490> 440 180<105 490 0 490>
LayerCount: 2
Fore
SplineSet
60 120 m 2
 60 490 l 1
 240 490 l 1
 240 125 l 2
 240 112 248 105 265 105 c 2
 440 105 l 1
 440 490 l 1
 620 490 l 1
 620 0 l 1
 210 0 l 2
 110 0 60 40 60 120 c 2
150 550 m 1
 275 710 l 1
 405 710 l 1
 530 550 l 1
 403 550 l 1
 340 625 l 1
 277 550 l 1
 150 550 l 1
EndSplineSet
Validated: 1
EndChar

StartChar: udieresis
Encoding: 252 252 185
Width: 680
Flags: W
HStem: 0 105<160 440 265 440 265 620> 470 20<60 240 240 240 440 620 620 620> 570 120<155 295 155 295 385 525 155 385>
VStem: 60 180<120 125 125 490> 155 140<570 690 570 690> 385 140<570 690 570 690> 440 180<105 490 0 490>
LayerCount: 2
Fore
SplineSet
60 120 m 2xf2
 60 490 l 1
 240 490 l 1
 240 125 l 2
 240 112 248 105 265 105 c 2
 440 105 l 1
 440 490 l 1
 620 490 l 1
 620 0 l 1
 210 0 l 2
 110 0 60 40 60 120 c 2xf2
155 570 m 1xe8
 155 690 l 1
 295 690 l 1
 295 570 l 1
 155 570 l 1xe8
385 570 m 1xe4
 385 690 l 1
 525 690 l 1
 525 570 l 1
 385 570 l 1xe4
EndSplineSet
Validated: 1
EndChar

StartChar: yacute
Encoding: 253 253 186
Width: 680
Flags: W
HStem: -210 21<172 350 172 172> 470 20<10 188 188 188 492 670 670 670> 550 160<245 515 355 375>
LayerCount: 2
Fore
SplineSet
10 490 m 1
 188 490 l 1
 340 158 l 1
 492 490 l 1
 670 490 l 1
 350 -210 l 1
 172 -210 l 1
 251 -37 l 1
 10 490 l 1
245 550 m 1
 355 710 l 1
 515 710 l 1
 375 550 l 1
 245 550 l 1
EndSplineSet
Validated: 1
EndChar

StartChar: thorn
Encoding: 254 254 187
Width: 680
Flags: W
HStem: -210 21G<60 60 60 240> 0 105<240 415 415 423.5 240 470 240 415> 385 105<240 415 240 470> 640 20G<60 240 240 240>
VStem: 60 180<-210 0 105 385 490 660> 440 180<125 365 365 370>
LayerCount: 2
Fore
SplineSet
60 -210 m 1
 60 660 l 1
 240 660 l 1
 240 490 l 1
 470 490 l 2
 570 490 620 450 620 370 c 2
 620 120 l 2
 620 40 570 0 470 0 c 2
 240 0 l 1
 240 -210 l 1
 60 -210 l 1
240 105 m 1
 415 105 l 2
 432 105 440 112 440 125 c 2
 440 365 l 2
 440 378 432 385 415 385 c 2
 240 385 l 1
 240 105 l 1
EndSplineSet
Validated: 1
EndChar

StartChar: ydieresis
Encoding: 255 255 188
Width: 680
Flags: W
HStem: -210 21<172 350 172 172> 470 20<10 188 188 188 492 670 670 670> 570 120<155 295 155 295 385 525 155 385>
VStem: 155 140<570 690 570 690> 385 140<570 690 570 690>
LayerCount: 2
Fore
SplineSet
10 490 m 1
 188 490 l 1
 340 158 l 1
 492 490 l 1
 670 490 l 1
 350 -210 l 1
 172 -210 l 1
 251 -37 l 1
 10 490 l 1
155 570 m 1
 155 690 l 1
 295 690 l 1
 295 570 l 1
 155 570 l 1
385 570 m 1
 385 690 l 1
 525 690 l 1
 525 570 l 1
 385 570 l 1
EndSplineSet
Validated: 1
EndChar

StartChar: Amacron
Encoding: 256 256 189
Width: 830
Flags: W
HStem: 0 21<5 5 5 201 629 629 629 825> 140 120<313 517 313 569 261 517> 640 20<290 540 540 540> 750 95<240 590 240 590>
VStem: 240 350<750 845 750 845>
LayerCount: 2
Fore
SplineSet
5 0 m 1
 290 660 l 1
 540 660 l 1
 825 0 l 1
 629 0 l 1
 569 140 l 1
 261 140 l 1
 201 0 l 1
 5 0 l 1
240 750 m 1
 240 845 l 1
 590 845 l 1
 590 750 l 1
 240 750 l 1
313 260 m 1
 517 260 l 1
 415 495 l 1
 313 260 l 1
EndSplineSet
Validated: 1
EndChar

StartChar: amacron
Encoding: 257 257 190
Width: 650
Flags: W
HStem: 0 105<150 410 255 410 255 590> 200 105<246.5 255 255 410> 385 105<90 385 90 440> 580 95<150 500 150 500>
VStem: 50 180<120 125 125 180 118.5 185 118.5 225> 150 350<580 675 580 675> 410 180<105 200 200 200 305 365 365 370 0 371.5>
LayerCount: 2
Fore
SplineSet
50 120 m 2xfa
 50 185 l 2
 50 265 100 305 200 305 c 2
 410 305 l 1
 410 365 l 2
 410 378 402 385 385 385 c 2
 90 385 l 1
 90 490 l 1
 440 490 l 2
 540 490 590 450 590 370 c 2
 590 0 l 1
 200 0 l 2
 100 0 50 40 50 120 c 2xfa
150 580 m 1xf4
 150 675 l 1
 500 675 l 1
 500 580 l 1
 150 580 l 1xf4
230 125 m 2xfa
 230 112 238 105 255 105 c 2
 410 105 l 1
 410 200 l 1
 255 200 l 2
 238 200 230 193 230 180 c 2
 230 125 l 2xfa
EndSplineSet
Validated: 1
EndChar

StartChar: Abreve
Encoding: 258 258 191
Width: 830
Flags: W
HStem: 0 21<5 5 5 201 629 629 629 825> 140 120<313 517 313 569 261 517> 640 20<290 540 540 540> 720 65<320 455 375 455 455 460 375 480> 860 20<260 360 360 360 470 570 570 570>
VStem: 260 100<793 797 797 880 793 880> 470 100<797 880 768 880>
LayerCount: 2
Fore
SplineSet
5 0 m 1
 290 660 l 1
 540 660 l 1
 825 0 l 1
 629 0 l 1
 569 140 l 1
 261 140 l 1
 201 0 l 1
 5 0 l 1
260 792 m 2
 260 880 l 1
 360 880 l 1
 360 797 l 2
 360 789 365 785 375 785 c 2
 455 785 l 2
 465 785 470 789 470 797 c 2
 470 880 l 1
 570 880 l 1
 570 792 l 2
 570 744 540 720 480 720 c 2
 350 720 l 2
 290 720 260 744 260 792 c 2
313 260 m 1
 517 260 l 1
 415 495 l 1
 313 260 l 1
EndSplineSet
Validated: 1
EndChar

StartChar: abreve
Encoding: 259 259 192
Width: 650
Flags: W
HStem: 0 105<150 410 255 410 255 590> 200 105<246.5 255 255 410> 385 105<90 385 90 440> 550 65<230 365 285 365 365 370 285 390> 690 20<170 270 270 270 380 480 480 480>
VStem: 50 180<120 125 125 180 118.5 185 118.5 225> 170 100<623 627 627 710 623 710> 380 100<627 710 598 710> 410 180<105 200 200 200 305 365 365 370 0 371.5>
LayerCount: 2
Fore
SplineSet
50 120 m 2xfc80
 50 185 l 2
 50 265 100 305 200 305 c 2
 410 305 l 1
 410 365 l 2
 410 378 402 385 385 385 c 2
 90 385 l 1
 90 490 l 1
 440 490 l 2
 540 490 590 450 590 370 c 2
 590 0 l 1
 200 0 l 2
 100 0 50 40 50 120 c 2xfc80
170 622 m 2xfb
 170 710 l 1
 270 710 l 1
 270 627 l 2
 270 619 275 615 285 615 c 2
 365 615 l 2
 375 615 380 619 380 627 c 2
 380 710 l 1
 480 710 l 1
 480 622 l 2
 480 574 450 550 390 550 c 2
 260 550 l 2
 200 550 170 574 170 622 c 2xfb
230 125 m 2xfc80
 230 112 238 105 255 105 c 2
 410 105 l 1
 410 200 l 1
 255 200 l 2
 238 200 230 193 230 180 c 2
 230 125 l 2xfc80
EndSplineSet
Validated: 1
EndChar

StartChar: Aogonek
Encoding: 260 260 193
Width: 830
Flags: W
HStem: -185 75<658.5 825 745 825 745 825> 0 21<5 5 5 201 575 575 731.5 745 745 825> 140 120<313 517 313 569 261 517> 640 20<290 540 540 540>
VStem: 575 130<-85 -78 -78 -32 -88.5 0 -88.5 10>
LayerCount: 2
Fore
SplineSet
5 0 m 1
 290 660 l 1
 540 660 l 1
 825 0 l 1
 745 0 l 2
 718 0 705 -11 705 -32 c 2
 705 -78 l 2
 705 -99 718 -110 745 -110 c 2
 825 -110 l 1
 825 -185 l 1
 700 -185 l 2
 617 -185 575 -152 575 -85 c 2
 575 0 l 2
 575 20 586 42 605 56 c 1
 569 140 l 1
 261 140 l 1
 201 0 l 1
 5 0 l 1
313 260 m 1
 517 260 l 1
 415 495 l 1
 313 260 l 1
EndSplineSet
Validated: 1
EndChar

StartChar: aogonek
Encoding: 261 261 194
Width: 650
Flags: W
HStem: -185 75<423.5 590 510 590 510 590> 0 105<150 410 255 340 255 510 255 590> 200 105<246.5 255 255 410> 385 105<90 385 90 440>
VStem: 50 180<120 125 125 180 118.5 185 118.5 225> 340 130<-85 -78 -78 -32 -88.5 0 -88.5 0> 410 180<105 200 200 200 305 365 365 370>
LayerCount: 2
Fore
SplineSet
50 120 m 2xfc
 50 185 l 2
 50 265 100 305 200 305 c 2
 410 305 l 1
 410 365 l 2
 410 378 402 385 385 385 c 2
 90 385 l 1
 90 490 l 1
 440 490 l 2
 540 490 590 450 590 370 c 2
 590 0 l 1xfa
 510 0 l 2
 483 0 470 -11 470 -32 c 2
 470 -78 l 2xfc
 470 -99 483 -110 510 -110 c 2
 590 -110 l 1
 590 -185 l 1xfa
 465 -185 l 2
 382 -185 340 -152 340 -85 c 2
 340 0 l 1
 200 0 l 2
 100 0 50 40 50 120 c 2xfc
230 125 m 2
 230 112 238 105 255 105 c 2
 410 105 l 1
 410 200 l 1
 255 200 l 2
 238 200 230 193 230 180 c 2
 230 125 l 2
EndSplineSet
Validated: 1
EndChar

StartChar: Cacute
Encoding: 262 262 195
Width: 760
Flags: W
HStem: 0 120<183.5 710 305 710 305 710> 540 120<293.5 305 305 710> 720 160<315 585 425 445>
VStem: 70 200<138.5 148 148 512>
LayerCount: 2
Fore
SplineSet
70 136 m 2
 70 524 l 2
 70 615 127 660 240 660 c 2
 710 660 l 1
 710 540 l 1
 305 540 l 2
 282 540 270 531 270 512 c 2
 270 148 l 2
 270 129 282 120 305 120 c 2
 710 120 l 1
 710 0 l 1
 240 0 l 2
 127 0 70 45 70 136 c 2
315 720 m 1
 425 880 l 1
 585 880 l 1
 445 720 l 1
 315 720 l 1
EndSplineSet
Validated: 1
EndChar

StartChar: cacute
Encoding: 263 263 196
Width: 610
Flags: W
HStem: 0 105<160 570 265 570 265 570> 385 105<256.5 265 265 570> 550 160<235 505 345 365>
VStem: 60 180<120 125 125 365>
LayerCount: 2
Fore
SplineSet
60 120 m 2
 60 370 l 2
 60 450 110 490 210 490 c 2
 570 490 l 1
 570 385 l 1
 265 385 l 2
 248 385 240 378 240 365 c 2
 240 125 l 2
 240 112 248 105 265 105 c 2
 570 105 l 1
 570 0 l 1
 210 0 l 2
 110 0 60 40 60 120 c 2
235 550 m 1
 345 710 l 1
 505 710 l 1
 365 550 l 1
 235 550 l 1
EndSplineSet
Validated: 1
EndChar

StartChar: Ccircumflex
Encoding: 264 264 197
Width: 760
Flags: W
HStem: 0 120<183.5 710 305 710 305 710> 540 120<293.5 305 305 710> 720 160<215 470 340 342 468 468 468 470 340 595>
VStem: 70 200<138.5 148 148 512>
LayerCount: 2
Fore
SplineSet
70 136 m 2
 70 524 l 2
 70 615 127 660 240 660 c 2
 710 660 l 1
 710 540 l 1
 305 540 l 2
 282 540 270 531 270 512 c 2
 270 148 l 2
 270 129 282 120 305 120 c 2
 710 120 l 1
 710 0 l 1
 240 0 l 2
 127 0 70 45 70 136 c 2
215 720 m 1
 340 880 l 1
 470 880 l 1
 595 720 l 1
 468 720 l 1
 405 795 l 1
 342 720 l 1
 215 720 l 1
EndSplineSet
Validated: 1
EndChar

StartChar: ccircumflex
Encoding: 265 265 198
Width: 610
Flags: W
HStem: 0 105<160 570 265 570 265 570> 385 105<256.5 265 265 570> 550 160<135 390 260 262 388 388 388 390 260 515>
VStem: 60 180<120 125 125 365>
LayerCount: 2
Fore
SplineSet
60 120 m 2
 60 370 l 2
 60 450 110 490 210 490 c 2
 570 490 l 1
 570 385 l 1
 265 385 l 2
 248 385 240 378 240 365 c 2
 240 125 l 2
 240 112 248 105 265 105 c 2
 570 105 l 1
 570 0 l 1
 210 0 l 2
 110 0 60 40 60 120 c 2
135 550 m 1
 260 710 l 1
 390 710 l 1
 515 550 l 1
 388 550 l 1
 325 625 l 1
 262 550 l 1
 135 550 l 1
EndSplineSet
Validated: 1
EndChar

StartChar: Cdotaccent
Encoding: 266 266 199
Width: 760
Flags: W
HStem: 0 120<183.5 710 305 710 305 710> 540 120<293.5 305 305 710> 740 120<325 485 325 485>
VStem: 70 200<138.5 148 148 512> 325 160<740 860 740 860>
LayerCount: 2
Fore
SplineSet
70 136 m 2
 70 524 l 2
 70 615 127 660 240 660 c 2
 710 660 l 1
 710 540 l 1
 305 540 l 2
 282 540 270 531 270 512 c 2
 270 148 l 2
 270 129 282 120 305 120 c 2
 710 120 l 1
 710 0 l 1
 240 0 l 2
 127 0 70 45 70 136 c 2
325 740 m 1
 325 860 l 1
 485 860 l 1
 485 740 l 1
 325 740 l 1
EndSplineSet
Validated: 1
EndChar

StartChar: cdotaccent
Encoding: 267 267 200
Width: 610
Flags: W
HStem: 0 105<160 570 265 570 265 570> 385 105<256.5 265 265 570> 570 120<245 405 245 405>
VStem: 60 180<120 125 125 365> 245 160<570 690 570 690>
LayerCount: 2
Fore
SplineSet
60 120 m 2
 60 370 l 2
 60 450 110 490 210 490 c 2
 570 490 l 1
 570 385 l 1
 265 385 l 2
 248 385 240 378 240 365 c 2
 240 125 l 2
 240 112 248 105 265 105 c 2
 570 105 l 1
 570 0 l 1
 210 0 l 2
 110 0 60 40 60 120 c 2
245 570 m 1
 245 690 l 1
 405 690 l 1
 405 570 l 1
 245 570 l 1
EndSplineSet
Validated: 1
EndChar

StartChar: Ccaron
Encoding: 268 268 201
Width: 760
Flags: W
HStem: 0 120<183.5 710 305 710 305 710> 540 120<293.5 305 305 710> 720 160<340 342 468 470 340 340>
VStem: 70 200<138.5 148 148 512>
LayerCount: 2
Fore
SplineSet
70 136 m 2
 70 524 l 2
 70 615 127 660 240 660 c 2
 710 660 l 1
 710 540 l 1
 305 540 l 2
 282 540 270 531 270 512 c 2
 270 148 l 2
 270 129 282 120 305 120 c 2
 710 120 l 1
 710 0 l 1
 240 0 l 2
 127 0 70 45 70 136 c 2
215 880 m 1
 342 880 l 1
 405 805 l 1
 468 880 l 1
 595 880 l 1
 470 720 l 1
 340 720 l 1
 215 880 l 1
EndSplineSet
Validated: 1
EndChar

StartChar: ccaron
Encoding: 269 269 202
Width: 610
Flags: W
HStem: 0 105<160 570 265 570 265 570> 385 105<256.5 265 265 570> 550 160<260 262 388 390 260 260>
VStem: 60 180<120 125 125 365>
LayerCount: 2
Fore
SplineSet
60 120 m 2
 60 370 l 2
 60 450 110 490 210 490 c 2
 570 490 l 1
 570 385 l 1
 265 385 l 2
 248 385 240 378 240 365 c 2
 240 125 l 2
 240 112 248 105 265 105 c 2
 570 105 l 1
 570 0 l 1
 210 0 l 2
 110 0 60 40 60 120 c 2
135 710 m 1
 262 710 l 1
 325 635 l 1
 388 710 l 1
 515 710 l 1
 390 550 l 1
 260 550 l 1
 135 710 l 1
EndSplineSet
Validated: 1
EndChar

StartChar: Dcaron
Encoding: 270 270 203
Width: 820
Flags: W
HStem: 0 120<270 380 380 420> 540 120<270 380 270 270> 720 160<330 332 458 460 330 330>
VStem: 70 200<120 120 120 540> 560 200<264 272 272 388 181.5 396 181.5 444>
LayerCount: 2
Fore
SplineSet
70 0 m 1
 70 660 l 1
 420 660 l 2
 647 660 760 569 760 388 c 2
 760 272 l 2
 760 91 647 0 420 0 c 2
 70 0 l 1
205 880 m 1
 332 880 l 1
 395 805 l 1
 458 880 l 1
 585 880 l 1
 460 720 l 1
 330 720 l 1
 205 880 l 1
270 120 m 1
 380 120 l 2
 500 120 560 168 560 264 c 2
 560 396 l 2
 560 492 500 540 380 540 c 2
 270 540 l 1
 270 120 l 1
EndSplineSet
Validated: 1
EndChar

StartChar: dcaron
Encoding: 271 271 204
Width: 820
Flags: W
HStem: 0 105<160 440 265 440 265 620> 385 105<256.5 265 265 440> 500 160<440 660 695 770>
VStem: 60 180<120 125 125 365> 440 180<105 385 385 385 490 660 0 660>
LayerCount: 2
Fore
SplineSet
60 120 m 2
 60 370 l 2
 60 450 110 490 210 490 c 2
 440 490 l 1
 440 660 l 1
 620 660 l 1
 620 0 l 1
 210 0 l 2
 110 0 60 40 60 120 c 2
240 125 m 2
 240 112 248 105 265 105 c 2
 440 105 l 1
 440 385 l 1
 265 385 l 2
 248 385 240 378 240 365 c 2
 240 125 l 2
660 500 m 1
 695 660 l 1
 835 660 l 1
 770 500 l 1
 660 500 l 1
EndSplineSet
Validated: 1
EndChar

StartChar: Dcroat
Encoding: 272 272 205
Width: 840
Flags: W
HStem: 0 120<290 400 400 440> 295 100<10 90 10 90 290 440> 540 120<290 400 290 290>
VStem: 90 200<120 120 120 295 120 295 395 540> 580 200<264 272 272 388 181.5 396 181.5 444>
LayerCount: 2
Fore
SplineSet
10 295 m 1
 10 395 l 1
 90 395 l 1
 90 660 l 1
 440 660 l 2
 667 660 780 569 780 388 c 2
 780 272 l 2
 780 91 667 0 440 0 c 2
 90 0 l 1
 90 295 l 1
 10 295 l 1
290 120 m 1
 400 120 l 2
 520 120 580 168 580 264 c 2
 580 396 l 2
 580 492 520 540 400 540 c 2
 290 540 l 1
 290 395 l 1
 440 395 l 1
 440 295 l 1
 290 295 l 1
 290 120 l 1
EndSplineSet
Validated: 1
EndChar

StartChar: dcroat
Encoding: 273 273 206
Width: 700
Flags: W
HStem: 0 105<160 440 265 440 265 620> 385 105<256.5 265 265 440> 535 80<260 440 260 440 620 690> 640 20G<440 620 620 620>
VStem: 60 180<120 125 125 365> 440 180<105 385 385 385 490 535 0 535 615 660 0 660>
LayerCount: 2
Fore
SplineSet
60 120 m 2
 60 370 l 2
 60 450 110 490 210 490 c 2
 440 490 l 1
 440 535 l 1
 260 535 l 1
 260 615 l 1
 440 615 l 1
 440 660 l 1
 620 660 l 1
 620 615 l 1
 690 615 l 1
 690 535 l 1
 620 535 l 1
 620 0 l 1
 210 0 l 2
 110 0 60 40 60 120 c 2
240 125 m 2
 240 112 248 105 265 105 c 2
 440 105 l 1
 440 385 l 1
 265 385 l 2
 248 385 240 378 240 365 c 2
 240 125 l 2
EndSplineSet
Validated: 1
EndChar

StartChar: Emacron
Encoding: 274 274 207
Width: 760
Flags: W
HStem: 0 120<270 710 270 710> 285 120<270 660 270 660> 540 120<270 710 270 270> 750 95<215 565 215 565>
VStem: 70 200<120 285 405 540> 215 350<750 845 750 845>
LayerCount: 2
Fore
SplineSet
70 0 m 1xf8
 70 660 l 1
 710 660 l 1
 710 540 l 1
 270 540 l 1
 270 405 l 1
 660 405 l 1
 660 285 l 1
 270 285 l 1
 270 120 l 1
 710 120 l 1
 710 0 l 1
 70 0 l 1xf8
215 750 m 1xf4
 215 845 l 1
 565 845 l 1
 565 750 l 1
 215 750 l 1xf4
EndSplineSet
Validated: 1
EndChar

StartChar: emacron
Encoding: 275 275 208
Width: 660
Flags: W
HStem: 0 105<160 580 265 580 265 580> 200 105<240 420 240 600 240 420> 385 105<256.5 265 265 395> 580 95<155 505 155 505>
VStem: 60 180<120 125 125 200 305 365> 155 350<580 675 580 675> 420 180<305 365 365 370 200 371.5>
LayerCount: 2
Fore
SplineSet
60 120 m 2xfa
 60 370 l 2
 60 450 110 490 210 490 c 2
 450 490 l 2
 550 490 600 450 600 370 c 2
 600 200 l 1
 240 200 l 1
 240 125 l 2
 240 112 248 105 265 105 c 2
 580 105 l 1
 580 0 l 1
 210 0 l 2
 110 0 60 40 60 120 c 2xfa
155 580 m 1xf4
 155 675 l 1
 505 675 l 1
 505 580 l 1
 155 580 l 1xf4
240 305 m 1xfa
 420 305 l 1
 420 365 l 2
 420 378 412 385 395 385 c 2
 265 385 l 2
 248 385 240 378 240 365 c 2
 240 305 l 1xfa
EndSplineSet
Validated: 1
EndChar

StartChar: Ebreve
Encoding: 276 276 209
Width: 760
Flags: W
HStem: 0 120<270 710 270 710> 285 120<270 660 270 660> 540 120<270 710 270 270> 720 65<295 430 350 430 430 435 350 455> 860 20<235 335 335 335 445 545 545 545>
VStem: 70 200<120 285 405 540> 235 100<793 797 797 880 793 880> 445 100<797 880 768 880>
LayerCount: 2
Fore
SplineSet
70 0 m 1xfd
 70 660 l 1
 710 660 l 1
 710 540 l 1
 270 540 l 1
 270 405 l 1
 660 405 l 1
 660 285 l 1
 270 285 l 1
 270 120 l 1
 710 120 l 1
 710 0 l 1
 70 0 l 1xfd
235 792 m 2xfb
 235 880 l 1
 335 880 l 1
 335 797 l 2
 335 789 340 785 350 785 c 2
 430 785 l 2
 440 785 445 789 445 797 c 2
 445 880 l 1
 545 880 l 1
 545 792 l 2
 545 744 515 720 455 720 c 2
 325 720 l 2
 265 720 235 744 235 792 c 2xfb
EndSplineSet
Validated: 1
EndChar

StartChar: ebreve
Encoding: 277 277 210
Width: 660
Flags: W
HStem: 0 105<160 580 265 580 265 580> 200 105<240 420 240 600 240 420> 385 105<256.5 265 265 395> 550 65<235 370 290 370 370 375 290 395> 690 20<175 275 275 275 385 485 485 485>
VStem: 60 180<120 125 125 200 305 365> 175 100<623 627 627 710 623 710> 385 100<627 710 598 710> 420 180<305 365 365 370 200 371.5>
LayerCount: 2
Fore
SplineSet
60 120 m 2xfc80
 60 370 l 2
 60 450 110 490 210 490 c 2
 450 490 l 2
 550 490 600 450 600 370 c 2
 600 200 l 1
 240 200 l 1
 240 125 l 2
 240 112 248 105 265 105 c 2
 580 105 l 1
 580 0 l 1
 210 0 l 2
 110 0 60 40 60 120 c 2xfc80
175 622 m 2xfb
 175 710 l 1
 275 710 l 1
 275 627 l 2
 275 619 280 615 290 615 c 2
 370 615 l 2
 380 615 385 619 385 627 c 2
 385 710 l 1
 485 710 l 1
 485 622 l 2
 485 574 455 550 395 550 c 2
 265 550 l 2
 205 550 175 574 175 622 c 2xfb
240 305 m 1xfc80
 420 305 l 1
 420 365 l 2
 420 378 412 385 395 385 c 2
 265 385 l 2
 248 385 240 378 240 365 c 2
 240 305 l 1xfc80
EndSplineSet
Validated: 1
EndChar

StartChar: Edotaccent
Encoding: 278 278 211
Width: 760
Flags: W
HStem: 0 120<270 710 270 710> 285 120<270 660 270 660> 540 120<270 710 270 270> 740 120<310 470 310 470>
VStem: 70 200<120 285 405 540> 310 160<740 860 740 860>
LayerCount: 2
Fore
SplineSet
70 0 m 1
 70 660 l 1
 710 660 l 1
 710 540 l 1
 270 540 l 1
 270 405 l 1
 660 405 l 1
 660 285 l 1
 270 285 l 1
 270 120 l 1
 710 120 l 1
 710 0 l 1
 70 0 l 1
310 740 m 1
 310 860 l 1
 470 860 l 1
 470 740 l 1
 310 740 l 1
EndSplineSet
Validated: 1
EndChar

StartChar: edotaccent
Encoding: 279 279 212
Width: 660
Flags: W
HStem: 0 105<160 580 265 580 265 580> 200 105<240 420 240 600 240 420> 385 105<256.5 265 265 395> 570 120<250 410 250 410>
VStem: 60 180<120 125 125 200 305 365> 250 160<570 690 570 690> 420 180<305 365 365 370 200 371.5>
LayerCount: 2
Fore
SplineSet
60 120 m 2
 60 370 l 2
 60 450 110 490 210 490 c 2
 450 490 l 2
 550 490 600 450 600 370 c 2
 600 200 l 1
 240 200 l 1
 240 125 l 2
 240 112 248 105 265 105 c 2
 580 105 l 1
 580 0 l 1
 210 0 l 2
 110 0 60 40 60 120 c 2
240 305 m 1
 420 305 l 1
 420 365 l 2
 420 378 412 385 395 385 c 2
 265 385 l 2
 248 385 240 378 240 365 c 2
 240 305 l 1
250 570 m 1
 250 690 l 1
 410 690 l 1
 410 570 l 1
 250 570 l 1
EndSplineSet
Validated: 1
EndChar

StartChar: Eogonek
Encoding: 280 280 213
Width: 760
Flags: W
HStem: -185 75<543.5 710 630 710 630 710> 0 120<270 460 616.5 630 630 710> 285 120<270 660 270 660> 540 120<270 710 270 270>
VStem: 70 200<120 285 405 540> 460 130<-85 -78 -78 -32 -88.5 0 -88.5 0>
LayerCount: 2
Fore
SplineSet
70 0 m 1
 70 660 l 1
 710 660 l 1
 710 540 l 1
 270 540 l 1
 270 405 l 1
 660 405 l 1
 660 285 l 1
 270 285 l 1
 270 120 l 1
 710 120 l 1
 710 0 l 1
 630 0 l 2
 603 0 590 -11 590 -32 c 2
 590 -78 l 2
 590 -99 603 -110 630 -110 c 2
 710 -110 l 1
 710 -185 l 1
 585 -185 l 2
 502 -185 460 -152 460 -85 c 2
 460 0 l 1
 70 0 l 1
EndSplineSet
Validated: 1
EndChar

StartChar: eogonek
Encoding: 281 281 214
Width: 660
Flags: W
HStem: -185 75<413.5 580 500 580 500 580> 0 105<160 580 265 330 486.5 500 500 580> 200 105<240 420 240 600 240 420> 385 105<256.5 265 265 395>
VStem: 60 180<120 125 125 200 305 365> 330 130<-85 -78 -78 -32 -88.5 0 -88.5 0> 420 180<305 365 365 370 200 371.5>
LayerCount: 2
Fore
SplineSet
60 120 m 2xfc
 60 370 l 2
 60 450 110 490 210 490 c 2
 450 490 l 2
 550 490 600 450 600 370 c 2
 600 200 l 1xfa
 240 200 l 1
 240 125 l 2
 240 112 248 105 265 105 c 2
 580 105 l 1
 580 0 l 1
 500 0 l 2
 473 0 460 -11 460 -32 c 2
 460 -78 l 2
 460 -99 473 -110 500 -110 c 2
 580 -110 l 1
 580 -185 l 1
 455 -185 l 2
 372 -185 330 -152 330 -85 c 2
 330 0 l 1
 210 0 l 2
 110 0 60 40 60 120 c 2xfc
240 305 m 1
 420 305 l 1
 420 365 l 2
 420 378 412 385 395 385 c 2
 265 385 l 2
 248 385 240 378 240 365 c 2
 240 305 l 1
EndSplineSet
Validated: 1
EndChar

StartChar: Ecaron
Encoding: 282 282 215
Width: 760
Flags: W
HStem: 0 120<270 710 270 710> 285 120<270 660 270 660> 540 120<270 710 270 270> 720 160<325 327 453 455 325 325>
VStem: 70 200<120 285 405 540>
LayerCount: 2
Fore
SplineSet
70 0 m 1
 70 660 l 1
 710 660 l 1
 710 540 l 1
 270 540 l 1
 270 405 l 1
 660 405 l 1
 660 285 l 1
 270 285 l 1
 270 120 l 1
 710 120 l 1
 710 0 l 1
 70 0 l 1
200 880 m 1
 327 880 l 1
 390 805 l 1
 453 880 l 1
 580 880 l 1
 455 720 l 1
 325 720 l 1
 200 880 l 1
EndSplineSet
Validated: 1
EndChar

StartChar: ecaron
Encoding: 283 283 216
Width: 660
Flags: W
HStem: 0 105<160 580 265 580 265 580> 200 105<240 420 240 600 240 420> 385 105<256.5 265 265 395> 550 160<265 267 393 395 265 265>
VStem: 60 180<120 125 125 200 305 365> 420 180<305 365 365 370 200 371.5>
LayerCount: 2
Fore
SplineSet
60 120 m 2
 60 370 l 2
 60 450 110 490 210 490 c 2
 450 490 l 2
 550 490 600 450 600 370 c 2
 600 200 l 1
 240 200 l 1
 240 125 l 2
 240 112 248 105 265 105 c 2
 580 105 l 1
 580 0 l 1
 210 0 l 2
 110 0 60 40 60 120 c 2
140 710 m 1
 267 710 l 1
 330 635 l 1
 393 710 l 1
 520 710 l 1
 395 550 l 1
 265 550 l 1
 140 710 l 1
240 305 m 1
 420 305 l 1
 420 365 l 2
 420 378 412 385 395 385 c 2
 265 385 l 2
 248 385 240 378 240 365 c 2
 240 305 l 1
EndSplineSet
Validated: 1
EndChar

StartChar: Gcircumflex
Encoding: 284 284 217
Width: 820
Flags: W
HStem: 0 120<183.5 550 305 550 305 750> 290 120<420 550 420 750> 540 120<293.5 305 305 710> 720 160<220 475 345 347 473 473 473 475 345 600>
VStem: 70 200<138.5 148 148 512> 550 200<120 290 290 290>
LayerCount: 2
Fore
SplineSet
70 136 m 2
 70 524 l 2
 70 615 127 660 240 660 c 2
 710 660 l 1
 710 540 l 1
 305 540 l 2
 282 540 270 531 270 512 c 2
 270 148 l 2
 270 129 282 120 305 120 c 2
 550 120 l 1
 550 290 l 1
 420 290 l 1
 420 410 l 1
 750 410 l 1
 750 0 l 1
 240 0 l 2
 127 0 70 45 70 136 c 2
220 720 m 1
 345 880 l 1
 475 880 l 1
 600 720 l 1
 473 720 l 1
 410 795 l 1
 347 720 l 1
 220 720 l 1
EndSplineSet
Validated: 1
EndChar

StartChar: gcircumflex
Encoding: 285 285 218
Width: 680
Flags: W
HStem: -210 105<80 400 400 413.5 80 470 80 400> 0 105<160 440 265 440 265 440> 385 105<256.5 265 265 440> 550 160<150 405 275 277 403 403 403 405 275 530>
VStem: 60 180<120 125 125 365> 440 180<-73 0 0 0 105 385 385 385>
LayerCount: 2
Fore
SplineSet
60 120 m 2
 60 370 l 2
 60 450 110 490 210 490 c 2
 620 490 l 1
 620 -90 l 2
 620 -170 570 -210 470 -210 c 2
 80 -210 l 1
 80 -105 l 1
 400 -105 l 2
 427 -105 440 -94 440 -73 c 2
 440 0 l 1
 210 0 l 2
 110 0 60 40 60 120 c 2
150 550 m 1
 275 710 l 1
 405 710 l 1
 530 550 l 1
 403 550 l 1
 340 625 l 1
 277 550 l 1
 150 550 l 1
240 125 m 2
 240 112 248 105 265 105 c 2
 440 105 l 1
 440 385 l 1
 265 385 l 2
 248 385 240 378 240 365 c 2
 240 125 l 2
EndSplineSet
Validated: 1
EndChar

StartChar: Gbreve
Encoding: 286 286 219
Width: 820
Flags: W
HStem: 0 120<183.5 550 305 550 305 750> 290 120<420 550 420 750> 540 120<293.5 305 305 710> 720 65<315 450 370 450 450 455 370 475> 860 20<255 355 355 355 465 565 565 565>
VStem: 70 200<138.5 148 148 512> 255 100<793 797 797 880 793 880> 465 100<797 880 768 880> 550 200<120 290 290 290>
LayerCount: 2
Fore
SplineSet
70 136 m 2xfc80
 70 524 l 2
 70 615 127 660 240 660 c 2
 710 660 l 1
 710 540 l 1
 305 540 l 2
 282 540 270 531 270 512 c 2
 270 148 l 2
 270 129 282 120 305 120 c 2
 550 120 l 1
 550 290 l 1
 420 290 l 1
 420 410 l 1
 750 410 l 1
 750 0 l 1
 240 0 l 2
 127 0 70 45 70 136 c 2xfc80
255 792 m 2xfb
 255 880 l 1
 355 880 l 1
 355 797 l 2
 355 789 360 785 370 785 c 2
 450 785 l 2
 460 785 465 789 465 797 c 2
 465 880 l 1
 565 880 l 1
 565 792 l 2
 565 744 535 720 475 720 c 2
 345 720 l 2
 285 720 255 744 255 792 c 2xfb
EndSplineSet
Validated: 1
EndChar

StartChar: gbreve
Encoding: 287 287 220
Width: 680
Flags: W
HStem: -210 105<80 400 400 413.5 80 470 80 400> 0 105<160 440 265 440 265 440> 385 105<256.5 265 265 440> 550 65<245 380 300 380 380 385 300 405> 690 20<185 285 285 285 395 495 495 495>
VStem: 60 180<120 125 125 365> 185 100<623 627 627 710 623 710> 395 100<627 710 598 710> 440 180<-73 0 0 0 105 385 385 385>
LayerCount: 2
Fore
SplineSet
60 120 m 2xfc80
 60 370 l 2
 60 450 110 490 210 490 c 2
 620 490 l 1
 620 -90 l 2
 620 -170 570 -210 470 -210 c 2
 80 -210 l 1
 80 -105 l 1
 400 -105 l 2
 427 -105 440 -94 440 -73 c 2
 440 0 l 1
 210 0 l 2
 110 0 60 40 60 120 c 2xfc80
185 622 m 2xfb
 185 710 l 1
 285 710 l 1
 285 627 l 2
 285 619 290 615 300 615 c 2
 380 615 l 2
 390 615 395 619 395 627 c 2
 395 710 l 1
 495 710 l 1
 495 622 l 2
 495 574 465 550 405 550 c 2
 275 550 l 2
 215 550 185 574 185 622 c 2xfb
240 125 m 2xfc80
 240 112 248 105 265 105 c 2
 440 105 l 1
 440 385 l 1
 265 385 l 2
 248 385 240 378 240 365 c 2
 240 125 l 2xfc80
EndSplineSet
Validated: 1
EndChar

StartChar: Gdotaccent
Encoding: 288 288 221
Width: 820
Flags: W
HStem: 0 120<183.5 550 305 550 305 750> 290 120<420 550 420 750> 540 120<293.5 305 305 710> 740 120<330 490 330 490>
VStem: 70 200<138.5 148 148 512> 330 160<740 860 740 860> 550 200<120 290 290 290>
LayerCount: 2
Fore
SplineSet
70 136 m 2
 70 524 l 2
 70 615 127 660 240 660 c 2
 710 660 l 1
 710 540 l 1
 305 540 l 2
 282 540 270 531 270 512 c 2
 270 148 l 2
 270 129 282 120 305 120 c 2
 550 120 l 1
 550 290 l 1
 420 290 l 1
 420 410 l 1
 750 410 l 1
 750 0 l 1
 240 0 l 2
 127 0 70 45 70 136 c 2
330 740 m 1
 330 860 l 1
 490 860 l 1
 490 740 l 1
 330 740 l 1
EndSplineSet
Validated: 1
EndChar

StartChar: gdotaccent
Encoding: 289 289 222
Width: 680
Flags: W
HStem: -210 105<80 400 400 413.5 80 470 80 400> 0 105<160 440 265 440 265 440> 385 105<256.5 265 265 440> 570 120<260 420 260 420>
VStem: 60 180<120 125 125 365> 260 160<570 690 570 690> 440 180<-73 0 0 0 105 385 385 385>
LayerCount: 2
Fore
SplineSet
60 120 m 2
 60 370 l 2
 60 450 110 490 210 490 c 2
 620 490 l 1
 620 -90 l 2
 620 -170 570 -210 470 -210 c 2
 80 -210 l 1
 80 -105 l 1
 400 -105 l 2
 427 -105 440 -94 440 -73 c 2
 440 0 l 1
 210 0 l 2
 110 0 60 40 60 120 c 2
240 125 m 2
 240 112 248 105 265 105 c 2
 440 105 l 1
 440 385 l 1
 265 385 l 2
 248 385 240 378 240 365 c 2
 240 125 l 2
260 570 m 1
 260 690 l 1
 420 690 l 1
 420 570 l 1
 260 570 l 1
EndSplineSet
Validated: 1
EndChar

StartChar: uni0122
Encoding: 290 290 223
Width: 820
Flags: W
HStem: -210 160<340 515 375 450> 0 120<183.5 550 305 550 305 750> 290 120<420 550 420 750> 540 120<293.5 305 305 710>
VStem: 70 200<138.5 148 148 512> 550 200<120 290 290 290>
LayerCount: 2
Fore
SplineSet
70 136 m 2
 70 524 l 2
 70 615 127 660 240 660 c 2
 710 660 l 1
 710 540 l 1
 305 540 l 2
 282 540 270 531 270 512 c 2
 270 148 l 2
 270 129 282 120 305 120 c 2
 550 120 l 1
 550 290 l 1
 420 290 l 1
 420 410 l 1
 750 410 l 1
 750 0 l 1
 240 0 l 2
 127 0 70 45 70 136 c 2
340 -210 m 1
 375 -50 l 1
 515 -50 l 1
 450 -210 l 1
 340 -210 l 1
EndSplineSet
Validated: 1
EndChar

StartChar: uni0123
Encoding: 291 291 224
Width: 680
Flags: W
HStem: -210 105<80 400 400 413.5 80 470 80 400> 0 105<160 440 265 440 265 440> 385 105<256.5 265 265 440> 550 160<275 450 340 415>
VStem: 60 180<120 125 125 365> 440 180<-73 0 0 0 105 385 385 385>
LayerCount: 2
Fore
SplineSet
60 120 m 2
 60 370 l 2
 60 450 110 490 210 490 c 2
 620 490 l 1
 620 -90 l 2
 620 -170 570 -210 470 -210 c 2
 80 -210 l 1
 80 -105 l 1
 400 -105 l 2
 427 -105 440 -94 440 -73 c 2
 440 0 l 1
 210 0 l 2
 110 0 60 40 60 120 c 2
240 125 m 2
 240 112 248 105 265 105 c 2
 440 105 l 1
 440 385 l 1
 265 385 l 2
 248 385 240 378 240 365 c 2
 240 125 l 2
275 550 m 1
 340 710 l 1
 450 710 l 1
 415 550 l 1
 275 550 l 1
EndSplineSet
Validated: 1
EndChar

StartChar: Hcircumflex
Encoding: 292 292 225
Width: 830
Flags: W
HStem: 0 21<70 70 70 270 560 560 560 760> 285 120<270 560 270 560> 640 20<70 270 270 270 560 760 760 760> 720 160<225 480 350 352 478 478 478 480 350 605>
VStem: 70 200<0 285 405 660> 560 200<0 285 285 285 405 660 0 660>
LayerCount: 2
Fore
SplineSet
70 0 m 1
 70 660 l 1
 270 660 l 1
 270 405 l 1
 560 405 l 1
 560 660 l 1
 760 660 l 1
 760 0 l 1
 560 0 l 1
 560 285 l 1
 270 285 l 1
 270 0 l 1
 70 0 l 1
225 720 m 1
 350 880 l 1
 480 880 l 1
 605 720 l 1
 478 720 l 1
 415 795 l 1
 352 720 l 1
 225 720 l 1
EndSplineSet
Validated: 1
EndChar

StartChar: hcircumflex
Encoding: 293 293 226
Width: 680
Flags: W
HStem: 0 21<60 60 60 240 440 440 440 620> 385 105<240 415 240 470> 640 20<60 240 240 240> 720 160<150 405 275 277 403 403 403 405 275 530>
VStem: 60 180<0 385 490 660> 440 180<0 365 365 370 0 371.5>
LayerCount: 2
Fore
SplineSet
60 0 m 1
 60 660 l 1
 240 660 l 1
 240 490 l 1
 470 490 l 2
 570 490 620 450 620 370 c 2
 620 0 l 1
 440 0 l 1
 440 365 l 2
 440 378 432 385 415 385 c 2
 240 385 l 1
 240 0 l 1
 60 0 l 1
150 720 m 1
 275 880 l 1
 405 880 l 1
 530 720 l 1
 403 720 l 1
 340 795 l 1
 277 720 l 1
 150 720 l 1
EndSplineSet
Validated: 1
EndChar

StartChar: Hbar
Encoding: 294 294 227
Width: 870
Flags: W
HStem: 0 21G<90 290 90 90 580 780 580 580> 285 120<290 580 290 580> 485 100<10 90 10 90 290 580 780 860> 640 20G<90 290 290 290 580 780 780 780>
VStem: 90 200<0 285 405 485 585 660> 580 200<0 285 285 285 405 485 0 485 585 660 0 660>
LayerCount: 2
Fore
SplineSet
10 485 m 1
 10 585 l 1
 90 585 l 1
 90 660 l 1
 290 660 l 1
 290 585 l 1
 580 585 l 1
 580 660 l 1
 780 660 l 1
 780 585 l 1
 860 585 l 1
 860 485 l 1
 780 485 l 1
 780 0 l 1
 580 0 l 1
 580 285 l 1
 290 285 l 1
 290 0 l 1
 90 0 l 1
 90 485 l 1
 10 485 l 1
290 405 m 1
 580 405 l 1
 580 485 l 1
 290 485 l 1
 290 405 l 1
EndSplineSet
Validated: 1
EndChar

StartChar: hbar
Encoding: 295 295 228
Width: 700
Flags: W
HStem: 0 21G<80 260 80 80 460 640 460 460> 385 105<260 435 260 490> 535 80<10 80 10 80 260 440> 640 20G<80 260 260 260>
VStem: 80 180<0 385 490 535 0 535 0 535 615 660> 460 180<0 365 365 370 0 371.5>
LayerCount: 2
Fore
SplineSet
10 535 m 1
 10 615 l 1
 80 615 l 1
 80 660 l 1
 260 660 l 1
 260 615 l 1
 440 615 l 1
 440 535 l 1
 260 535 l 1
 260 490 l 1
 490 490 l 2
 590 490 640 450 640 370 c 2
 640 0 l 1
 460 0 l 1
 460 365 l 2
 460 378 452 385 435 385 c 2
 260 385 l 1
 260 0 l 1
 80 0 l 1
 80 535 l 1
 10 535 l 1
EndSplineSet
Validated: 1
EndChar

StartChar: Itilde
Encoding: 296 296 229
Width: 340
Flags: W
HStem: 0 21<70 70 70 270> 640 20<70 270 270 270> 720 98<221 229 221 237.5> 782 98<111 119>
VStem: 70 200<0 660 0 660>
LayerCount: 2
Fore
SplineSet
-20 785 m 1xe8
 45 850 l 2
 65 870 90 880 115 880 c 0xd8
 140 880 165 870 185 850 c 2
 205 830 l 2
 213 822 217 818 225 818 c 0xe8
 233 818 237 822 245 830 c 2
 295 880 l 1xd8
 360 815 l 1
 295 750 l 2
 275 730 250 720 225 720 c 0xe8
 200 720 175 730 155 750 c 2
 135 770 l 2
 127 778 123 782 115 782 c 0xd8
 107 782 103 778 95 770 c 2
 45 720 l 1
 -20 785 l 1xe8
70 0 m 1
 70 660 l 1
 270 660 l 1
 270 0 l 1
 70 0 l 1
EndSplineSet
Validated: 1
EndChar

StartChar: itilde
Encoding: 297 297 230
Width: 320
Flags: W
HStem: 0 21<70 70 70 250> 470 20<70 250 250 250> 550 98<211 219 211 227.5> 612 98<101 109>
VStem: 70 180<0 490 0 490>
LayerCount: 2
Fore
SplineSet
-30 615 m 1xe8
 35 680 l 2
 55 700 80 710 105 710 c 0xd8
 130 710 155 700 175 680 c 2
 195 660 l 2
 203 652 207 648 215 648 c 0xe8
 223 648 227 652 235 660 c 2
 285 710 l 1xd8
 350 645 l 1
 285 580 l 2
 265 560 240 550 215 550 c 0xe8
 190 550 165 560 145 580 c 2
 125 600 l 2
 117 608 113 612 105 612 c 0xd8
 97 612 93 608 85 600 c 2
 35 550 l 1
 -30 615 l 1xe8
70 0 m 1
 70 490 l 1
 250 490 l 1
 250 0 l 1
 70 0 l 1
EndSplineSet
Validated: 1
EndChar

StartChar: Imacron
Encoding: 298 298 231
Width: 340
Flags: W
HStem: 0 21<70 70 70 270> 640 20<70 270 270 270> 750 95<-5 345 -5 345>
VStem: -5 350<750 845 750 845> 70 200<0 660 0 660>
LayerCount: 2
Fore
SplineSet
-5 750 m 1xf0
 -5 845 l 1
 345 845 l 1
 345 750 l 1
 -5 750 l 1xf0
70 0 m 1xe8
 70 660 l 1
 270 660 l 1
 270 0 l 1
 70 0 l 1xe8
EndSplineSet
Validated: 1
EndChar

StartChar: imacron
Encoding: 299 299 232
Width: 320
Flags: W
HStem: 0 21<70 70 70 250> 470 20<70 250 250 250> 580 95<-15 335 -15 335>
VStem: -15 350<580 675 580 675> 70 180<0 490 0 490>
LayerCount: 2
Fore
SplineSet
-15 580 m 1xf0
 -15 675 l 1
 335 675 l 1
 335 580 l 1
 -15 580 l 1xf0
70 0 m 1xe8
 70 490 l 1
 250 490 l 1
 250 0 l 1
 70 0 l 1xe8
EndSplineSet
Validated: 1
EndChar

StartChar: Ibreve
Encoding: 300 300 233
Width: 340
Flags: W
HStem: 0 21<70 70 70 270> 640 20<70 270 270 270> 720 65<75 210 130 210 210 215 130 235> 860 20<15 115 115 115 225 325 325 325>
VStem: 15 100<793 797 797 880 793 880> 70 200<0 660 0 660> 225 100<797 880 768 880>
LayerCount: 2
Fore
SplineSet
15 792 m 2xfa
 15 880 l 1
 115 880 l 1
 115 797 l 2
 115 789 120 785 130 785 c 2
 210 785 l 2
 220 785 225 789 225 797 c 2
 225 880 l 1
 325 880 l 1
 325 792 l 2
 325 744 295 720 235 720 c 2
 105 720 l 2
 45 720 15 744 15 792 c 2xfa
70 0 m 1xf4
 70 660 l 1
 270 660 l 1
 270 0 l 1
 70 0 l 1xf4
EndSplineSet
Validated: 1
EndChar

StartChar: ibreve
Encoding: 301 301 234
Width: 320
Flags: W
HStem: 0 21<70 70 70 250> 470 20<70 250 250 250> 550 65<65 200 120 200 200 205 120 225> 690 20<5 105 105 105 215 315 315 315>
VStem: 5 100<623 627 627 710 623 710> 70 180<0 490 0 490> 215 100<627 710 598 710>
LayerCount: 2
Fore
SplineSet
5 622 m 2xfa
 5 710 l 1
 105 710 l 1
 105 627 l 2
 105 619 110 615 120 615 c 2
 200 615 l 2
 210 615 215 619 215 627 c 2
 215 710 l 1
 315 710 l 1
 315 622 l 2
 315 574 285 550 225 550 c 2
 95 550 l 2
 35 550 5 574 5 622 c 2xfa
70 0 m 1xf4
 70 490 l 1
 250 490 l 1
 250 0 l 1
 70 0 l 1xf4
EndSplineSet
Validated: 1
EndChar

StartChar: Iogonek
Encoding: 302 302 235
Width: 340
Flags: W
HStem: -185 75<108.5 275 195 275 195 275> 0 21<25 25 181.5 195 195 270> 640 20<70 270 270 270>
VStem: 25 130<-85 -78 -78 -32 -88.5 0 -88.5 12.5> 70 200<65 660 0 660>
LayerCount: 2
Fore
SplineSet
25 0 m 2xf0
 25 25 42 53 70 65 c 1
 70 660 l 1
 270 660 l 1
 270 0 l 1xe8
 195 0 l 2
 168 0 155 -11 155 -32 c 2
 155 -78 l 2
 155 -99 168 -110 195 -110 c 2
 275 -110 l 1
 275 -185 l 1
 150 -185 l 2
 67 -185 25 -152 25 -85 c 2
 25 0 l 2xf0
EndSplineSet
Validated: 1
EndChar

StartChar: iogonek
Encoding: 303 303 236
Width: 300
Flags: W
HStem: -185 75<98.5 265 185 265 185 265> 0 21<15 15 171.5 185 185 240> 470 20<60 240 240 240> 560 100<60 240 60 240>
VStem: 15 130<-85 -78 -78 -32 -88.5 0 -88.5 12.5> 60 180<65 490 0 490 560 660 0 660>
LayerCount: 2
Fore
SplineSet
15 0 m 2xf8
 15 25 32 53 60 65 c 1
 60 490 l 1
 240 490 l 1
 240 0 l 1xf4
 185 0 l 2
 158 0 145 -11 145 -32 c 2
 145 -78 l 2
 145 -99 158 -110 185 -110 c 2
 265 -110 l 1
 265 -185 l 1
 140 -185 l 2
 57 -185 15 -152 15 -85 c 2
 15 0 l 2xf8
60 560 m 1
 60 660 l 1
 240 660 l 1
 240 560 l 1
 60 560 l 1
EndSplineSet
Validated: 1
EndChar

StartChar: Idotaccent
Encoding: 304 304 237
Width: 340
Flags: W
HStem: 0 21<70 70 70 270> 640 20<70 270 270 270> 740 120<90 250 90 250>
VStem: 70 200<0 660 0 660> 90 160<740 860 740 860>
LayerCount: 2
Fore
SplineSet
70 0 m 1xf0
 70 660 l 1
 270 660 l 1
 270 0 l 1
 70 0 l 1xf0
90 740 m 1xe8
 90 860 l 1
 250 860 l 1
 250 740 l 1
 90 740 l 1xe8
EndSplineSet
Validated: 1
EndChar

StartChar: dotlessi
Encoding: 305 305 238
Width: 300
Flags: W
HStem: 0 21G<60 60 60 240> 470 20G<60 240 240 240>
VStem: 60 180<0 490 0 490>
LayerCount: 2
Fore
SplineSet
60 0 m 1
 60 490 l 1
 240 490 l 1
 240 0 l 1
 60 0 l 1
EndSplineSet
Validated: 1
EndChar

StartChar: IJ
Encoding: 306 306 239
Width: 1090
Flags: W
HStem: 0 120<513.5 785 650 785 785 796.5 650 850> 275 20<380 580 580 580> 640 20<70 270 270 270 820 1020 1020 1020>
VStem: 70 200<0 660 0 660> 380 200<160 176 176 295> 820 200<148 660>
LayerCount: 2
Fore
SplineSet
70 0 m 1
 70 660 l 1
 270 660 l 1
 270 0 l 1
 70 0 l 1
380 160 m 2
 380 295 l 1
 580 295 l 1
 580 176 l 2
 580 139 603 120 650 120 c 2
 785 120 l 2
 808 120 820 129 820 148 c 2
 820 660 l 1
 1020 660 l 1
 1020 136 l 2
 1020 45 963 0 850 0 c 2
 580 0 l 2
 447 0 380 53 380 160 c 2
EndSplineSet
Validated: 1
EndChar

StartChar: ij
Encoding: 307 307 240
Width: 600
Flags: W
HStem: -210 105<250 320 320 333.5 250 390 250 320> 0 21<60 60 60 240> 470 20<60 240 240 240 360 540 540 540> 560 100<60 240 60 240 360 540>
VStem: 60 180<0 490 0 490 560 660 0 660> 360 180<-73 490 560 660>
LayerCount: 2
Fore
SplineSet
60 0 m 1
 60 490 l 1
 240 490 l 1
 240 0 l 1
 60 0 l 1
60 560 m 1
 60 660 l 1
 240 660 l 1
 240 560 l 1
 60 560 l 1
250 -105 m 1
 320 -105 l 2
 347 -105 360 -94 360 -73 c 2
 360 490 l 1
 540 490 l 1
 540 -90 l 2
 540 -170 490 -210 390 -210 c 2
 250 -210 l 1
 250 -105 l 1
360 560 m 1
 360 660 l 1
 540 660 l 1
 540 560 l 1
 360 560 l 1
EndSplineSet
Validated: 1
EndChar

StartChar: Jcircumflex
Encoding: 308 308 241
Width: 750
Flags: W
HStem: 0 120<173.5 445 310 445 445 456.5 310 510> 275 20<40 240 240 240> 640 20<480 680 680 680> 720 160<390 645 515 517 643 643 643 645 515 770>
VStem: 40 200<160 176 176 295> 480 200<148 660>
LayerCount: 2
Fore
SplineSet
40 160 m 2
 40 295 l 1
 240 295 l 1
 240 176 l 2
 240 139 263 120 310 120 c 2
 445 120 l 2
 468 120 480 129 480 148 c 2
 480 660 l 1
 680 660 l 1
 680 136 l 2
 680 45 623 0 510 0 c 2
 240 0 l 2
 107 0 40 53 40 160 c 2
390 720 m 1
 515 880 l 1
 645 880 l 1
 770 720 l 1
 643 720 l 1
 580 795 l 1
 517 720 l 1
 390 720 l 1
EndSplineSet
Validated: 1
EndChar

StartChar: jcircumflex
Encoding: 309 309 242
Width: 320
Flags: W
HStem: -210 105<-40 30 30 43.5 -40 100 -40 30> 470 20<70 250 250 250> 550 160<-30 225 95 97 223 223 223 225 95 350>
VStem: 70 180<-73 490>
LayerCount: 2
Fore
SplineSet
-40 -105 m 1
 30 -105 l 2
 57 -105 70 -94 70 -73 c 2
 70 490 l 1
 250 490 l 1
 250 -90 l 2
 250 -170 200 -210 100 -210 c 2
 -40 -210 l 1
 -40 -105 l 1
-30 550 m 1
 95 710 l 1
 225 710 l 1
 350 550 l 1
 223 550 l 1
 160 625 l 1
 97 550 l 1
 -30 550 l 1
EndSplineSet
Validated: 1
EndChar

StartChar: uni0136
Encoding: 310 310 243
Width: 800
Flags: W
HStem: -210 160<305 480 340 415> 0 21<70 70 70 270 566 566 566 790> 640 20<70 270 270 270 535 780 780 780>
VStem: 70 200<0 169 405 660>
LayerCount: 2
Fore
SplineSet
70 0 m 1
 70 660 l 1
 270 660 l 1
 270 405 l 1
 535 660 l 1
 780 660 l 1
 497 387 l 1
 790 0 l 1
 566 0 l 1
 367 263 l 1
 270 169 l 1
 270 0 l 1
 70 0 l 1
305 -210 m 1
 340 -50 l 1
 480 -50 l 1
 415 -210 l 1
 305 -210 l 1
EndSplineSet
Validated: 1
EndChar

StartChar: uni0137
Encoding: 311 311 244
Width: 660
Flags: W
HStem: -210 160<235 410 270 345> 0 21<60 60 60 240 455 455 455 650> 470 20<425 640 640 640> 640 20<60 240 240 240>
VStem: 60 180<0 101 310 660>
LayerCount: 2
Fore
SplineSet
60 0 m 1
 60 660 l 1
 240 660 l 1
 240 310 l 1
 425 490 l 1
 640 490 l 1
 429 285 l 1
 650 0 l 1
 455 0 l 1
 318 177 l 1
 240 101 l 1
 240 0 l 1
 60 0 l 1
235 -210 m 1
 270 -50 l 1
 410 -50 l 1
 345 -210 l 1
 235 -210 l 1
EndSplineSet
Validated: 1
EndChar

StartChar: kgreenlandic
Encoding: 312 312 245
Width: 660
Flags: W
HStem: 0 21<60 60 60 240 455 455 455 650> 470 20<60 240 240 240 425 640 640 640>
VStem: 60 180<0 101 310 490>
LayerCount: 2
Fore
SplineSet
60 0 m 1
 60 490 l 1
 240 490 l 1
 240 310 l 1
 425 490 l 1
 640 490 l 1
 429 285 l 1
 650 0 l 1
 455 0 l 1
 318 177 l 1
 240 101 l 1
 240 0 l 1
 60 0 l 1
EndSplineSet
Validated: 1
EndChar

StartChar: Lacute
Encoding: 313 313 246
Width: 700
Flags: W
HStem: 0 120<270 680 270 680> 640 20<70 270 270 270> 720 160<80 350 190 210>
VStem: 70 200<120 660 120 660 120 660>
LayerCount: 2
Fore
SplineSet
70 0 m 1
 70 660 l 1
 270 660 l 1
 270 120 l 1
 680 120 l 1
 680 0 l 1
 70 0 l 1
80 720 m 1
 190 880 l 1
 350 880 l 1
 210 720 l 1
 80 720 l 1
EndSplineSet
Validated: 1
EndChar

StartChar: lacute
Encoding: 314 314 247
Width: 300
Flags: W
HStem: 0 21<60 60 60 240> 640 20<60 240 240 240> 720 160<50 320 160 180>
VStem: 60 180<0 660 0 660>
LayerCount: 2
Fore
SplineSet
50 720 m 1
 160 880 l 1
 320 880 l 1
 180 720 l 1
 50 720 l 1
60 0 m 1
 60 660 l 1
 240 660 l 1
 240 0 l 1
 60 0 l 1
EndSplineSet
Validated: 1
EndChar

StartChar: uni013B
Encoding: 315 315 248
Width: 700
Flags: W
HStem: -210 160<310 485 345 420> 0 120<270 680 270 680> 640 20<70 270 270 270>
VStem: 70 200<120 660 120 660 120 660>
LayerCount: 2
Fore
SplineSet
70 0 m 1
 70 660 l 1
 270 660 l 1
 270 120 l 1
 680 120 l 1
 680 0 l 1
 70 0 l 1
310 -210 m 1
 345 -50 l 1
 485 -50 l 1
 420 -210 l 1
 310 -210 l 1
EndSplineSet
Validated: 1
EndChar

StartChar: uni013C
Encoding: 316 316 249
Width: 300
Flags: W
HStem: -210 160<45 220 80 155> 0 21<60 60 60 240> 640 20<60 240 240 240>
VStem: 60 180<0 660 0 660>
LayerCount: 2
Fore
SplineSet
45 -210 m 1
 80 -50 l 1
 220 -50 l 1
 155 -210 l 1
 45 -210 l 1
60 0 m 1
 60 660 l 1
 240 660 l 1
 240 0 l 1
 60 0 l 1
EndSplineSet
Validated: 1
EndChar

StartChar: Lcaron
Encoding: 317 317 250
Width: 700
Flags: W
HStem: 0 120<270 680 270 680> 500 160<70 370 405 480>
VStem: 70 200<120 660 120 660 120 660>
LayerCount: 2
Fore
SplineSet
70 0 m 1
 70 660 l 1
 270 660 l 1
 270 120 l 1
 680 120 l 1
 680 0 l 1
 70 0 l 1
370 500 m 1
 405 660 l 1
 545 660 l 1
 480 500 l 1
 370 500 l 1
EndSplineSet
Validated: 1
EndChar

StartChar: lcaron
Encoding: 318 318 251
Width: 440
Flags: W
HStem: 0 21<60 60 60 240> 500 160<60 280 315 390>
VStem: 60 180<0 660 0 660>
LayerCount: 2
Fore
SplineSet
60 0 m 1
 60 660 l 1
 240 660 l 1
 240 0 l 1
 60 0 l 1
280 500 m 1
 315 660 l 1
 455 660 l 1
 390 500 l 1
 280 500 l 1
EndSplineSet
Validated: 1
EndChar

StartChar: Ldot
Encoding: 319 319 252
Width: 700
Flags: W
HStem: 0 120<270 680 270 680> 300 120<415 575 415 575> 640 20<70 270 270 270>
VStem: 70 200<120 660 120 660 120 660> 415 160<300 420 300 420>
LayerCount: 2
Fore
SplineSet
70 0 m 1
 70 660 l 1
 270 660 l 1
 270 120 l 1
 680 120 l 1
 680 0 l 1
 70 0 l 1
415 300 m 1
 415 420 l 1
 575 420 l 1
 575 300 l 1
 415 300 l 1
EndSplineSet
Validated: 1
EndChar

StartChar: ldot
Encoding: 320 320 253
Width: 520
Flags: W
HStem: 0 21<60 60 60 240> 305 120<330 490 330 490> 640 20<60 240 240 240>
VStem: 60 180<0 660 0 660> 330 160<305 425 305 425>
LayerCount: 2
Fore
SplineSet
60 0 m 1
 60 660 l 1
 240 660 l 1
 240 0 l 1
 60 0 l 1
330 305 m 1
 330 425 l 1
 490 425 l 1
 490 305 l 1
 330 305 l 1
EndSplineSet
Validated: 1
EndChar

StartChar: Lslash
Encoding: 321 321 254
Width: 760
Flags: W
HStem: 0 120<310 740 310 740> 640 20G<110 310 310 310>
VStem: 110 200<120 206 206 206 423 660>
LayerCount: 2
Fore
SplineSet
0 268 m 1
 110 323 l 1
 110 660 l 1
 310 660 l 1
 310 423 l 1
 453 494 l 1
 500 400 l 1
 310 305 l 1
 310 120 l 1
 740 120 l 1
 740 0 l 1
 110 0 l 1
 110 206 l 1
 47 174 l 1
 0 268 l 1
EndSplineSet
Validated: 1
EndChar

StartChar: lslash
Encoding: 322 322 255
Width: 400
Flags: W
HStem: 0 21G<110 290 110 110> 640 20G<110 290 290 290>
VStem: 110 180<0 243 243 243 431 660>
LayerCount: 2
Fore
SplineSet
0 290 m 1
 110 344 l 1
 110 660 l 1
 290 660 l 1
 290 431 l 1
 361 466 l 1
 400 385 l 1
 290 331 l 1
 290 0 l 1
 110 0 l 1
 110 243 l 1
 39 209 l 1
 0 290 l 1
EndSplineSet
Validated: 1
EndChar

StartChar: Nacute
Encoding: 323 323 256
Width: 840
Flags: W
HStem: 0 21<70 70 70 270 555 555 555 770> 640 20<70 285 285 285 570 770 770 770> 720 160<325 595 435 455>
VStem: 70 200<0 396 0 660> 570 200<264 660 0 660>
LayerCount: 2
Fore
SplineSet
70 0 m 1
 70 660 l 1
 285 660 l 1
 570 264 l 1
 570 660 l 1
 770 660 l 1
 770 0 l 1
 555 0 l 1
 270 396 l 1
 270 0 l 1
 70 0 l 1
325 720 m 1
 435 880 l 1
 595 880 l 1
 455 720 l 1
 325 720 l 1
EndSplineSet
Validated: 1
EndChar

StartChar: nacute
Encoding: 324 324 257
Width: 680
Flags: W
HStem: 0 21<60 60 60 240 440 440 440 620> 385 105<240 415 240 240> 550 160<245 515 355 375>
VStem: 60 180<0 385 0 490 0 490> 440 180<0 365 365 370 0 371.5>
LayerCount: 2
Fore
SplineSet
60 0 m 1
 60 490 l 1
 470 490 l 2
 570 490 620 450 620 370 c 2
 620 0 l 1
 440 0 l 1
 440 365 l 2
 440 378 432 385 415 385 c 2
 240 385 l 1
 240 0 l 1
 60 0 l 1
245 550 m 1
 355 710 l 1
 515 710 l 1
 375 550 l 1
 245 550 l 1
EndSplineSet
Validated: 1
EndChar

StartChar: uni0145
Encoding: 325 325 258
Width: 840
Flags: W
HStem: -210 160<335 510 370 445> 0 21<70 70 70 270 555 555 555 770> 640 20<70 285 285 285 570 770 770 770>
VStem: 70 200<0 396 0 660> 570 200<264 660 0 660>
LayerCount: 2
Fore
SplineSet
70 0 m 1
 70 660 l 1
 285 660 l 1
 570 264 l 1
 570 660 l 1
 770 660 l 1
 770 0 l 1
 555 0 l 1
 270 396 l 1
 270 0 l 1
 70 0 l 1
335 -210 m 1
 370 -50 l 1
 510 -50 l 1
 445 -210 l 1
 335 -210 l 1
EndSplineSet
Validated: 1
EndChar

StartChar: uni0146
Encoding: 326 326 259
Width: 680
Flags: W
HStem: -210 160<250 425 285 360> 0 21<60 60 60 240 440 440 440 620> 385 105<240 415 240 240>
VStem: 60 180<0 385 0 490 0 490> 440 180<0 365 365 370 0 371.5>
LayerCount: 2
Fore
SplineSet
60 0 m 1
 60 490 l 1
 470 490 l 2
 570 490 620 450 620 370 c 2
 620 0 l 1
 440 0 l 1
 440 365 l 2
 440 378 432 385 415 385 c 2
 240 385 l 1
 240 0 l 1
 60 0 l 1
250 -210 m 1
 285 -50 l 1
 425 -50 l 1
 360 -210 l 1
 250 -210 l 1
EndSplineSet
Validated: 1
EndChar

StartChar: Ncaron
Encoding: 327 327 260
Width: 840
Flags: W
HStem: 0 21<70 70 70 270 555 555 555 770> 640 20<70 285 285 285 570 770 770 770> 720 160<355 357 483 485 355 355>
VStem: 70 200<0 396 0 660> 570 200<264 660 0 660>
LayerCount: 2
Fore
SplineSet
70 0 m 1
 70 660 l 1
 285 660 l 1
 570 264 l 1
 570 660 l 1
 770 660 l 1
 770 0 l 1
 555 0 l 1
 270 396 l 1
 270 0 l 1
 70 0 l 1
230 880 m 1
 357 880 l 1
 420 805 l 1
 483 880 l 1
 610 880 l 1
 485 720 l 1
 355 720 l 1
 230 880 l 1
EndSplineSet
Validated: 1
EndChar

StartChar: ncaron
Encoding: 328 328 261
Width: 680
Flags: W
HStem: 0 21<60 60 60 240 440 440 440 620> 385 105<240 415 240 240> 550 160<275 277 403 405 275 275>
VStem: 60 180<0 385 0 490 0 490> 440 180<0 365 365 370 0 371.5>
LayerCount: 2
Fore
SplineSet
60 0 m 1
 60 490 l 1
 470 490 l 2
 570 490 620 450 620 370 c 2
 620 0 l 1
 440 0 l 1
 440 365 l 2
 440 378 432 385 415 385 c 2
 240 385 l 1
 240 0 l 1
 60 0 l 1
150 710 m 1
 277 710 l 1
 340 635 l 1
 403 710 l 1
 530 710 l 1
 405 550 l 1
 275 550 l 1
 150 710 l 1
EndSplineSet
Validated: 1
EndChar

StartChar: Eng
Encoding: 330 330 262
Width: 830
Flags: W
HStem: -210 120<400 510 510 526.5 400 590 400 510> 0 21G<70 70 70 270> 540 120<270 525 270 270>
VStem: 70 200<0 540 0 660 0 660> 560 200<-50 512 512 521.5>
LayerCount: 2
Fore
SplineSet
70 0 m 1
 70 660 l 1
 590 660 l 2
 703 660 760 615 760 524 c 2
 760 -74 l 2
 760 -165 703 -210 590 -210 c 2
 400 -210 l 1
 400 -90 l 1
 510 -90 l 2
 543 -90 560 -77 560 -50 c 2
 560 512 l 2
 560 531 548 540 525 540 c 2
 270 540 l 1
 270 0 l 1
 70 0 l 1
EndSplineSet
Validated: 1
EndChar

StartChar: eng
Encoding: 331 331 263
Width: 680
Flags: W
HStem: -210 105<320 400 400 413.5 320 470 320 400> 0 21G<60 60 60 240> 385 105<240 415 240 240>
VStem: 60 180<0 385 0 490 0 490> 440 180<-73 365 365 370>
LayerCount: 2
Fore
SplineSet
60 0 m 1
 60 490 l 1
 470 490 l 2
 570 490 620 450 620 370 c 2
 620 -90 l 2
 620 -170 570 -210 470 -210 c 2
 320 -210 l 1
 320 -105 l 1
 400 -105 l 2
 427 -105 440 -94 440 -73 c 2
 440 365 l 2
 440 378 432 385 415 385 c 2
 240 385 l 1
 240 0 l 1
 60 0 l 1
EndSplineSet
Validated: 1
EndChar

StartChar: Omacron
Encoding: 332 332 264
Width: 830
Flags: W
HStem: 0 120<183.5 525 305 525 525 536.5 305 590> 540 120<293.5 305 305 525> 750 95<240 590 240 590>
VStem: 70 200<138.5 148 148 512> 240 350<0 0 750 845> 560 200<148 512 512 521.5>
LayerCount: 2
Fore
SplineSet
70 136 m 2xf0
 70 524 l 2xf0
 70 615 127 660 240 660 c 2
 590 660 l 2xe8
 703 660 760 615 760 524 c 2
 760 136 l 2xe4
 760 45 703 0 590 0 c 2
 240 0 l 2xe8
 127 0 70 45 70 136 c 2xf0
240 750 m 1xe8
 240 845 l 1
 590 845 l 1
 590 750 l 1
 240 750 l 1xe8
270 148 m 2xf4
 270 129 282 120 305 120 c 2
 525 120 l 2
 548 120 560 129 560 148 c 2
 560 512 l 2
 560 531 548 540 525 540 c 2
 305 540 l 2
 282 540 270 531 270 512 c 2
 270 148 l 2xf4
EndSplineSet
Validated: 1
EndChar

StartChar: omacron
Encoding: 333 333 265
Width: 680
Flags: W
HStem: 0 105<160 415 265 415 415 423.5 265 470> 385 105<256.5 265 265 415> 580 95<165 515 165 515>
VStem: 60 180<120 125 125 365> 165 350<580 675 580 675> 440 180<125 365 365 370>
LayerCount: 2
Fore
SplineSet
60 120 m 2xf4
 60 370 l 2
 60 450 110 490 210 490 c 2
 470 490 l 2
 570 490 620 450 620 370 c 2
 620 120 l 2
 620 40 570 0 470 0 c 2
 210 0 l 2
 110 0 60 40 60 120 c 2xf4
165 580 m 1xe8
 165 675 l 1
 515 675 l 1
 515 580 l 1
 165 580 l 1xe8
240 125 m 2xf4
 240 112 248 105 265 105 c 2
 415 105 l 2
 432 105 440 112 440 125 c 2
 440 365 l 2
 440 378 432 385 415 385 c 2
 265 385 l 2
 248 385 240 378 240 365 c 2
 240 125 l 2xf4
EndSplineSet
Validated: 1
EndChar

StartChar: Obreve
Encoding: 334 334 266
Width: 830
Flags: W
HStem: 0 120<183.5 525 305 525 525 536.5 305 590> 540 120<293.5 305 305 525> 720 65<320 455 375 455 455 460 375 480> 860 20<260 360 360 360 470 570 570 570>
VStem: 70 200<138.5 148 148 512> 260 100<793 797 797 880 793 880> 470 100<797 880 768 880> 560 200<148 512 512 521.5>
LayerCount: 2
Fore
SplineSet
70 136 m 2xf9
 70 524 l 2
 70 615 127 660 240 660 c 2
 590 660 l 2
 703 660 760 615 760 524 c 2
 760 136 l 2
 760 45 703 0 590 0 c 2
 240 0 l 2
 127 0 70 45 70 136 c 2xf9
260 792 m 2xf6
 260 880 l 1
 360 880 l 1
 360 797 l 2
 360 789 365 785 375 785 c 2
 455 785 l 2
 465 785 470 789 470 797 c 2
 470 880 l 1
 570 880 l 1
 570 792 l 2
 570 744 540 720 480 720 c 2
 350 720 l 2
 290 720 260 744 260 792 c 2xf6
270 148 m 2xf9
 270 129 282 120 305 120 c 2
 525 120 l 2
 548 120 560 129 560 148 c 2
 560 512 l 2
 560 531 548 540 525 540 c 2
 305 540 l 2
 282 540 270 531 270 512 c 2
 270 148 l 2xf9
EndSplineSet
Validated: 1
EndChar

StartChar: obreve
Encoding: 335 335 267
Width: 680
Flags: W
HStem: 0 105<160 415 265 415 415 423.5 265 470> 385 105<256.5 265 265 415> 550 65<245 380 300 380 380 385 300 405> 690 20<185 285 285 285 395 495 495 495>
VStem: 60 180<120 125 125 365> 185 100<623 627 627 710 623 710> 395 100<627 710 598 710> 440 180<125 365 365 370>
LayerCount: 2
Fore
SplineSet
60 120 m 2xf9
 60 370 l 2
 60 450 110 490 210 490 c 2
 470 490 l 2
 570 490 620 450 620 370 c 2
 620 120 l 2
 620 40 570 0 470 0 c 2
 210 0 l 2
 110 0 60 40 60 120 c 2xf9
185 622 m 2xf6
 185 710 l 1
 285 710 l 1
 285 627 l 2
 285 619 290 615 300 615 c 2
 380 615 l 2
 390 615 395 619 395 627 c 2
 395 710 l 1
 495 710 l 1
 495 622 l 2
 495 574 465 550 405 550 c 2
 275 550 l 2
 215 550 185 574 185 622 c 2xf6
240 125 m 2xf9
 240 112 248 105 265 105 c 2
 415 105 l 2
 432 105 440 112 440 125 c 2
 440 365 l 2
 440 378 432 385 415 385 c 2
 265 385 l 2
 248 385 240 378 240 365 c 2
 240 125 l 2xf9
EndSplineSet
Validated: 1
EndChar

StartChar: Ohungarumlaut
Encoding: 336 336 268
Width: 830
Flags: W
HStem: 0 120<183.5 525 305 525 525 536.5 305 590> 540 120<293.5 305 305 525> 720 160<235 480 335 350 440 480 540 555 440 440>
VStem: 70 200<138.5 148 148 512> 560 200<148 512 512 521.5>
LayerCount: 2
Fore
SplineSet
70 136 m 2
 70 524 l 2
 70 615 127 660 240 660 c 2
 590 660 l 2
 703 660 760 615 760 524 c 2
 760 136 l 2
 760 45 703 0 590 0 c 2
 240 0 l 2
 127 0 70 45 70 136 c 2
235 720 m 1
 335 880 l 1
 480 880 l 1
 350 720 l 1
 235 720 l 1
270 148 m 2
 270 129 282 120 305 120 c 2
 525 120 l 2
 548 120 560 129 560 148 c 2
 560 512 l 2
 560 531 548 540 525 540 c 2
 305 540 l 2
 282 540 270 531 270 512 c 2
 270 148 l 2
440 720 m 1
 540 880 l 1
 685 880 l 1
 555 720 l 1
 440 720 l 1
EndSplineSet
Validated: 1
EndChar

StartChar: ohungarumlaut
Encoding: 337 337 269
Width: 680
Flags: W
HStem: 0 105<160 415 265 415 415 423.5 265 470> 385 105<256.5 265 265 415> 550 160<160 405 260 275 365 405 465 480 365 365>
VStem: 60 180<120 125 125 365> 440 180<125 365 365 370>
LayerCount: 2
Fore
SplineSet
60 120 m 2
 60 370 l 2
 60 450 110 490 210 490 c 2
 470 490 l 2
 570 490 620 450 620 370 c 2
 620 120 l 2
 620 40 570 0 470 0 c 2
 210 0 l 2
 110 0 60 40 60 120 c 2
160 550 m 1
 260 710 l 1
 405 710 l 1
 275 550 l 1
 160 550 l 1
240 125 m 2
 240 112 248 105 265 105 c 2
 415 105 l 2
 432 105 440 112 440 125 c 2
 440 365 l 2
 440 378 432 385 415 385 c 2
 265 385 l 2
 248 385 240 378 240 365 c 2
 240 125 l 2
365 550 m 1
 465 710 l 1
 610 710 l 1
 480 550 l 1
 365 550 l 1
EndSplineSet
Validated: 1
EndChar

StartChar: OE
Encoding: 338 338 270
Width: 1190
Flags: W
HStem: 0 120<183.5 540 305 540 740 1140> 285 120<740 1090 740 1090> 540 120<293.5 305 305 540 740 1140 740 740>
VStem: 70 200<138.5 148 148 512> 540 200<120 285 405 540>
LayerCount: 2
Fore
SplineSet
70 136 m 2
 70 524 l 2
 70 615 127 660 240 660 c 2
 1140 660 l 1
 1140 540 l 1
 740 540 l 1
 740 405 l 1
 1090 405 l 1
 1090 285 l 1
 740 285 l 1
 740 120 l 1
 1140 120 l 1
 1140 0 l 1
 240 0 l 2
 127 0 70 45 70 136 c 2
270 148 m 2
 270 129 282 120 305 120 c 2
 540 120 l 1
 540 540 l 1
 305 540 l 2
 282 540 270 531 270 512 c 2
 270 148 l 2
EndSplineSet
Validated: 1
EndChar

StartChar: oe
Encoding: 339 339 271
Width: 1020
Flags: W
HStem: 0 105<160 395 265 395 395 403.5 625 940> 200 105<600 780 600 960 600 780> 385 105<256.5 265 265 395 616.5 625 625 755>
VStem: 60 180<120 125 125 365> 420 180<125 200 305 365> 780 180<305 365 365 370 200 371.5>
LayerCount: 2
Fore
SplineSet
60 120 m 2
 60 370 l 2
 60 450 110 490 210 490 c 2
 810 490 l 2
 910 490 960 450 960 370 c 2
 960 200 l 1
 600 200 l 1
 600 125 l 2
 600 112 608 105 625 105 c 2
 940 105 l 1
 940 0 l 1
 210 0 l 2
 110 0 60 40 60 120 c 2
240 125 m 2
 240 112 248 105 265 105 c 2
 395 105 l 2
 412 105 420 112 420 125 c 2
 420 365 l 2
 420 378 412 385 395 385 c 2
 265 385 l 2
 248 385 240 378 240 365 c 2
 240 125 l 2
600 305 m 1
 780 305 l 1
 780 365 l 2
 780 378 772 385 755 385 c 2
 625 385 l 2
 608 385 600 378 600 365 c 2
 600 305 l 1
EndSplineSet
Validated: 1
EndChar

StartChar: Racute
Encoding: 340 340 272
Width: 790
Flags: W
HStem: 0 21<70 70 70 270 544 544 544 760> 250 120<270 379 270 495 270 595> 540 120<270 495 270 270> 720 160<305 575 415 435>
VStem: 70 200<0 250 370 540> 530 200<398 512 512 521.5>
LayerCount: 2
Fore
SplineSet
70 0 m 1
 70 660 l 1
 560 660 l 2
 673 660 730 615 730 524 c 2
 730 386 l 2
 730 304 684 261 595 250 c 1
 760 0 l 1
 544 0 l 1
 379 250 l 1
 270 250 l 1
 270 0 l 1
 70 0 l 1
270 370 m 1
 495 370 l 2
 518 370 530 379 530 398 c 2
 530 512 l 2
 530 531 518 540 495 540 c 2
 270 540 l 1
 270 370 l 1
305 720 m 1
 415 880 l 1
 575 880 l 1
 435 720 l 1
 305 720 l 1
EndSplineSet
Validated: 1
EndChar

StartChar: racute
Encoding: 341 341 273
Width: 440
Flags: W
HStem: 0 21<60 60 60 240> 385 105<256.5 265 265 410> 550 160<140 410 250 270>
VStem: 60 180<0 365 0 370 0 410>
LayerCount: 2
Fore
SplineSet
60 0 m 1
 60 370 l 2
 60 450 110 490 210 490 c 2
 410 490 l 1
 410 385 l 1
 265 385 l 2
 248 385 240 378 240 365 c 2
 240 0 l 1
 60 0 l 1
140 550 m 1
 250 710 l 1
 410 710 l 1
 270 550 l 1
 140 550 l 1
EndSplineSet
Validated: 1
EndChar

StartChar: uni0156
Encoding: 342 342 274
Width: 790
Flags: W
HStem: -210 160<300 475 335 410> 0 21<70 70 70 270 544 544 544 760> 250 120<270 379 270 495 270 595> 540 120<270 495 270 270>
VStem: 70 200<0 250 370 540> 530 200<398 512 512 521.5>
LayerCount: 2
Fore
SplineSet
70 0 m 1
 70 660 l 1
 560 660 l 2
 673 660 730 615 730 524 c 2
 730 386 l 2
 730 304 684 261 595 250 c 1
 760 0 l 1
 544 0 l 1
 379 250 l 1
 270 250 l 1
 270 0 l 1
 70 0 l 1
270 370 m 1
 495 370 l 2
 518 370 530 379 530 398 c 2
 530 512 l 2
 530 531 518 540 495 540 c 2
 270 540 l 1
 270 370 l 1
300 -210 m 1
 335 -50 l 1
 475 -50 l 1
 410 -210 l 1
 300 -210 l 1
EndSplineSet
Validated: 1
EndChar

StartChar: uni0157
Encoding: 343 343 275
Width: 440
Flags: W
HStem: -210 160<45 220 80 155> 0 21<60 60 60 240> 385 105<256.5 265 265 410>
VStem: 60 180<0 365 0 370 0 410>
LayerCount: 2
Fore
SplineSet
45 -210 m 1
 80 -50 l 1
 220 -50 l 1
 155 -210 l 1
 45 -210 l 1
60 0 m 1
 60 370 l 2
 60 450 110 490 210 490 c 2
 410 490 l 1
 410 385 l 1
 265 385 l 2
 248 385 240 378 240 365 c 2
 240 0 l 1
 60 0 l 1
EndSplineSet
Validated: 1
EndChar

StartChar: Rcaron
Encoding: 344 344 276
Width: 790
Flags: W
HStem: 0 21<70 70 70 270 544 544 544 760> 250 120<270 379 270 495 270 595> 540 120<270 495 270 270> 720 160<335 337 463 465 335 335>
VStem: 70 200<0 250 370 540> 530 200<398 512 512 521.5>
LayerCount: 2
Fore
SplineSet
70 0 m 1
 70 660 l 1
 560 660 l 2
 673 660 730 615 730 524 c 2
 730 386 l 2
 730 304 684 261 595 250 c 1
 760 0 l 1
 544 0 l 1
 379 250 l 1
 270 250 l 1
 270 0 l 1
 70 0 l 1
210 880 m 1
 337 880 l 1
 400 805 l 1
 463 880 l 1
 590 880 l 1
 465 720 l 1
 335 720 l 1
 210 880 l 1
270 370 m 1
 495 370 l 2
 518 370 530 379 530 398 c 2
 530 512 l 2
 530 531 518 540 495 540 c 2
 270 540 l 1
 270 370 l 1
EndSplineSet
Validated: 1
EndChar

StartChar: rcaron
Encoding: 345 345 277
Width: 440
Flags: W
HStem: 0 21<60 60 60 240> 385 105<256.5 265 265 410> 550 160<170 172 298 300 170 170>
VStem: 60 180<0 365 0 370 0 410>
LayerCount: 2
Fore
SplineSet
45 710 m 1
 172 710 l 1
 235 635 l 1
 298 710 l 1
 425 710 l 1
 300 550 l 1
 170 550 l 1
 45 710 l 1
60 0 m 1
 60 370 l 2
 60 450 110 490 210 490 c 2
 410 490 l 1
 410 385 l 1
 265 385 l 2
 248 385 240 378 240 365 c 2
 240 0 l 1
 60 0 l 1
EndSplineSet
Validated: 1
EndChar

StartChar: Sacute
Encoding: 346 346 278
Width: 780
Flags: W
HStem: 0 120<60 485 60 485 485 496.5 60 550> 285 120<173.5 550 295 485> 540 120<283.5 295 295 670> 720 160<295 565 405 425>
VStem: 60 200<423.5 433 433 512 423.5 524 423.5 569.5> 520 200<148 257 257 266.5>
LayerCount: 2
Fore
SplineSet
60 0 m 1
 60 120 l 1
 485 120 l 2
 508 120 520 129 520 148 c 2
 520 257 l 2
 520 276 508 285 485 285 c 2
 230 285 l 2
 117 285 60 330 60 421 c 2
 60 524 l 2
 60 615 117 660 230 660 c 2
 670 660 l 1
 670 540 l 1
 295 540 l 2
 272 540 260 531 260 512 c 2
 260 433 l 2
 260 414 272 405 295 405 c 2
 550 405 l 2
 663 405 720 360 720 269 c 2
 720 136 l 2
 720 45 663 0 550 0 c 2
 60 0 l 1
295 720 m 1
 405 880 l 1
 565 880 l 1
 425 720 l 1
 295 720 l 1
EndSplineSet
Validated: 1
EndChar

StartChar: sacute
Encoding: 347 347 279
Width: 610
Flags: W
HStem: 0 105<50 355 50 355 355 362.5 50 410> 200 105<150 410 255 355> 385 105<247.5 255 255 520> 550 160<210 480 320 340>
VStem: 50 180<320 325 325 365 317.5 370 317.5 410> 380 180<125 180 180 185 80 187.5>
LayerCount: 2
Fore
SplineSet
50 0 m 1
 50 105 l 1
 355 105 l 2
 370 105 380 110 380 125 c 2
 380 180 l 2
 380 195 370 200 355 200 c 2
 200 200 l 2
 100 200 50 240 50 320 c 2
 50 370 l 2
 50 450 100 490 200 490 c 2
 520 490 l 1
 520 385 l 1
 255 385 l 2
 240 385 230 380 230 365 c 2
 230 325 l 2
 230 310 240 305 255 305 c 2
 410 305 l 2
 510 305 560 265 560 185 c 2
 560 120 l 2
 560 40 510 0 410 0 c 2
 50 0 l 1
210 550 m 1
 320 710 l 1
 480 710 l 1
 340 550 l 1
 210 550 l 1
EndSplineSet
Validated: 1
EndChar

StartChar: Scircumflex
Encoding: 348 348 280
Width: 780
Flags: W
HStem: 0 120<60 485 60 485 485 496.5 60 550> 285 120<173.5 550 295 485> 540 120<283.5 295 295 670> 720 160<200 455 325 327 453 453 453 455 325 580>
VStem: 60 200<423.5 433 433 512 423.5 524 423.5 569.5> 520 200<148 257 257 266.5>
LayerCount: 2
Fore
SplineSet
60 0 m 1
 60 120 l 1
 485 120 l 2
 508 120 520 129 520 148 c 2
 520 257 l 2
 520 276 508 285 485 285 c 2
 230 285 l 2
 117 285 60 330 60 421 c 2
 60 524 l 2
 60 615 117 660 230 660 c 2
 670 660 l 1
 670 540 l 1
 295 540 l 2
 272 540 260 531 260 512 c 2
 260 433 l 2
 260 414 272 405 295 405 c 2
 550 405 l 2
 663 405 720 360 720 269 c 2
 720 136 l 2
 720 45 663 0 550 0 c 2
 60 0 l 1
200 720 m 1
 325 880 l 1
 455 880 l 1
 580 720 l 1
 453 720 l 1
 390 795 l 1
 327 720 l 1
 200 720 l 1
EndSplineSet
Validated: 1
EndChar

StartChar: scircumflex
Encoding: 349 349 281
Width: 610
Flags: W
HStem: 0 105<50 355 50 355 355 362.5 50 410> 200 105<150 410 255 355> 385 105<247.5 255 255 520> 550 160<115 370 240 242 368 368 368 370 240 495>
VStem: 50 180<320 325 325 365 317.5 370 317.5 410> 380 180<125 180 180 185 80 187.5>
LayerCount: 2
Fore
SplineSet
50 0 m 1
 50 105 l 1
 355 105 l 2
 370 105 380 110 380 125 c 2
 380 180 l 2
 380 195 370 200 355 200 c 2
 200 200 l 2
 100 200 50 240 50 320 c 2
 50 370 l 2
 50 450 100 490 200 490 c 2
 520 490 l 1
 520 385 l 1
 255 385 l 2
 240 385 230 380 230 365 c 2
 230 325 l 2
 230 310 240 305 255 305 c 2
 410 305 l 2
 510 305 560 265 560 185 c 2
 560 120 l 2
 560 40 510 0 410 0 c 2
 50 0 l 1
115 550 m 1
 240 710 l 1
 370 710 l 1
 495 550 l 1
 368 550 l 1
 305 625 l 1
 242 550 l 1
 115 550 l 1
EndSplineSet
Validated: 1
EndChar

StartChar: Scedilla
Encoding: 350 350 282
Width: 780
Flags: W
HStem: -185 75<265 355 355 368.5 265 400 265 355> 0 120<60 485 60 395 60 525 60 550> 285 120<173.5 550 295 485> 540 120<283.5 295 295 670>
VStem: 60 200<423.5 433 433 512 423.5 524 423.5 569.5> 395 130<-78 0 -118.5 0> 520 200<148 257 257 266.5>
LayerCount: 2
Fore
SplineSet
60 0 m 1xfc
 60 120 l 1
 485 120 l 2
 508 120 520 129 520 148 c 2
 520 257 l 2
 520 276 508 285 485 285 c 2
 230 285 l 2
 117 285 60 330 60 421 c 2
 60 524 l 2
 60 615 117 660 230 660 c 2
 670 660 l 1
 670 540 l 1
 295 540 l 2
 272 540 260 531 260 512 c 2
 260 433 l 2
 260 414 272 405 295 405 c 2
 550 405 l 2
 663 405 720 360 720 269 c 2
 720 136 l 2xfa
 720 45 663 0 550 0 c 2
 525 0 l 1
 525 -85 l 2
 525 -152 483 -185 400 -185 c 2
 265 -185 l 1
 265 -110 l 1
 355 -110 l 2
 382 -110 395 -99 395 -78 c 2
 395 0 l 1
 60 0 l 1xfc
EndSplineSet
Validated: 1
EndChar

StartChar: scedilla
Encoding: 351 351 283
Width: 610
Flags: W
HStem: -185 75<155 245 245 258.5 155 290 155 245> 0 105<50 355 50 285 50 415> 200 105<150 410 255 355> 385 105<247.5 255 255 520>
VStem: 50 180<320 325 325 365 317.5 370 317.5 410> 285 130<-78 0 -118.5 0> 380 180<125 180 180 185 80.6724 187.5>
LayerCount: 2
Fore
SplineSet
50 0 m 1xfc
 50 105 l 1
 355 105 l 2
 370 105 380 110 380 125 c 2
 380 180 l 2
 380 195 370 200 355 200 c 2
 200 200 l 2
 100 200 50 240 50 320 c 2
 50 370 l 2
 50 450 100 490 200 490 c 2
 520 490 l 1
 520 385 l 1
 255 385 l 2
 240 385 230 380 230 365 c 2
 230 325 l 2
 230 310 240 305 255 305 c 2
 410 305 l 2
 510 305 560 265 560 185 c 2
 560 120 l 2xfa
 560 41.3447265625 511.666992188 1.322265625 415 0 c 1
 415 -85 l 2
 415 -152 373 -185 290 -185 c 2
 155 -185 l 1
 155 -110 l 1
 245 -110 l 2
 272 -110 285 -99 285 -78 c 2
 285 0 l 1
 50 0 l 1xfc
EndSplineSet
Validated: 1
EndChar

StartChar: Scaron
Encoding: 352 352 284
Width: 780
Flags: W
HStem: 0 120<60 485 60 485 485 496.5 60 550> 285 120<173.5 550 295 485> 540 120<283.5 295 295 670> 720 160<325 327 453 455 325 325>
VStem: 60 200<423.5 433 433 512 423.5 524 423.5 569.5> 520 200<148 257 257 266.5>
LayerCount: 2
Fore
SplineSet
60 0 m 1
 60 120 l 1
 485 120 l 2
 508 120 520 129 520 148 c 2
 520 257 l 2
 520 276 508 285 485 285 c 2
 230 285 l 2
 117 285 60 330 60 421 c 2
 60 524 l 2
 60 615 117 660 230 660 c 2
 670 660 l 1
 670 540 l 1
 295 540 l 2
 272 540 260 531 260 512 c 2
 260 433 l 2
 260 414 272 405 295 405 c 2
 550 405 l 2
 663 405 720 360 720 269 c 2
 720 136 l 2
 720 45 663 0 550 0 c 2
 60 0 l 1
200 880 m 1
 327 880 l 1
 390 805 l 1
 453 880 l 1
 580 880 l 1
 455 720 l 1
 325 720 l 1
 200 880 l 1
EndSplineSet
Validated: 1
EndChar

StartChar: scaron
Encoding: 353 353 285
Width: 610
Flags: W
HStem: 0 105<50 355 50 355 355 362.5 50 410> 200 105<150 410 255 355> 385 105<247.5 255 255 520> 550 160<240 242 368 370 240 240>
VStem: 50 180<320 325 325 365 317.5 370 317.5 410> 380 180<125 180 180 185 80 187.5>
LayerCount: 2
Fore
SplineSet
50 0 m 1
 50 105 l 1
 355 105 l 2
 370 105 380 110 380 125 c 2
 380 180 l 2
 380 195 370 200 355 200 c 2
 200 200 l 2
 100 200 50 240 50 320 c 2
 50 370 l 2
 50 450 100 490 200 490 c 2
 520 490 l 1
 520 385 l 1
 255 385 l 2
 240 385 230 380 230 365 c 2
 230 325 l 2
 230 310 240 305 255 305 c 2
 410 305 l 2
 510 305 560 265 560 185 c 2
 560 120 l 2
 560 40 510 0 410 0 c 2
 50 0 l 1
115 710 m 1
 242 710 l 1
 305 635 l 1
 368 710 l 1
 495 710 l 1
 370 550 l 1
 240 550 l 1
 115 710 l 1
EndSplineSet
Validated: 1
EndChar

StartChar: uni0162
Encoding: 354 354 286
Width: 780
Flags: W
HStem: -185 75<230 320 320 333.5 230 365 230 320> 0 21<290 360 290 290> 540 120<20 760 20 290 490 490 490 760>
VStem: 290 200<0 540> 360 130<-78 0 0 0>
LayerCount: 2
Fore
SplineSet
20 540 m 1xf0
 20 660 l 1
 760 660 l 1
 760 540 l 1
 490 540 l 1xf0
 490 -85 l 2
 490 -152 448 -185 365 -185 c 2
 230 -185 l 1
 230 -110 l 1
 320 -110 l 2
 347 -110 360 -99 360 -78 c 2
 360 0 l 1xe8
 290 0 l 1
 290 540 l 1
 20 540 l 1xf0
EndSplineSet
Validated: 1
EndChar

StartChar: uni0163
Encoding: 355 355 287
Width: 450
Flags: W
HStem: -185 75<100 190 190 203.5 100 235 100 190> 0 105<160 410 210 410 360 410 360 360> 385 105<240 410 240 410> 640 20<60 240 240 240>
VStem: 60 180<120 125 125 385 490 660> 230 130<-78 0 -118.5 0>
LayerCount: 2
Fore
SplineSet
60 120 m 2xf8
 60 660 l 1
 240 660 l 1
 240 490 l 1
 410 490 l 1
 410 385 l 1
 240 385 l 1
 240 125 l 2xf8
 240 112 248 105 265 105 c 2
 410 105 l 1
 410 0 l 1
 360 0 l 1
 360 -85 l 2
 360 -152 318 -185 235 -185 c 2
 100 -185 l 1
 100 -110 l 1
 190 -110 l 2
 217 -110 230 -99 230 -78 c 2
 230 0 l 1xf4
 210 0 l 2
 110 0 60 40 60 120 c 2xf8
EndSplineSet
Validated: 1
EndChar

StartChar: Tcaron
Encoding: 356 356 288
Width: 780
Flags: W
HStem: 0 21<290 490 290 290> 540 120<20 760 20 290 490 490 490 760> 720 160<325 327 453 455 325 325>
VStem: 290 200<0 540 0 540>
LayerCount: 2
Fore
SplineSet
20 540 m 1
 20 660 l 1
 760 660 l 1
 760 540 l 1
 490 540 l 1
 490 0 l 1
 290 0 l 1
 290 540 l 1
 20 540 l 1
200 880 m 1
 327 880 l 1
 390 805 l 1
 453 880 l 1
 580 880 l 1
 455 720 l 1
 325 720 l 1
 200 880 l 1
EndSplineSet
Validated: 1
EndChar

StartChar: tcaron
Encoding: 357 357 289
Width: 450
Flags: W
HStem: 0 105<160 410 265 410 265 410> 385 105<240 410 240 410> 580 160<305 480 340 415> 640 20<60 240 240 240>
VStem: 60 180<120 125 125 385 490 660>
LayerCount: 2
Fore
SplineSet
60 120 m 2xd8
 60 660 l 1
 240 660 l 1
 240 490 l 1
 410 490 l 1
 410 385 l 1
 240 385 l 1
 240 125 l 2
 240 112 248 105 265 105 c 2
 410 105 l 1
 410 0 l 1
 210 0 l 2
 110 0 60 40 60 120 c 2xd8
305 580 m 1xe8
 340 740 l 1
 480 740 l 1
 415 580 l 1
 305 580 l 1xe8
EndSplineSet
Validated: 1
EndChar

StartChar: Tbar
Encoding: 358 358 290
Width: 780
Flags: W
HStem: 0 21G<290 490 290 290> 295 100<140 290 140 290 490 640> 540 120<20 760 20 290 490 490 490 760>
VStem: 290 200<0 295 0 295 395 540>
LayerCount: 2
Fore
SplineSet
20 540 m 1
 20 660 l 1
 760 660 l 1
 760 540 l 1
 490 540 l 1
 490 395 l 1
 640 395 l 1
 640 295 l 1
 490 295 l 1
 490 0 l 1
 290 0 l 1
 290 295 l 1
 140 295 l 1
 140 395 l 1
 290 395 l 1
 290 540 l 1
 20 540 l 1
EndSplineSet
Validated: 1
EndChar

StartChar: tbar
Encoding: 359 359 291
Width: 470
Flags: W
HStem: 0 105<180 430 285 430 285 430> 215 80<10 80 10 80 260 420> 385 105<260 430 260 430> 640 20G<80 260 260 260>
VStem: 80 180<120 125 125 215 118.5 215 295 385 490 660>
LayerCount: 2
Fore
SplineSet
10 215 m 1
 10 295 l 1
 80 295 l 1
 80 660 l 1
 260 660 l 1
 260 490 l 1
 430 490 l 1
 430 385 l 1
 260 385 l 1
 260 295 l 1
 420 295 l 1
 420 215 l 1
 260 215 l 1
 260 125 l 2
 260 112 268 105 285 105 c 2
 430 105 l 1
 430 0 l 1
 230 0 l 2
 130 0 80 40 80 120 c 2
 80 215 l 1
 10 215 l 1
EndSplineSet
Validated: 1
EndChar

StartChar: Utilde
Encoding: 360 360 292
Width: 830
Flags: W
HStem: 0 120<183.5 525 305 525 525 536.5 305 590> 640 20<70 270 270 270 560 760 760 760> 720 98<466 474 466 482.5> 782 98<356 364>
VStem: 70 200<138.5 148 148 660> 560 200<148 660>
LayerCount: 2
Fore
SplineSet
70 136 m 2xcc
 70 660 l 1
 270 660 l 1
 270 148 l 2
 270 129 282 120 305 120 c 2
 525 120 l 2
 548 120 560 129 560 148 c 2
 560 660 l 1
 760 660 l 1
 760 136 l 2
 760 45 703 0 590 0 c 2
 240 0 l 2
 127 0 70 45 70 136 c 2xcc
225 785 m 1
 290 850 l 2
 310 870 335 880 360 880 c 0xdc
 385 880 410 870 430 850 c 2
 450 830 l 2
 458 822 462 818 470 818 c 0xec
 478 818 482 822 490 830 c 2
 540 880 l 1xdc
 605 815 l 1
 540 750 l 2
 520 730 495 720 470 720 c 0xec
 445 720 420 730 400 750 c 2
 380 770 l 2
 372 778 368 782 360 782 c 0xdc
 352 782 348 778 340 770 c 2
 290 720 l 1xec
 225 785 l 1
EndSplineSet
Validated: 1
EndChar

StartChar: utilde
Encoding: 361 361 293
Width: 680
Flags: W
HStem: 0 105<160 440 265 440 265 620> 470 20<60 240 240 240 440 620 620 620> 550 98<391 399 391 407.5> 612 98<281 289>
VStem: 60 180<120 125 125 490> 440 180<105 490 0 490>
LayerCount: 2
Fore
SplineSet
60 120 m 2xcc
 60 490 l 1
 240 490 l 1
 240 125 l 2
 240 112 248 105 265 105 c 2
 440 105 l 1
 440 490 l 1
 620 490 l 1
 620 0 l 1
 210 0 l 2
 110 0 60 40 60 120 c 2xcc
150 615 m 1
 215 680 l 2
 235 700 260 710 285 710 c 0xdc
 310 710 335 700 355 680 c 2
 375 660 l 2
 383 652 387 648 395 648 c 0xec
 403 648 407 652 415 660 c 2
 465 710 l 1xdc
 530 645 l 1
 465 580 l 2
 445 560 420 550 395 550 c 0xec
 370 550 345 560 325 580 c 2
 305 600 l 2
 297 608 293 612 285 612 c 0xdc
 277 612 273 608 265 600 c 2
 215 550 l 1xec
 150 615 l 1
EndSplineSet
Validated: 1
EndChar

StartChar: Umacron
Encoding: 362 362 294
Width: 830
Flags: W
HStem: 0 120<183.5 525 305 525 525 536.5 305 590> 640 20<70 270 270 270 560 760 760 760> 750 95<240 590 240 590>
VStem: 70 200<138.5 148 148 660> 240 350<0 0 750 845> 560 200<148 660>
LayerCount: 2
Fore
SplineSet
70 136 m 2xf0
 70 660 l 1
 270 660 l 1
 270 148 l 2
 270 129 282 120 305 120 c 2
 525 120 l 2
 548 120 560 129 560 148 c 2
 560 660 l 1
 760 660 l 1
 760 136 l 2xf4
 760 45 703 0 590 0 c 2
 240 0 l 2xe8
 127 0 70 45 70 136 c 2xf0
240 750 m 1xe8
 240 845 l 1
 590 845 l 1
 590 750 l 1
 240 750 l 1xe8
EndSplineSet
Validated: 1
EndChar

StartChar: umacron
Encoding: 363 363 295
Width: 680
Flags: W
HStem: 0 105<160 440 265 440 265 620> 470 20<60 240 240 240 440 620 620 620> 580 95<165 515 165 515>
VStem: 60 180<120 125 125 490> 165 350<580 675 580 675> 440 180<105 490 0 490>
LayerCount: 2
Fore
SplineSet
60 120 m 2xf4
 60 490 l 1
 240 490 l 1
 240 125 l 2
 240 112 248 105 265 105 c 2
 440 105 l 1
 440 490 l 1
 620 490 l 1
 620 0 l 1
 210 0 l 2
 110 0 60 40 60 120 c 2xf4
165 580 m 1xe8
 165 675 l 1
 515 675 l 1
 515 580 l 1
 165 580 l 1xe8
EndSplineSet
Validated: 1
EndChar

StartChar: Ubreve
Encoding: 364 364 296
Width: 830
Flags: W
HStem: 0 120<183.5 525 305 525 525 536.5 305 590> 640 20<70 270 270 270 560 760 760 760> 720 65<320 455 375 455 455 460 375 480> 860 20<260 360 360 360 470 570 570 570>
VStem: 70 200<138.5 148 148 660> 260 100<793 797 797 880 793 880> 470 100<797 880 768 880> 560 200<148 660>
LayerCount: 2
Fore
SplineSet
70 136 m 2xf9
 70 660 l 1
 270 660 l 1
 270 148 l 2
 270 129 282 120 305 120 c 2
 525 120 l 2
 548 120 560 129 560 148 c 2
 560 660 l 1
 760 660 l 1
 760 136 l 2
 760 45 703 0 590 0 c 2
 240 0 l 2
 127 0 70 45 70 136 c 2xf9
260 792 m 2xf6
 260 880 l 1
 360 880 l 1
 360 797 l 2
 360 789 365 785 375 785 c 2
 455 785 l 2
 465 785 470 789 470 797 c 2
 470 880 l 1
 570 880 l 1
 570 792 l 2
 570 744 540 720 480 720 c 2
 350 720 l 2
 290 720 260 744 260 792 c 2xf6
EndSplineSet
Validated: 1
EndChar

StartChar: ubreve
Encoding: 365 365 297
Width: 680
Flags: W
HStem: 0 105<160 440 265 440 265 620> 470 20<60 240 240 240 440 620 620 620> 550 65<245 380 300 380 380 385 300 405> 690 20<185 285 285 285 395 495 495 495>
VStem: 60 180<120 125 125 490> 185 100<623 627 627 710 623 710> 395 100<627 710 598 710> 440 180<105 490 0 490>
LayerCount: 2
Fore
SplineSet
60 120 m 2xf9
 60 490 l 1
 240 490 l 1
 240 125 l 2
 240 112 248 105 265 105 c 2
 440 105 l 1
 440 490 l 1
 620 490 l 1
 620 0 l 1
 210 0 l 2
 110 0 60 40 60 120 c 2xf9
185 622 m 2xf6
 185 710 l 1
 285 710 l 1
 285 627 l 2
 285 619 290 615 300 615 c 2
 380 615 l 2
 390 615 395 619 395 627 c 2
 395 710 l 1
 495 710 l 1
 495 622 l 2
 495 574 465 550 405 550 c 2
 275 550 l 2
 215 550 185 574 185 622 c 2xf6
EndSplineSet
Validated: 1
EndChar

StartChar: Uring
Encoding: 366 366 298
Width: 830
Flags: W
HStem: 0 120<183.5 525 305 525 525 536.5 305 590> 640 20<70 270 270 270 560 760 760 760> 685 60<325 450 380 450 450 455 380 475> 830 60<375 380 380 450>
VStem: 70 200<138.5 148 148 660> 265 100<757 818 753 842> 465 100<757 818 733 822> 560 200<148 660>
LayerCount: 2
Fore
SplineSet
70 136 m 2xf9
 70 660 l 1
 270 660 l 1
 270 148 l 2
 270 129 282 120 305 120 c 2
 525 120 l 2
 548 120 560 129 560 148 c 2
 560 660 l 1
 760 660 l 1
 760 136 l 2
 760 45 703 0 590 0 c 2
 240 0 l 2
 127 0 70 45 70 136 c 2xf9
265 757 m 2xf6
 265 818 l 2
 265 866 295 890 355 890 c 2
 475 890 l 2
 535 890 565 866 565 818 c 2
 565 757 l 2
 565 709 535 685 475 685 c 2
 355 685 l 2
 295 685 265 709 265 757 c 2xf6
365 757 m 2
 365 749 370 745 380 745 c 2
 450 745 l 2
 460 745 465 749 465 757 c 2
 465 818 l 2
 465 826 460 830 450 830 c 2
 380 830 l 2
 370 830 365 826 365 818 c 2
 365 757 l 2
EndSplineSet
Validated: 1
EndChar

StartChar: uring
Encoding: 367 367 299
Width: 680
Flags: W
HStem: 0 105<160 440 265 440 265 620> 470 20<60 240 240 240 440 620 620 620> 550 60<250 375 305 375 375 380 305 400> 695 60<300 305 305 375>
VStem: 60 180<120 125 125 490> 190 100<622 683 618 707> 390 100<622 683 598 687> 440 180<105 490 0 490>
LayerCount: 2
Fore
SplineSet
60 120 m 2xf9
 60 490 l 1
 240 490 l 1
 240 125 l 2
 240 112 248 105 265 105 c 2
 440 105 l 1
 440 490 l 1
 620 490 l 1
 620 0 l 1
 210 0 l 2
 110 0 60 40 60 120 c 2xf9
190 622 m 2xf6
 190 683 l 2
 190 731 220 755 280 755 c 2
 400 755 l 2
 460 755 490 731 490 683 c 2
 490 622 l 2
 490 574 460 550 400 550 c 2
 280 550 l 2
 220 550 190 574 190 622 c 2xf6
290 622 m 2
 290 614 295 610 305 610 c 2
 375 610 l 2
 385 610 390 614 390 622 c 2
 390 683 l 2
 390 691 385 695 375 695 c 2
 305 695 l 2
 295 695 290 691 290 683 c 2
 290 622 l 2
EndSplineSet
Validated: 1
EndChar

StartChar: Uhungarumlaut
Encoding: 368 368 300
Width: 830
Flags: W
HStem: 0 120<183.5 525 305 525 525 536.5 305 590> 640 20<70 270 270 270 560 760 760 760> 720 160<235 480 335 350 440 480 540 555 440 440>
VStem: 70 200<138.5 148 148 660> 560 200<148 660>
LayerCount: 2
Fore
SplineSet
70 136 m 2
 70 660 l 1
 270 660 l 1
 270 148 l 2
 270 129 282 120 305 120 c 2
 525 120 l 2
 548 120 560 129 560 148 c 2
 560 660 l 1
 760 660 l 1
 760 136 l 2
 760 45 703 0 590 0 c 2
 240 0 l 2
 127 0 70 45 70 136 c 2
235 720 m 1
 335 880 l 1
 480 880 l 1
 350 720 l 1
 235 720 l 1
440 720 m 1
 540 880 l 1
 685 880 l 1
 555 720 l 1
 440 720 l 1
EndSplineSet
Validated: 1
EndChar

StartChar: uhungarumlaut
Encoding: 369 369 301
Width: 680
Flags: W
HStem: 0 105<160 440 265 440 265 620> 470 20<60 240 240 240 440 620 620 620> 550 160<160 405 260 275 365 405 465 480 365 365>
VStem: 60 180<120 125 125 490> 440 180<105 490 0 490>
LayerCount: 2
Fore
SplineSet
60 120 m 2
 60 490 l 1
 240 490 l 1
 240 125 l 2
 240 112 248 105 265 105 c 2
 440 105 l 1
 440 490 l 1
 620 490 l 1
 620 0 l 1
 210 0 l 2
 110 0 60 40 60 120 c 2
160 550 m 1
 260 710 l 1
 405 710 l 1
 275 550 l 1
 160 550 l 1
365 550 m 1
 465 710 l 1
 610 710 l 1
 480 550 l 1
 365 550 l 1
EndSplineSet
Validated: 1
EndChar

StartChar: Uogonek
Encoding: 370 370 302
Width: 830
Flags: W
HStem: -185 75<493.5 660 580 660 580 660> 0 120<183.5 525 305 410 305 580 305 590> 640 20<70 270 270 270 560 760 760 760>
VStem: 70 200<138.5 148 148 660> 410 130<-85 -78 -78 -32 -88.5 0 -88.5 0> 560 200<148 660>
LayerCount: 2
Fore
SplineSet
70 136 m 2
 70 660 l 1
 270 660 l 1
 270 148 l 2
 270 129 282 120 305 120 c 2
 525 120 l 2
 548 120 560 129 560 148 c 2
 560 660 l 1
 760 660 l 1
 760 136 l 2
 760 45 703 0 590 0 c 2
 580 0 l 2
 553 0 540 -11 540 -32 c 2
 540 -78 l 2
 540 -99 553 -110 580 -110 c 2
 660 -110 l 1
 660 -185 l 1
 535 -185 l 2
 452 -185 410 -152 410 -85 c 2
 410 0 l 1
 240 0 l 2
 127 0 70 45 70 136 c 2
EndSplineSet
Validated: 1
EndChar

StartChar: uogonek
Encoding: 371 371 303
Width: 680
Flags: W
HStem: -185 75<453.5 620 540 620 540 620> 0 105<160 440 265 370 265 540 265 620> 470 20<60 240 240 240 440 620 620 620>
VStem: 60 180<120 125 125 490> 370 130<-85 -78 -78 -32 -88.5 0 -88.5 0> 440 180<105 490>
LayerCount: 2
Fore
SplineSet
60 120 m 2xf8
 60 490 l 1
 240 490 l 1
 240 125 l 2
 240 112 248 105 265 105 c 2
 440 105 l 1
 440 490 l 1
 620 490 l 1
 620 0 l 1xf4
 540 0 l 2
 513 0 500 -11 500 -32 c 2
 500 -78 l 2xf8
 500 -99 513 -110 540 -110 c 2
 620 -110 l 1
 620 -185 l 1xf4
 495 -185 l 2
 412 -185 370 -152 370 -85 c 2
 370 0 l 1
 210 0 l 2
 110 0 60 40 60 120 c 2xf8
EndSplineSet
Validated: 1
EndChar

StartChar: Wcircumflex
Encoding: 372 372 304
Width: 1200
Flags: W
HStem: 0 21<200 455 200 200 745 1000 745 745> 640 20<15 210 210 210 495 705 705 705 990 1185 1185 1185> 720 160<410 665 535 537 663 663 663 665 535 790>
LayerCount: 2
Fore
SplineSet
15 660 m 1
 210 660 l 1
 341 195 l 1
 495 660 l 1
 705 660 l 1
 859 195 l 1
 990 660 l 1
 1185 660 l 1
 1000 0 l 1
 745 0 l 1
 600 437 l 1
 455 0 l 1
 200 0 l 1
 15 660 l 1
410 720 m 1
 535 880 l 1
 665 880 l 1
 790 720 l 1
 663 720 l 1
 600 795 l 1
 537 720 l 1
 410 720 l 1
EndSplineSet
Validated: 1
EndChar

StartChar: wcircumflex
Encoding: 373 373 305
Width: 930
Flags: W
HStem: 0 21<165 370 165 165 560 765 560 560> 470 20<10 180 180 180 382 548 548 548 750 920 920 920> 550 160<275 530 400 402 528 528 528 530 400 655>
LayerCount: 2
Fore
SplineSet
10 490 m 1
 180 490 l 1
 281 170 l 1
 382 490 l 1
 548 490 l 1
 649 170 l 1
 750 490 l 1
 920 490 l 1
 765 0 l 1
 560 0 l 1
 465 301 l 1
 370 0 l 1
 165 0 l 1
 10 490 l 1
275 550 m 1
 400 710 l 1
 530 710 l 1
 655 550 l 1
 528 550 l 1
 465 625 l 1
 402 550 l 1
 275 550 l 1
EndSplineSet
Validated: 1
EndChar

StartChar: Ycircumflex
Encoding: 374 374 306
Width: 810
Flags: W
HStem: 0 21<305 505 305 305> 640 20<5 221 221 221 589 805 805 805> 720 160<215 470 340 342 468 468 468 470 340 595>
VStem: 305 200<0 245 0 245>
LayerCount: 2
Fore
SplineSet
5 660 m 1
 221 660 l 1
 405 405 l 1
 589 660 l 1
 805 660 l 1
 505 245 l 1
 505 0 l 1
 305 0 l 1
 305 245 l 1
 5 660 l 1
215 720 m 1
 340 880 l 1
 470 880 l 1
 595 720 l 1
 468 720 l 1
 405 795 l 1
 342 720 l 1
 215 720 l 1
EndSplineSet
Validated: 1
EndChar

StartChar: ycircumflex
Encoding: 375 375 307
Width: 680
Flags: W
HStem: -210 21<172 350 172 172> 470 20<10 188 188 188 492 670 670 670> 550 160<150 405 275 277 403 403 403 405 275 530>
LayerCount: 2
Fore
SplineSet
10 490 m 1
 188 490 l 1
 340 158 l 1
 492 490 l 1
 670 490 l 1
 350 -210 l 1
 172 -210 l 1
 251 -37 l 1
 10 490 l 1
150 550 m 1
 275 710 l 1
 405 710 l 1
 530 550 l 1
 403 550 l 1
 340 625 l 1
 277 550 l 1
 150 550 l 1
EndSplineSet
Validated: 1
EndChar

StartChar: Ydieresis
Encoding: 376 376 308
Width: 810
Flags: W
HStem: 0 21<305 505 305 305> 640 20<5 221 221 221 589 805 805 805> 740 120<220 360 220 360 450 590 220 450>
VStem: 220 140<740 860 740 860> 305 200<0 245 0 245> 450 140<740 860 740 860>
LayerCount: 2
Fore
SplineSet
5 660 m 1xe8
 221 660 l 1
 405 405 l 1
 589 660 l 1
 805 660 l 1
 505 245 l 1
 505 0 l 1
 305 0 l 1
 305 245 l 1
 5 660 l 1xe8
220 740 m 1xf0
 220 860 l 1
 360 860 l 1
 360 740 l 1
 220 740 l 1xf0
450 740 m 1xe4
 450 860 l 1
 590 860 l 1
 590 740 l 1
 450 740 l 1xe4
EndSplineSet
Validated: 1
EndChar

StartChar: Zacute
Encoding: 377 377 309
Width: 750
Flags: W
HStem: 0 120<40 40 285 710> 540 120<50 455 50 700 50 700> 720 160<280 550 390 410>
LayerCount: 2
Fore
SplineSet
40 0 m 1
 40 120 l 1
 455 540 l 1
 50 540 l 1
 50 660 l 1
 700 660 l 1
 700 540 l 1
 285 120 l 1
 710 120 l 1
 710 0 l 1
 40 0 l 1
280 720 m 1
 390 880 l 1
 550 880 l 1
 410 720 l 1
 280 720 l 1
EndSplineSet
Validated: 1
EndChar

StartChar: zacute
Encoding: 378 378 310
Width: 620
Flags: W
HStem: 0 105<40 40 267 580> 385 105<50 343 50 570 50 570> 550 160<215 485 325 345>
LayerCount: 2
Fore
SplineSet
40 0 m 1
 40 105 l 1
 343 385 l 1
 50 385 l 1
 50 490 l 1
 570 490 l 1
 570 385 l 1
 267 105 l 1
 580 105 l 1
 580 0 l 1
 40 0 l 1
215 550 m 1
 325 710 l 1
 485 710 l 1
 345 550 l 1
 215 550 l 1
EndSplineSet
Validated: 1
EndChar

StartChar: Zdotaccent
Encoding: 379 379 311
Width: 750
Flags: W
HStem: 0 120<40 40 285 710> 540 120<50 455 50 700 50 700> 740 120<295 455 295 455>
VStem: 295 160<740 860>
LayerCount: 2
Fore
SplineSet
40 0 m 1
 40 120 l 1
 455 540 l 1
 50 540 l 1
 50 660 l 1
 700 660 l 1
 700 540 l 1
 285 120 l 1
 710 120 l 1
 710 0 l 1
 40 0 l 1
295 740 m 1
 295 860 l 1
 455 860 l 1
 455 740 l 1
 295 740 l 1
EndSplineSet
Validated: 1
EndChar

StartChar: zdotaccent
Encoding: 380 380 312
Width: 620
Flags: W
HStem: 0 105<40 40 267 580> 385 105<50 343 50 570 50 570> 570 120<230 390 230 390>
VStem: 230 160<570 690 570 690>
LayerCount: 2
Fore
SplineSet
40 0 m 1
 40 105 l 1
 343 385 l 1
 50 385 l 1
 50 490 l 1
 570 490 l 1
 570 385 l 1
 267 105 l 1
 580 105 l 1
 580 0 l 1
 40 0 l 1
230 570 m 1
 230 690 l 1
 390 690 l 1
 390 570 l 1
 230 570 l 1
EndSplineSet
Validated: 1
EndChar

StartChar: Zcaron
Encoding: 381 381 313
Width: 750
Flags: W
HStem: 0 120<40 40 285 710> 540 120<50 455 50 700 50 700> 720 160<310 312 438 440 310 310>
LayerCount: 2
Fore
SplineSet
40 0 m 1
 40 120 l 1
 455 540 l 1
 50 540 l 1
 50 660 l 1
 700 660 l 1
 700 540 l 1
 285 120 l 1
 710 120 l 1
 710 0 l 1
 40 0 l 1
185 880 m 1
 312 880 l 1
 375 805 l 1
 438 880 l 1
 565 880 l 1
 440 720 l 1
 310 720 l 1
 185 880 l 1
EndSplineSet
Validated: 1
EndChar

StartChar: zcaron
Encoding: 382 382 314
Width: 620
Flags: W
HStem: 0 105<40 40 267 580> 385 105<50 343 50 570 50 570> 550 160<245 247 373 375 245 245>
LayerCount: 2
Fore
SplineSet
40 0 m 1
 40 105 l 1
 343 385 l 1
 50 385 l 1
 50 490 l 1
 570 490 l 1
 570 385 l 1
 267 105 l 1
 580 105 l 1
 580 0 l 1
 40 0 l 1
120 710 m 1
 247 710 l 1
 310 635 l 1
 373 710 l 1
 500 710 l 1
 375 550 l 1
 245 550 l 1
 120 710 l 1
EndSplineSet
Validated: 1
EndChar

StartChar: figuredash
Encoding: 8210 8210 316
Width: 740
Flags: W
HStem: 225 120<160 580 160 580>
VStem: 160 420<225 345 225 345>
LayerCount: 2
Fore
SplineSet
160 225 m 1
 160 345 l 1
 580 345 l 1
 580 225 l 1
 160 225 l 1
EndSplineSet
Validated: 1
EndChar

StartChar: endash
Encoding: 8211 8211 317
Width: 640
Flags: W
HStem: 225 120<40 600 40 600>
VStem: 40 560<225 345 225 345>
LayerCount: 2
Fore
SplineSet
40 225 m 1
 40 345 l 1
 600 345 l 1
 600 225 l 1
 40 225 l 1
EndSplineSet
Validated: 1
EndChar

StartChar: emdash
Encoding: 8212 8212 318
Width: 1000
Flags: W
HStem: 225 120<40 960 40 960>
VStem: 40 920<225 345 225 345>
LayerCount: 2
Fore
SplineSet
40 225 m 1
 40 345 l 1
 960 345 l 1
 960 225 l 1
 40 225 l 1
EndSplineSet
Validated: 1
EndChar

StartChar: uni2015
Encoding: 8213 8213 319
Width: 1000
Flags: W
HStem: 225 120<0 1000 0 1000>
VStem: 0 1000<225 345 225 345>
LayerCount: 2
Fore
SplineSet
0 225 m 1
 0 345 l 1
 1000 345 l 1
 1000 225 l 1
 0 225 l 1
EndSplineSet
Validated: 1
EndChar

StartChar: quoteleft
Encoding: 8216 8216 320
Width: 340
Flags: W
HStem: 380 280<40 290 155 220>
VStem: 40 180<380 380>
LayerCount: 2
Fore
SplineSet
40 380 m 1
 155 660 l 1
 290 660 l 1
 220 380 l 1
 40 380 l 1
EndSplineSet
Validated: 1
EndChar

StartChar: quoteright
Encoding: 8217 8217 321
Width: 340
Flags: W
HStem: 380 280<50 300 120 185>
VStem: 120 180<660 660>
LayerCount: 2
Fore
SplineSet
50 380 m 1
 120 660 l 1
 300 660 l 1
 185 380 l 1
 50 380 l 1
EndSplineSet
Validated: 1
EndChar

StartChar: quotesinglbase
Encoding: 8218 8218 322
Width: 340
Flags: W
HStem: -130 280<25 275 95 160>
VStem: 95 180<150 150>
LayerCount: 2
Fore
SplineSet
25 -130 m 1
 95 150 l 1
 275 150 l 1
 160 -130 l 1
 25 -130 l 1
EndSplineSet
Validated: 1
EndChar

StartChar: quotereversed
Encoding: 8219 8219 323
Width: 340
Flags: W
HStem: 380 280<155 220 40 290 155 155>
VStem: 40 180<660 660>
LayerCount: 2
Fore
SplineSet
40 660 m 1
 220 660 l 1
 290 380 l 1
 155 380 l 1
 40 660 l 1
EndSplineSet
Validated: 1
EndChar

StartChar: quotedblleft
Encoding: 8220 8220 324
Width: 600
Flags: W
HStem: 380 280<40 290 155 220 415 480 155 300>
VStem: 40 180<380 380> 300 180<380 380>
LayerCount: 2
Fore
SplineSet
40 380 m 1
 155 660 l 1
 290 660 l 1
 220 380 l 1
 40 380 l 1
300 380 m 1
 415 660 l 1
 550 660 l 1
 480 380 l 1
 300 380 l 1
EndSplineSet
Validated: 1
EndChar

StartChar: quotedblright
Encoding: 8221 8221 325
Width: 600
Flags: W
HStem: 380 280<50 300 120 185 380 445 120 310>
VStem: 120 180<660 660> 380 180<660 660>
LayerCount: 2
Fore
SplineSet
50 380 m 1
 120 660 l 1
 300 660 l 1
 185 380 l 1
 50 380 l 1
310 380 m 1
 380 660 l 1
 560 660 l 1
 445 380 l 1
 310 380 l 1
EndSplineSet
Validated: 1
EndChar

StartChar: quotedblbase
Encoding: 8222 8222 326
Width: 600
Flags: W
HStem: -130 280<25 275 95 160 355 420 95 285>
VStem: 95 180<150 150> 355 180<150 150>
LayerCount: 2
Fore
SplineSet
25 -130 m 1
 95 150 l 1
 275 150 l 1
 160 -130 l 1
 25 -130 l 1
285 -130 m 1
 355 150 l 1
 535 150 l 1
 420 -130 l 1
 285 -130 l 1
EndSplineSet
Validated: 1
EndChar

StartChar: uni201F
Encoding: 8223 8223 327
Width: 600
Flags: W
HStem: 380 280<155 220 40 290 155 155 415 415 415 480 40 550>
VStem: 40 180<660 660> 300 180<660 660>
LayerCount: 2
Fore
SplineSet
40 660 m 1
 220 660 l 1
 290 380 l 1
 155 380 l 1
 40 660 l 1
300 660 m 1
 480 660 l 1
 550 380 l 1
 415 380 l 1
 300 660 l 1
EndSplineSet
Validated: 1
EndChar

StartChar: dagger
Encoding: 8224 8224 328
Width: 640
Flags: W
HStem: -105 21G<230 410 230 230> 385 105<50 230 50 230 410 590> 640 20G<230 410 410 410>
VStem: 230 180<-105 385 -105 385 490 660>
LayerCount: 2
Fore
SplineSet
50 385 m 1
 50 490 l 1
 230 490 l 1
 230 660 l 1
 410 660 l 1
 410 490 l 1
 590 490 l 1
 590 385 l 1
 410 385 l 1
 410 -105 l 1
 230 -105 l 1
 230 385 l 1
 50 385 l 1
EndSplineSet
Validated: 1
EndChar

StartChar: daggerdbl
Encoding: 8225 8225 329
Width: 640
Flags: W
HStem: -105 21G<230 410 230 230> 65 105<50 230 50 230 410 590> 385 105<50 230 50 230 410 590> 640 20G<230 410 410 410>
VStem: 230 180<-105 65 -105 65 170 385 490 660>
LayerCount: 2
Fore
SplineSet
50 65 m 1
 50 170 l 1
 230 170 l 1
 230 385 l 1
 50 385 l 1
 50 490 l 1
 230 490 l 1
 230 660 l 1
 410 660 l 1
 410 490 l 1
 590 490 l 1
 590 385 l 1
 410 385 l 1
 410 170 l 1
 590 170 l 1
 590 65 l 1
 410 65 l 1
 410 -105 l 1
 230 -105 l 1
 230 65 l 1
 50 65 l 1
EndSplineSet
Validated: 1
EndChar

StartChar: bullet
Encoding: 8226 8226 330
Width: 430
Flags: W
HStem: 180 260<75 355 75 355>
VStem: 75 280<180 440 180 440>
LayerCount: 2
Fore
SplineSet
75 180 m 1
 75 440 l 1
 355 440 l 1
 355 180 l 1
 75 180 l 1
EndSplineSet
Validated: 1
EndChar

StartChar: ellipsis
Encoding: 8230 8230 331
Width: 1020
Flags: W
HStem: 0 150<75 265 75 265 415 605 755 945>
VStem: 75 190<0 150 0 150> 415 190<0 150 0 150> 755 190<0 150 0 150>
LayerCount: 2
Fore
SplineSet
75 0 m 1
 75 150 l 1
 265 150 l 1
 265 0 l 1
 75 0 l 1
415 0 m 1
 415 150 l 1
 605 150 l 1
 605 0 l 1
 415 0 l 1
755 0 m 1
 755 150 l 1
 945 150 l 1
 945 0 l 1
 755 0 l 1
EndSplineSet
Validated: 1
EndChar

StartChar: perthousand
Encoding: 8240 8240 333
Width: 1570
Flags: W
HStem: 0 80<760 910 850 910 910 916.5 850 965 1310 1370 1370 1376.5> 280 80<110 260 200 260 260 266.5 200 315> 300 80<843.5 850 850 910 1303.5 1310 1310 1370> 580 80<193.5 200 200 260>
VStem: 40 140<370.5 376 376 564> 280 140<376 564 564 569.5> 690 140<90.5 96 96 284> 930 140<96 284 284 289.5> 1150 140<90.5 96 96 284> 1390 140<96 284 284 289.5>
LayerCount: 2
Fore
SplineSet
40 364 m 2xdfc0
 40 576 l 2
 40 632 75 660 145 660 c 2
 315 660 l 2
 385 660 420 632 420 576 c 2
 420 364 l 2
 420 308 385 280 315 280 c 2
 145 280 l 2
 75 280 40 308 40 364 c 2xdfc0
180 376 m 2
 180 365 187 360 200 360 c 2
 260 360 l 2
 273 360 280 365 280 376 c 2
 280 564 l 2
 280 575 273 580 260 580 c 2
 200 580 l 2
 187 580 180 575 180 564 c 2
 180 376 l 2
295 0 m 1
 657 660 l 1
 815 660 l 1
 453 0 l 1
 295 0 l 1
690 84 m 2
 690 296 l 2
 690 352 725 380 795 380 c 2
 965 380 l 2xbfc0
 1035 380 1070 352 1070 296 c 2
 1070 84 l 2
 1070 28 1035 0 965 0 c 2
 795 0 l 2
 725 0 690 28 690 84 c 2
830 96 m 2
 830 85 837 80 850 80 c 2
 910 80 l 2
 923 80 930 85 930 96 c 2
 930 284 l 2
 930 295 923 300 910 300 c 2
 850 300 l 2
 837 300 830 295 830 284 c 2
 830 96 l 2
1150 84 m 2
 1150 296 l 2
 1150 352 1185 380 1255 380 c 2
 1425 380 l 2
 1495 380 1530 352 1530 296 c 2
 1530 84 l 2
 1530 28 1495 0 1425 0 c 2
 1255 0 l 2
 1185 0 1150 28 1150 84 c 2
1290 96 m 2
 1290 85 1297 80 1310 80 c 2
 1370 80 l 2
 1383 80 1390 85 1390 96 c 2
 1390 284 l 2
 1390 295 1383 300 1370 300 c 2
 1310 300 l 2
 1297 300 1290 295 1290 284 c 2
 1290 96 l 2
EndSplineSet
Validated: 1
EndChar

StartChar: minute
Encoding: 8242 8242 334
Width: 300
Flags: W
HStem: 380 280<70 230 70 230>
VStem: 70 160<380 660 380 660>
LayerCount: 2
Fore
SplineSet
70 380 m 1
 70 660 l 1
 230 660 l 1
 230 380 l 1
 70 380 l 1
EndSplineSet
Validated: 1
EndChar

StartChar: second
Encoding: 8243 8243 335
Width: 560
Flags: W
HStem: 380 280<70 230 70 230 330 490 70 330>
VStem: 70 160<380 660 380 660> 330 160<380 660 380 660>
LayerCount: 2
Fore
SplineSet
70 380 m 1
 70 660 l 1
 230 660 l 1
 230 380 l 1
 70 380 l 1
330 380 m 1
 330 660 l 1
 490 660 l 1
 490 380 l 1
 330 380 l 1
EndSplineSet
Validated: 1
EndChar

StartChar: guilsinglleft
Encoding: 8249 8249 336
Width: 440
Flags: W
HStem: 50 420<225 400 225 400>
LayerCount: 2
Fore
SplineSet
30 260 m 1
 225 470 l 1
 400 470 l 1
 215 260 l 1
 400 50 l 1
 225 50 l 1
 30 260 l 1
EndSplineSet
Validated: 1
EndChar

StartChar: guilsinglright
Encoding: 8250 8250 337
Width: 440
Flags: W
HStem: 50 420<40 215 40 215>
LayerCount: 2
Fore
SplineSet
40 50 m 1
 225 260 l 1
 40 470 l 1
 215 470 l 1
 410 260 l 1
 215 50 l 1
 40 50 l 1
EndSplineSet
Validated: 1
EndChar

StartChar: uni203D
Encoding: 8253 8253 338
Width: 740
Flags: W
HStem: 0 150<210 410 210 410> 225 21G<210 410 210 210> 285 120<410 455 455 466.5 410 520 410 455> 540 120<40 520 40 210 410 410 410 455>
VStem: 210 200<0 150 0 150 225 285 405 540> 490 200<433 512 512 521.5>
LayerCount: 2
Fore
SplineSet
40 540 m 1
 40 660 l 1
 520 660 l 2
 633 660 690 615 690 524 c 2
 690 421 l 2
 690 330 633 285 520 285 c 2
 410 285 l 1
 410 225 l 1
 210 225 l 1
 210 540 l 1
 40 540 l 1
210 0 m 1
 210 150 l 1
 410 150 l 1
 410 0 l 1
 210 0 l 1
410 405 m 1
 455 405 l 2
 478 405 490 414 490 433 c 2
 490 512 l 2
 490 531 478 540 455 540 c 2
 410 540 l 1
 410 405 l 1
EndSplineSet
Validated: 1
EndChar

StartChar: uni203E
Encoding: 8254 8254 339
Width: 640
Flags: W
HStem: 745 105<0 640 0 640>
VStem: 0 640<745 850 745 850>
LayerCount: 2
Fore
SplineSet
0 745 m 1
 0 850 l 1
 640 850 l 1
 640 745 l 1
 0 745 l 1
EndSplineSet
Validated: 1
EndChar

StartChar: fraction
Encoding: 8260 8260 340
Width: 190
Flags: W
HStem: 0 21G<-165 -165 -165 -7> 640 20G<197 355 355 355>
LayerCount: 2
Fore
SplineSet
-165 0 m 1
 197 660 l 1
 355 660 l 1
 -7 0 l 1
 -165 0 l 1
EndSplineSet
Validated: 1
EndChar

StartChar: arrowleft
Encoding: 8592 8592 341
Width: 750
Flags: W
HStem: 205 160<330 700 330 700>
LayerCount: 2
Fore
SplineSet
40 285 m 1
 285 535 l 1
 480 535 l 1
 330 365 l 1
 700 365 l 1
 700 205 l 1
 330 205 l 1
 480 35 l 1
 285 35 l 1
 40 285 l 1
EndSplineSet
Validated: 1
EndChar

StartChar: arrowup
Encoding: 8593 8593 342
Width: 620
Flags: W
HStem: 0 21G<230 390 230 230>
VStem: 230 160<0 370 0 370>
LayerCount: 2
Fore
SplineSet
60 220 m 1
 60 415 l 1
 310 660 l 1
 560 415 l 1
 560 220 l 1
 390 370 l 1
 390 0 l 1
 230 0 l 1
 230 370 l 1
 60 220 l 1
EndSplineSet
Validated: 1
EndChar

StartChar: arrowright
Encoding: 8594 8594 343
Width: 750
Flags: W
HStem: 205 160<50 420 50 420>
LayerCount: 2
Fore
SplineSet
50 205 m 1
 50 365 l 1
 420 365 l 1
 270 535 l 1
 465 535 l 1
 710 285 l 1
 465 35 l 1
 270 35 l 1
 420 205 l 1
 50 205 l 1
EndSplineSet
Validated: 1
EndChar

StartChar: arrowdown
Encoding: 8595 8595 344
Width: 620
Flags: W
HStem: 640 20G<230 390 390 390>
VStem: 230 160<290 660 290 660>
LayerCount: 2
Fore
SplineSet
60 245 m 1
 60 440 l 1
 230 290 l 1
 230 660 l 1
 390 660 l 1
 390 290 l 1
 560 440 l 1
 560 245 l 1
 310 0 l 1
 60 245 l 1
EndSplineSet
Validated: 1
EndChar

StartChar: uni219E
Encoding: 8606 8606 345
Width: 1000
VWidth: 0
Flags: W
HStem: -210 46.0703<342.418 657.582> 89.9883 42.4297<793.531 953.93> 447.582 42.4297<793.531 953.93> 743.93 46.0703<342.418 657.582>
VStem: 299.988 42.4297<-163.93 -3.53125 583.531 743.93> 657.582 42.4297<-163.93 -3.53125 583.531 743.93> 953.93 46.0703<132.418 447.582>
LayerCount: 2
Fore
SplineSet
0 89.990234375 m 1
 0 490.009765625 l 1
 234.35546875 490.009765625 l 1
 434.365234375 283.939453125 l 1
 234.35546875 89.990234375 l 1
 0 89.990234375 l 1
765.64453125 490.01171875 m 1
 1000 490.01171875 l 1
 1000 89.98828125 l 1
 765.64453125 89.98828125 l 1
 565.6328125 283.9375 l 1
 765.64453125 490.01171875 l 1
793.53125 447.58203125 m 1
 635.9453125 285.2265625 l 1
 793.53125 132.41796875 l 1
 953.9296875 132.41796875 l 1
 953.9296875 447.58203125 l 1
 793.53125 447.58203125 l 1
299.98828125 555.64453125 m 1
 299.98828125 790 l 1
 700.01171875 790 l 1
 700.01171875 555.64453125 l 1
 506.0625 355.6328125 l 1
 299.98828125 555.64453125 l 1
342.41796875 583.53125 m 1
 504.7734375 425.9453125 l 1
 657.58203125 583.53125 l 1
 657.58203125 743.9296875 l 1
 342.41796875 743.9296875 l 1
 342.41796875 583.53125 l 1
299.98828125 24.35546875 m 1
 506.0625 224.3671875 l 1
 700.01171875 24.35546875 l 1
 700.01171875 -210 l 1
 299.98828125 -210 l 1
 299.98828125 24.35546875 l 1
342.41796875 -3.53125 m 1
 342.41796875 -163.9296875 l 1
 657.58203125 -163.9296875 l 1
 657.58203125 -3.53125 l 1
 504.7734375 154.0546875 l 1
 342.41796875 -3.53125 l 1
EndSplineSet
Validated: 1
EndChar

StartChar: uni219F
Encoding: 8607 8607 346
Width: 1000
VWidth: 0
Flags: W
HStem: -210 46.0703<342.418 657.582> 89.9883 42.4297<46.0703 206.469 793.531 953.93> 447.582 42.4297<46.0703 206.469 793.531 953.93>
VStem: 0 46.0703<132.418 447.582> 299.988 42.4297<-163.93 -3.53125> 657.582 42.4297<-163.93 -3.53125> 953.93 46.0703<132.418 447.582>
LayerCount: 2
Fore
SplineSet
299.990234375 790 m 1
 700.009765625 790 l 1
 700.009765625 555.64453125 l 1
 493.939453125 355.634765625 l 1
 299.990234375 555.64453125 l 1
 299.990234375 790 l 1
700.01171875 24.35546875 m 1
 700.01171875 -210 l 1
 299.98828125 -210 l 1
 299.98828125 24.35546875 l 1
 493.9375 224.3671875 l 1
 700.01171875 24.35546875 l 1
657.58203125 -3.53125 m 1
 495.2265625 154.0546875 l 1
 342.41796875 -3.53125 l 1
 342.41796875 -163.9296875 l 1
 657.58203125 -163.9296875 l 1
 657.58203125 -3.53125 l 1
765.64453125 490.01171875 m 1
 1000 490.01171875 l 1
 1000 89.98828125 l 1
 765.64453125 89.98828125 l 1
 565.6328125 283.9375 l 1
 765.64453125 490.01171875 l 1
793.53125 447.58203125 m 1
 635.9453125 285.2265625 l 1
 793.53125 132.41796875 l 1
 953.9296875 132.41796875 l 1
 953.9296875 447.58203125 l 1
 793.53125 447.58203125 l 1
234.35546875 490.01171875 m 1
 434.3671875 283.9375 l 1
 234.35546875 89.98828125 l 1
 0 89.98828125 l 1
 0 490.01171875 l 1
 234.35546875 490.01171875 l 1
206.46875 447.58203125 m 1
 46.0703125 447.58203125 l 1
 46.0703125 132.41796875 l 1
 206.46875 132.41796875 l 1
 364.0546875 285.2265625 l 1
 206.46875 447.58203125 l 1
EndSplineSet
Validated: 1
EndChar

StartChar: uni21A0
Encoding: 8608 8608 347
Width: 1000
VWidth: 0
Flags: W
HStem: -210 46.0703<342.418 657.582> 89.9883 42.4297<46.0703 206.469> 447.582 42.4297<46.0703 206.469> 743.93 46.0703<342.418 657.582>
VStem: 0 46.0703<132.418 447.582> 299.988 42.4297<-163.93 -3.53125 583.531 743.93> 657.582 42.4297<-163.93 -3.53125 583.531 743.93>
LayerCount: 2
Fore
SplineSet
1000 490.009765625 m 1
 1000 89.990234375 l 1
 765.64453125 89.990234375 l 1
 565.634765625 296.060546875 l 1
 765.64453125 490.009765625 l 1
 1000 490.009765625 l 1
234.35546875 89.98828125 m 1
 0 89.98828125 l 1
 0 490.01171875 l 1
 234.35546875 490.01171875 l 1
 434.3671875 296.0625 l 1
 234.35546875 89.98828125 l 1
206.46875 132.41796875 m 1
 364.0546875 294.7734375 l 1
 206.46875 447.58203125 l 1
 46.0703125 447.58203125 l 1
 46.0703125 132.41796875 l 1
 206.46875 132.41796875 l 1
700.01171875 24.35546875 m 1
 700.01171875 -210 l 1
 299.98828125 -210 l 1
 299.98828125 24.35546875 l 1
 493.9375 224.3671875 l 1
 700.01171875 24.35546875 l 1
657.58203125 -3.53125 m 1
 495.2265625 154.0546875 l 1
 342.41796875 -3.53125 l 1
 342.41796875 -163.9296875 l 1
 657.58203125 -163.9296875 l 1
 657.58203125 -3.53125 l 1
700.01171875 555.64453125 m 1
 493.9375 355.6328125 l 1
 299.98828125 555.64453125 l 1
 299.98828125 790 l 1
 700.01171875 790 l 1
 700.01171875 555.64453125 l 1
657.58203125 583.53125 m 1
 657.58203125 743.9296875 l 1
 342.41796875 743.9296875 l 1
 342.41796875 583.53125 l 1
 495.2265625 425.9453125 l 1
 657.58203125 583.53125 l 1
EndSplineSet
Validated: 1
EndChar

StartChar: uni21A1
Encoding: 8609 8609 348
Width: 1000
VWidth: 0
Flags: W
HStem: -210 21G<299.99 700.01> 89.9883 42.4297<46.0703 206.469 793.531 953.93> 447.582 42.4297<46.0703 206.469 793.531 953.93> 743.93 46.0703<342.418 657.582>
VStem: 0 46.0703<132.418 447.582> 299.988 42.4297<583.531 743.93> 657.582 42.4297<583.531 743.93> 953.93 46.0703<132.418 447.582>
LayerCount: 2
Fore
SplineSet
700.009765625 -210 m 1
 299.990234375 -210 l 1
 299.990234375 24.35546875 l 1
 506.060546875 224.365234375 l 1
 700.009765625 24.35546875 l 1
 700.009765625 -210 l 1
299.98828125 555.64453125 m 1
 299.98828125 790 l 1
 700.01171875 790 l 1
 700.01171875 555.64453125 l 1
 506.0625 355.6328125 l 1
 299.98828125 555.64453125 l 1
342.41796875 583.53125 m 1
 504.7734375 425.9453125 l 1
 657.58203125 583.53125 l 1
 657.58203125 743.9296875 l 1
 342.41796875 743.9296875 l 1
 342.41796875 583.53125 l 1
234.35546875 89.98828125 m 1
 0 89.98828125 l 1
 0 490.01171875 l 1
 234.35546875 490.01171875 l 1
 434.3671875 296.0625 l 1
 234.35546875 89.98828125 l 1
206.46875 132.41796875 m 1
 364.0546875 294.7734375 l 1
 206.46875 447.58203125 l 1
 46.0703125 447.58203125 l 1
 46.0703125 132.41796875 l 1
 206.46875 132.41796875 l 1
765.64453125 89.98828125 m 1
 565.6328125 296.0625 l 1
 765.64453125 490.01171875 l 1
 1000 490.01171875 l 1
 1000 89.98828125 l 1
 765.64453125 89.98828125 l 1
793.53125 132.41796875 m 1
 953.9296875 132.41796875 l 1
 953.9296875 447.58203125 l 1
 793.53125 447.58203125 l 1
 635.9453125 294.7734375 l 1
 793.53125 132.41796875 l 1
EndSplineSet
Validated: 1
EndChar

StartChar: uni21A4
Encoding: 8612 8612 349
Width: 1000
VWidth: 0
Flags: W
HStem: -210 37<429.19 570.81> 101 378<103.126 274.874> 101 37<740.19 881.81> 131 37<429.19 570.81> 412 37<429.19 570.81> 442 37<740.19 881.81> 753 37<429.19 570.81>
VStem: 311 37<-91.8099 49.8099 530.19 671.81> 622 37<219.19 360.81> 652 37<-91.8099 49.8099 530.19 671.81> 963 37<219.19 360.81>
LayerCount: 2
Fore
SplineSet
0 290 m 0xc320
 0 394 85 479 189 479 c 0
 293 479 378 394 378 290 c 0
 378 186 293 101 189 101 c 0
 85 101 0 186 0 290 c 0xc320
500 790 m 0
 604 790 689 705 689 601 c 0
 689 497 604 412 500 412 c 0x8b60
 396 412 311 497 311 601 c 0
 311 705 396 790 500 790 c 0
500 753 m 0
 416 753 348 685 348 601 c 0
 348 517 416 449 500 449 c 0
 584 449 652 517 652 601 c 0
 652 685 584 753 500 753 c 0
500 168 m 0x9360
 604 168 689 83 689 -21 c 0
 689 -125 604 -210 500 -210 c 0
 396 -210 311 -125 311 -21 c 0
 311 83 396 168 500 168 c 0x9360
500 131 m 0
 416 131 348 63 348 -21 c 0
 348 -105 416 -173 500 -173 c 0
 584 -173 652 -105 652 -21 c 0
 652 63 584 131 500 131 c 0
811 479 m 0xa7a0
 915 479 1000 394 1000 290 c 0
 1000 186 915 101 811 101 c 0
 707 101 622 186 622 290 c 0
 622 394 707 479 811 479 c 0xa7a0
811 442 m 0
 727 442 659 374 659 290 c 0
 659 206 727 138 811 138 c 0
 895 138 963 206 963 290 c 0
 963 374 895 442 811 442 c 0
EndSplineSet
Validated: 1
EndChar

